<?xml version="1.0" standalone="no"?>
<!DOCTYPE svg PUBLIC "-//W3C//DTD SVG 1.1//EN" "http://www.w3.org/Graphics/SVG/1.1/DTD/svg11.dtd" >
<svg xmlns="http://www.w3.org/2000/svg" xmlns:xlink="http://www.w3.org/1999/xlink" version="1.1">
<metadata>
Created by FontForge 20170910 at Sat Mar  2 06:37:37 2019
 By Jimmy Wärting
</metadata>
<defs>
<font id="RoadsideRegular" horiz-adv-x="0" >
  <font-face 
    font-family="Roadside"
    font-weight="400"
    font-stretch="normal"
    units-per-em="1000"
    panose-1="0 0 0 0 0 0 0 0 0 0"
    ascent="800"
    descent="-200"
    x-height="693.806"
    cap-height="691.838"
    bbox="-32.9985 -149.677 1038.21 829.519"
    underline-thickness="50"
    underline-position="-100"
    unicode-range="U+000A-F00A"
  />
<missing-glyph horiz-adv-x="527" 
d="M50 700h427v-700h-427v700zM78 680l185 -309l186 309h-371zM251 350l-180 300v-601zM264 329l-185 -308h370zM276 350l181 -303v605z" />
    <glyph glyph-name=".notdef" horiz-adv-x="527" 
d="M50 700h427v-700h-427v700zM78 680l185 -309l186 309h-371zM251 350l-180 300v-601zM264 329l-185 -308h370zM276 350l181 -303v605z" />
    <glyph glyph-name=".null" 
 />
    <glyph glyph-name=".null" 
 />
    <glyph glyph-name="LF" unicode="&#xa;" 
 />
    <glyph glyph-name="controlCR" unicode="&#xd;" 
 />
    <glyph glyph-name="space" unicode=" " horiz-adv-x="372" 
 />
    <glyph glyph-name="exclam" unicode="!" horiz-adv-x="256" 
d="M177.4 748.91c41.458 -10.3887 54.4756 -25.124 54.3926 -67.1377c-0.0556641 -35.416 -3.34766 -70.8184 -5.40332 -106.221c-3.52734 -60.833 -6.22168 -121.735 -11.2217 -182.457c-2.98633 -36.3047 -9.01367 -72.415 -14.875 -108.429
c-5.61133 -34.4443 -26.958 -55.833 -60.7217 -62.3193c-19.2637 -3.70801 -39.6523 -5.13867 -59.124 -3.25c-22.708 2.20801 -38.791 17.5137 -45.0684 39.1943c-5.18066 17.8613 -8.04199 36.9023 -8.58398 55.5137
c-1.22266 42.0967 -0.389648 84.2354 -0.389648 126.359c-0.791992 0.0273438 -1.59766 0.0410156 -2.40332 0.0683594c3.31934 81.9297 6.40234 163.859 10.0547 245.775c1.33301 30.0273 17.999 50.8047 48.2627 60.2217c31.291 9.72168 63.2207 10.6523 95.0811 2.68066z
M178.474 180.641c27.1523 -6.66699 33.749 -18.0137 30.7627 -45.708c-6.33301 -58.8184 -39.5684 -89.5264 -97.9287 -90.4434c-5.52734 -0.0830078 -11.0547 -0.125 -16.582 -0.0976562c-50.3887 0.277344 -66.7637 16.8047 -67.4023 68.0957
c-0.0693359 5.52734 -0.180664 11.0693 0.152344 16.583c2.625 42.8467 16.3887 56.791 58.9717 59.3604c9.90234 0.597656 19.8887 0.0839844 29.833 0.0839844c0.0976562 0.680664 0.180664 1.375 0.263672 2.05566c20.666 -3.19434 41.6934 -4.97168 61.9297 -9.92969z
" />
    <glyph glyph-name="quotedbl" unicode="&#x22;" horiz-adv-x="416" 
d="M349.927 669.945c31.4297 -4.72168 41.3086 -11.418 41.2393 -30.501c-0.0419922 -16.0693 -2.54199 -32.1523 -4.09766 -48.2217c-2.68066 -27.625 -4.72266 -55.2773 -8.51465 -82.8467c-2.26367 -16.4863 -6.83301 -32.8887 -11.2773 -49.2354
c-4.23633 -15.6387 -20.4307 -25.3467 -46.041 -28.291c-14.6113 -1.68066 -30.083 -2.33301 -44.8467 -1.47168c-17.2217 1 -29.416 7.94434 -34.1797 17.791c-3.93066 8.11133 -6.09766 16.75 -6.51465 25.208c-0.930664 19.1113 -0.291992 38.25 -0.291992 57.375
c-0.597656 0 -1.20898 0.0136719 -1.82031 0.0273438c2.51367 37.208 4.86133 74.4023 7.625 111.597c1.01367 13.6387 13.6523 23.0693 36.6104 27.3467c23.7217 4.41699 47.9434 4.84766 72.1094 1.22266zM140.35 669.943
c31.4297 -4.72168 41.3086 -11.418 41.2393 -30.501c-0.0419922 -16.0693 -2.54199 -32.1523 -4.09766 -48.2217c-2.68066 -27.625 -4.72266 -55.2773 -8.51465 -82.8467c-2.26367 -16.4863 -6.83301 -32.8887 -11.2773 -49.2354
c-4.25 -15.6387 -20.4443 -25.3467 -46.0547 -28.291c-14.6113 -1.68066 -30.083 -2.33301 -44.8467 -1.47168c-17.2217 1 -29.416 7.94434 -34.1797 17.791c-3.91699 8.11133 -6.08398 16.75 -6.50098 25.208c-0.930664 19.1113 -0.291992 38.25 -0.291992 57.375
c-0.597656 0 -1.20898 0.0136719 -1.82031 0.0273438c2.51367 37.208 4.86133 74.4023 7.625 111.597c1.01367 13.6387 13.6523 23.0693 36.6104 27.3467c23.7217 4.41699 47.9434 4.84766 72.1094 1.22266z" />
    <glyph glyph-name="numbersign" unicode="#" horiz-adv-x="557" 
d="M443.658 188.14c-1.13867 0 -0.958008 0.0136719 -0.208008 0.0136719c0.0693359 0 0.138672 -0.0136719 0.208008 -0.0136719zM473.547 313.597c38.0693 2.77734 50.04 -8.7041 51.0264 -47.1621c1.65234 -64.332 -12.8613 -79.1377 -76.7217 -78.29
c-1.80566 0.0136719 -3.52832 0.0136719 -4.40332 0.0136719c-15.6523 0.819336 -25.5967 1.79199 -35.5273 1.75c-22.5 -0.0976562 -26.7363 -3.83398 -29.2783 -26.6533c-3.05566 -27.5557 -4.88867 -55.2637 -8.38867 -82.7637
c-2.65234 -20.833 -10.208 -38.2637 -34.3184 -43.4023c-44.1943 -9.41699 -60.8057 3.17969 -59.3613 48.2627c0.777344 24.3467 4.875 48.582 5.70801 72.9287c0.819336 24.2217 -3.27832 28.8184 -26.9727 34.124c-10.708 2.38867 -21.9854 3.72168 -32.9297 3.30469
c-24.291 -0.930664 -31.124 -6.73633 -37.1797 -30.167c-7.22168 -27.9307 -12.8887 -56.2773 -20.9023 -83.958c-8.72168 -30.1387 -26.4297 -41.083 -57.3047 -38.2637c-25.041 2.29199 -38.8047 15.417 -38.207 41.0693c0.625 26.5273 4.23633 53.0127 7.02832 79.4707
c1.72266 16.3193 -0.0693359 27.3467 -20.958 29.458c-8.69434 0.888672 -21.208 11.6387 -23.3467 20.083c-5.34668 21.125 -7.86035 43.5273 -7.47168 65.3467c0.319336 17.708 14.2217 27.708 31.6523 28.125c30.2354 0.736328 43.624 17.9307 47.7764 45.2217
c4.16699 27.375 8.125 54.791 11.667 82.249c2.13867 16.5273 -6.02832 24.9717 -22.4727 25.7773c-2.20801 0.0976562 -4.41602 0.40332 -6.62402 0.680664c-44.374 5.51367 -50.6514 12.4307 -51.082 56.2217c-0.0136719 2.22266 0.0419922 4.44531 0.0693359 6.66797
c0.583008 52.4717 14.0137 66.4434 66.791 69.5264c38.3193 2.23633 39.333 2.09766 44.3887 39.833c3.79199 28.3887 10.917 54.541 33.083 74.1104c7.38867 6.52734 15.5 13.7354 24.542 16.5547c19.083 5.93066 40.208 10.792 57.7217 -2
c18.4863 -13.5 11.8613 -34.9443 8.11133 -52.6807c-4.56934 -21.5693 -13.708 -42.1387 -20.3193 -63.3193c-6.70801 -21.4717 -1.68066 -29.916 20.9717 -28.166c57.4297 4.41699 57.6377 -2.34668 69.9707 57.4443c2.66699 12.9307 1.375 26.6113 3.125 39.792
c5.69434 42.7217 51.5273 70.7627 91.916 56.6377c15.8887 -5.54199 23.291 -17.7227 20.666 -40.6387c-3.27734 -28.5967 -8.17969 -57.0547 -13.4854 -85.3604c-5.52734 -29.4717 -2.76367 -33.499 26.625 -32.8184c7.77734 0.180664 15.541 0.75 23.3047 0.694336
c30.5547 -0.194336 37.749 -6.86133 39.499 -36.167c3.01367 -50.7217 -11.542 -66.291 -62.4307 -66.7637c-38.333 -0.361328 -39.583 -1.31934 -49.083 -38.916c-5.98633 -23.666 -11.9443 -47.332 -17.7217 -71.04c-1.83301 -7.52734 -3.73535 -15.1523 -4.37402 -22.833
c-2.18066 -26.3604 3.23633 -32.3877 29.2217 -30.54c15.4023 1.09766 30.583 5.43066 45.999 6.55566zM316.701 416.309c10.1523 57.6797 3.88867 64.457 -55.124 61.624c-22.4443 -1.06934 -30.458 -5.70801 -34.6797 -27.8184
c-7.04199 -36.875 -11.6113 -74.2354 -16.3887 -105.888c2.25 -19.3193 -3.59668 -35.9307 14.8477 -42.75c34.3193 -12.6943 65.7354 1.80566 75.582 36.875c7.15234 25.458 11.166 51.8467 15.7627 77.957z" />
    <glyph glyph-name="dollar" unicode="$" horiz-adv-x="620" 
d="M595.497 570.356c-1.36133 -0.152344 -2.70312 -0.302734 -4.12012 -0.455078c0 -14.4443 0.944336 -28.9443 -0.166992 -43.3057c-3.70801 -48.2354 -28.6523 -76.082 -76.291 -81.2344c-25.1943 -2.72266 -51.0967 -1.30566 -76.4717 0.75
c-22.333 1.80566 -37.666 15.3467 -49.957 34.5547c-16.5967 25.916 -49.124 31.8877 -75.9014 16.624c-27.7354 -15.8057 -29.041 -45.6104 -0.430664 -59.2627c19.583 -9.34668 42.249 -12.2637 63.5957 -17.833c33.166 -8.65234 67.3877 -14.4023 99.3594 -26.2354
c55.7217 -20.6113 89.0967 -61.9854 94.749 -121.873c7.06934 -74.874 -3.875 -144.692 -66.749 -196.025c-28.9297 -23.625 -60.582 -41.541 -99.8037 -39.499c-17.9863 0.930664 -28.2227 -5.125 -32.7363 -24.6113c-5.83301 -25.166 -17.041 -32.208 -42.666 -33.3057
c-7.69434 -0.319336 -15.5273 0.694336 -23.1943 1.79199c-33.0693 4.72168 -38.6943 8.42969 -39.4863 41.54c-0.569336 23.7354 -11.541 29.3877 -32.4717 34.7207c-6.43066 1.63867 -14.542 -1.33398 -21.3887 -3.66699
c-8.13867 -2.76367 -15.8887 -10.5137 -23.5557 -10.1943c-38.6943 1.63867 -77.374 4.70801 -115.957 8.29102c-17.125 1.59766 -23.6807 15.4033 -27.1387 29.9727c-12.3193 51.9297 -23.0273 104.109 -20.2773 158.025c2.94434 57.624 22.8193 80.0264 80.291 86.5264
c20.833 2.34766 42.208 1.45898 63.2354 0.222656c23.791 -1.40234 41.3047 -14.6104 54.7207 -33.791c13.8193 -19.7637 32.083 -34.041 55.2354 -40.7773c10.4443 -3.04199 21.833 -4.56934 32.6797 -4.09668c17.9717 0.777344 29.6523 11.4023 33.3467 27.2773
c4.33301 18.5693 -1.09766 33.7354 -19.292 41.2217c-17.2217 7.08301 -36.1797 9.875 -54.3457 14.708c-37.4443 9.94434 -75.1797 18.9863 -112.234 30.2227c-68.0273 20.6387 -102.18 68.5273 -113.041 137.901c-16.1387 103.165 50.374 200.872 152.831 218.261
c14.8057 2.51367 30.6943 -0.25 45.9717 -1.68066c21.6387 -2.02734 23.2217 -1.01367 21.9023 19.875c-2.56934 40.9717 8.69434 55.5684 49.5684 57.1934c19.5557 0.777344 39.9307 -2.91699 58.917 -8.20898c20.3887 -5.69434 29.8604 -23.416 30.3877 -43.541
c0.527344 -19.9863 8.87402 -22.7227 26.9297 -21.0703c33.0273 3.02734 66.332 3.40234 99.54 3.75c27.291 0.291992 44.2354 -14.541 48.666 -40.9854c6.20801 -37.0967 10.583 -74.499 15.75 -111.776z" />
    <glyph glyph-name="percent" unicode="%" horiz-adv-x="633" 
d="M497.232 637.23c-31.6943 -68.3604 -66.75 -135.166 -98.5547 -203.484c-40.6797 -87.374 -79.499 -175.595 -119.193 -263.427c-11.8613 -26.2354 -22.75 -53.0127 -36.2637 -78.373c-12.6113 -23.6807 -62.6943 -40.417 -87.4854 -31.5146
c-12.7217 4.56934 -21.6104 13.6807 -20.916 27c0.805664 15.1807 2.52832 31.292 8.40332 45.0557c50.083 117.207 100.61 234.205 152.221 350.745c29.6523 66.957 63.4717 131.831 107.776 190.664c12.5967 16.7217 26.7354 29.958 44.124 27.208
c9.08301 -0.930664 12.5 -0.833008 15.6807 -1.66602c53.1104 -14.0137 53.4854 -20.6387 34.208 -62.208zM590.702 322.733c7.66699 -36.7773 12.167 -74.2217 17.4307 -107.638c-3.48633 -26.5 -5.51367 -48.5557 -9.45801 -70.2637
c-5.15234 -28.3193 -22.3047 -47.7354 -48.5547 -59.2217c-5.08301 -2.22266 -10.1104 -4.625 -15.2773 -6.625c-79.416 -30.8193 -143.929 8.48535 -152.373 93.1787c-4.06934 40.8467 -7.58301 81.624 0.180664 122.707c10.333 54.7217 29.9297 72.8604 84.5957 73.791
c23.291 0.388672 46.6797 0.736328 69.9014 -0.763672c31.25 -2.02734 47.166 -14.4854 53.5547 -45.165zM502.217 175.485c8.88867 12.9307 12.918 29.2217 19.0703 44.0273c-1.55566 0.611328 -3.11133 1.23633 -4.66699 1.84766c0 4.44434 0.0419922 8.875 0 13.3193
c-0.0976562 12.7217 -6.40332 23.5684 -18.4453 23.5684c-8.01367 0 -18.7637 -7.54199 -23.5137 -14.8193c-13.1943 -20.2363 -10.8193 -42.6387 -1.45801 -63.833c6.15234 -13.9443 20.3887 -16.6523 29.0137 -4.11035zM228.973 438.635
c-9.58301 -26.0273 -28.7051 -42.9033 -57.7051 -42.2783c-21.9307 0.472656 -44.6807 1.48633 -65.4863 7.63867c-53.8467 15.916 -80.4717 51.6797 -81.708 108.026c-0.541992 24.2354 2.02734 48.7764 5.66602 72.8037c10.9443 72.1104 38.375 95.3604 110.749 95.708
c8.88867 0 17.791 0.5 26.6377 -0.0830078c42.208 -2.76367 68.9854 -26.5137 79.3047 -67.999c10 -40.2354 -0.152344 -79.54 -4.34668 -119.025c-1.97266 -18.5557 -6.65332 -37.2637 -13.1113 -54.791zM151.019 514.591c10.292 15.9443 14.0283 34.707 8.05664 53.457
c-5.27734 16.583 -22.208 20.6797 -32.708 7.12402c-8.25 -10.6523 -12.5137 -24.4023 -16.1113 -31.7773c1.25 -12.1523 0.333008 -18.3604 2.69434 -22.832c3.81934 -7.22168 9.65234 -18.5273 14.8604 -18.6523c7.83301 -0.180664 18.8193 5.875 23.208 12.6807z" />
    <glyph glyph-name="ampersand" unicode="&#x26;" horiz-adv-x="583" 
d="M509.387 433.247c34.708 -0.375 49.8984 -18.7812 48.8848 -53.6416c-0.527344 -17.625 -3.69434 -35.2637 -6.875 -52.6797c-3.34766 -18.333 -10.6943 -33.708 -32.2217 -37.375c-12.9863 -2.20801 -17.292 -11.625 -17.1113 -24.5273
c0.291992 -21.0693 1.20898 -42.375 -1.23535 -63.208c-11.9443 -101.582 -86.207 -169.804 -188.872 -177.54c-63.3047 -4.77734 -123.582 4.61133 -182.512 27.708c-74.9854 29.375 -120.679 114.568 -100.692 195.442c10.6807 43.1943 26.7637 84.6387 62.0273 115.583
c14.875 13.0557 13.875 15.1533 -1.45801 27.959c-69.999 58.458 -84.5264 172.873 -33.1523 250.386c31.7773 47.958 78.416 66.5693 132.526 71.583c17.6113 1.625 35.5 0.25 53.2637 0.25c0.222656 1.875 0.458984 3.76367 0.681641 5.63867
c39.2773 -6.08301 79.0127 -10.1104 117.748 -18.6523c98.9434 -21.833 142.498 -100.859 141.748 -194.622c-0.291992 -36.2354 -17.7227 -52.916 -54.1807 -53.4717c-28.666 -0.444336 -57.4434 2.54199 -86.0537 5.15332c-16.125 1.47266 -29.958 8.90332 -37.666 24.084
c-6.56934 12.9443 -17.2637 16.1807 -30.416 15.1113c-23.208 -1.88867 -46.5547 -2.75 -69.5684 -5.98633c-19.1943 -2.70801 -28.333 -13.6943 -29.583 -30.5967c-1.25 -16.8193 5.91699 -26.166 25.833 -33.458c4.16699 -1.52734 8.43066 -2.79102 12.6943 -4.02734
c40.874 -11.917 57.7354 -44.8887 40.624 -83.6523c-3.80566 -8.61133 -15.042 -14.7637 -24.0693 -19.9443c-5.29199 -3.04199 -13.2363 -1.04199 -19.542 -2.875c-10.583 -3.06934 -21.5547 -6.05566 -22.4717 -20.625
c-0.972656 -15.5273 6.56934 -29.041 20.625 -34.5547c35.2217 -13.8057 86.1104 15.8047 91.541 53.749c2.51367 17.5693 2.83301 35.458 5.52734 52.9854c5.20801 33.833 24.1104 55.5684 57.874 59.3604c41.7637 4.69434 84.0547 6.90234 126.082 6.44434z" />
    <glyph glyph-name="quotesingle" unicode="'" horiz-adv-x="206" 
d="M25.833 514.753c-0.611328 0 -1.21973 0.0117188 -1.83105 0.0117188c2.51367 37.208 4.86133 74.4023 7.625 111.597c1.01367 13.6387 13.6523 23.0693 36.6104 27.3467c23.7217 4.41699 47.9434 4.84766 72.1094 1.22266
c31.4297 -4.70801 41.3047 -11.4023 41.249 -30.4854c-0.0419922 -16.083 -2.54199 -32.1523 -4.09766 -48.2217c-2.68066 -27.625 -4.72266 -55.2773 -8.51465 -82.8467c-2.26367 -16.4863 -6.84668 -32.8887 -11.2773 -49.2354
c-4.25 -15.6387 -20.4443 -25.3467 -46.0547 -28.291c-14.6113 -1.68066 -30.083 -2.33301 -44.8467 -1.47168c-17.2217 1 -29.416 7.95801 -34.1797 17.791c-3.93066 8.11133 -6.09766 16.75 -6.5 25.208c-0.930664 19.1113 -0.291992 38.25 -0.291992 57.375z" />
    <glyph glyph-name="parenleft" unicode="(" horiz-adv-x="286" 
d="M255.439 671.313c-5.59668 -17.9307 -13.0664 -35.333 -20.6777 -52.5273c-49.0547 -110.513 -70.041 -226.997 -64.6387 -346.801c3.45801 -76.666 26.3887 -150.401 60.458 -219.9c5.84668 -11.9443 12.583 -23.541 17.2637 -35.9297
c7.63867 -20.208 5 -35.208 -12.9307 -46.8047c-18.2773 -11.833 -38.833 -21.7773 -59.7637 -27.4854c-25.2217 -6.875 -44.5967 3.90234 -58.3877 32.7627c-16.666 34.916 -31.0967 71.1104 -43.7637 107.693c-37.0967 107.165 -46.9297 218.455 -47.1523 346.689
c-10.667 93.1514 26.6104 189.72 76.9844 282.663c34.1797 63.0547 65.9434 70.4717 126.262 31.4863c34.3604 -22.208 38.6104 -32.5 26.3467 -71.8467z" />
    <glyph glyph-name="parenright" unicode=")" horiz-adv-x="292" 
d="M232.971 607.148c24.916 -89.249 37.458 -180.264 34.333 -253.971c-0.791992 -98.082 -4.55566 -176.72 -23.875 -253.732c-10.833 -43.1797 -23.0547 -85.832 -51.1377 -121.873c-24.5273 -31.4717 -39.6387 -36.6797 -77.749 -25.2217
c-16.9863 5.09668 -34.0557 10.1934 -50.5693 16.6104c-37.25 14.4717 -49.167 43.8047 -32.792 80.374c4.5 10.0557 10.542 19.542 16.625 28.792c53.333 81.041 81.5684 170.929 81.666 266.997c0.0693359 67.207 -8.13867 134.525 -35.9854 198.232
c-21.7217 49.708 -37.6934 101.916 -56.5957 152.874c-6.04199 16.2637 -1.375 28.75 12.5967 37.1943c33.4443 20.208 70.0547 27.9297 108.609 22.1377c19.1807 -2.88867 31.1807 -17.791 37.375 -34.8604c13.5967 -37.458 26.791 -75.1934 37.499 -113.554z" />
    <glyph glyph-name="asterisk" unicode="*" horiz-adv-x="290" 
d="M261.158 707.883c9.22168 -23.1523 4.57324 -34.5254 -19.9961 -48.3721c-3.84766 -2.16699 -7.875 -4.06934 -11.9443 -5.81934c-14.4717 -6.20801 -17.4443 -15.6387 -8.51367 -28.8193c4.34668 -6.41699 8.72168 -12.8887 12.333 -19.7354
c10.9717 -20.8057 9.47168 -33.8613 -5 -48.0977c-27.5693 -27.1387 -45.0273 -24.958 -65.374 8.22168c-2.30566 3.77734 -3.95801 7.98535 -6.43066 11.6377c-6.16699 9.09668 -12.1533 8.09668 -17.7646 -0.736328c-5.93066 -9.34668 -11.125 -19.3047 -18.125 -27.7764
c-9.56934 -11.5693 -20.7637 -19.9023 -37.4854 -11.9307c-17.4863 8.33301 -27.7783 21.6104 -27.376 43.8877c2.91699 7 7.06934 19.6387 13.2773 31.166c7.47168 13.8613 4.80469 20.458 -9.80664 27.958c-30.7773 15.791 -39.7354 35.1523 -32.6797 61.041
c7.84668 28.8193 26.499 37.9023 55.4707 27.041c20.2637 -7.59668 21.8057 -7.79102 24.3613 13.375c2.59766 21.5273 12 34.1943 33.208 39.875c30.7217 8.25 42.9717 0.555664 46.5273 -31.541c2.59766 -23.3887 2.59766 -23.3887 28.1943 -17.875
c26.6387 5.73633 37.6523 0.25 47.124 -23.5z" />
    <glyph glyph-name="plus" unicode="+" horiz-adv-x="438" 
d="M410.996 435.191c2.04199 -10.8193 2.11035 -22.0811 2.2627 -33.123c0.347656 -28.9854 -13.4297 -49.124 -40.6377 -58.332c-15.583 -5.27734 -32.0967 -8.44434 -48.4434 -10.542c-15.6387 -2.01367 -24.1104 -8.58301 -25.5547 -24.8047
c-1.27734 -14.333 -4.19434 -28.5273 -6.30566 -42.8047c-2.23633 -15.1113 -7.59766 -28.4307 -23.5 -33.3887c-27.6807 -8.63867 -55.3613 -15.4023 -84.7637 -6.19434c-24.25 7.59668 -36.7637 23.749 -39.8613 47.9014
c-1.26367 9.86133 -0.805664 19.9727 -0.763672 29.959c0.138672 34.8604 0.208008 34.958 -35.7773 39.4443c-14.333 1.77734 -28.8604 2.26367 -43.0684 4.63867c-29.791 4.98633 -40.666 17.1387 -40.541 46.7773c0.0693359 18.791 0.875 37.8877 4.33301 56.2764
c5.27734 28.041 21.9717 42.1797 50.3047 44.5127c16.5693 1.36133 33.333 0.111328 49.9717 0.847656c23.5273 1.04199 25.7773 3.29199 28.2637 27.458c2.625 25.3887 4.5 50.8604 7.01367 76.2764c4.18066 42.3467 16.5 54.583 58.791 56.125
c19.9023 0.736328 40.1797 0.888672 59.7627 -2.11133c27.2217 -4.16699 35.8184 -15.3477 37.416 -42.5693c0.722656 -12.1807 0.125 -24.4307 0.125 -44.458c-1.09766 -13.292 -2.54199 -34.3477 -4.63965 -55.334c-1.65234 -16.4863 5.63965 -25.25 21.6533 -27.292
c8.80566 -1.125 17.7227 -1.5 26.4727 -2.95801c32.5 -5.40234 41.3057 -13.666 47.4863 -46.3047z" />
    <glyph glyph-name="comma" unicode="," horiz-adv-x="218" 
d="M193.1 78.877c0.833008 -8.79199 0.125 -17.7197 0.125 -19.0811c1.61133 -52.499 -11.4443 -92.5127 -39.7773 -127.873c-13.1523 -16.4023 -23.8467 -34.7354 -36.499 -51.5684c-6.59668 -8.79199 -14.2637 -17.125 -22.791 -23.9863
c-9.40234 -7.55566 -20.8604 -8.52832 -30.4717 -0.0566406c-9.18066 8.09668 -6.13867 17.9434 -1.125 27.3047c7.83301 14.625 15.7637 29.2217 23.4307 43.9434c7.18066 13.7773 3.30566 21.833 -11.666 27.708c-51.458 20.208 -51.6807 20.6523 -49.7637 76.7764
c0.527344 15.3193 2.17969 31.1807 6.86035 45.6387c6.19434 19.0967 21.6943 31.9297 41.083 35.249c25.9717 4.44434 52.5684 7.38867 78.8594 7.125c28.4023 -0.277344 39.041 -12.6104 41.7354 -41.1797z" />
    <glyph glyph-name="hyphen" unicode="-" horiz-adv-x="414" 
d="M373.352 465.274c23.8467 -23.958 13.71 -54.3477 12.835 -82.1387c-0.569336 -18.041 -16.833 -28.5273 -42.5137 -29.166c-47.7217 -1.19434 -95.4854 -0.34668 -143.234 -0.34668v-0.443359c-43.3193 0 -86.6387 -0.222656 -129.943 0.0693359
c-32.416 0.222656 -40.9434 8.29199 -44.5547 40.4717c-8.5 75.832 9.26367 96.332 86.7764 95.332c43.208 -0.555664 86.374 -4.66699 129.554 -7.38965c27.666 -1.75 55.332 -3.68066 82.957 -5.94434c11.0137 -0.902344 22 -2.52734 32.8467 -4.56934
c5.33301 -1 11.7354 -2.31934 15.2773 -5.875z" />
    <glyph glyph-name="period" unicode="." horiz-adv-x="202" 
d="M175.597 47.0996c2.02734 -14.083 2.61133 -28.7773 0.986328 -42.874c-2.30566 -20.083 -11.5977 -28.958 -31.875 -32.4443c-20.6387 -3.55566 -41.5273 -5.69434 -62.3047 -8.45801c-0.0693359 0.513672 -0.125 1.04102 -0.194336 1.55469
c-6.63867 0 -13.291 -0.388672 -19.9023 0.0693359c-25.833 1.81934 -38.4854 13.8193 -38.3047 39.9717c0.138672 19.7773 2.27734 39.8467 6.20801 59.2354c4.15234 20.458 22.1523 27.708 39.9854 29.041c20.7354 1.54199 41.874 -0.513672 62.6797 -2.52734
c25.8057 -2.48633 39.208 -19.2773 42.7217 -43.5684z" />
    <glyph glyph-name="slash" unicode="/" horiz-adv-x="363" 
d="M313.004 639.259c24.2217 -7.36133 26.4453 -13.3027 25.4453 -50.2471c-3.81934 -14.5137 -8.91602 -39.583 -17.0127 -63.6387c-24.7773 -73.6377 -51.541 -146.609 -75.9717 -220.358c-30.0137 -90.6104 -58.2217 -181.831 -87.8047 -272.594
c-5.81934 -17.8613 -12.8467 -35.667 -21.874 -52.083c-15.4307 -28.083 -41.5 -35.125 -74.7217 -22.4863c-30.8193 11.7217 -42.3467 29.7354 -34.8467 61.9014c12.833 55.0967 26.624 110.026 41.999 164.47c35.0137 123.915 70.9717 247.553 107.18 371.106
c5.90234 20.1387 13.9297 39.8604 22.9014 58.8604c10.8887 23.041 30.1797 35.9854 56.0684 34.3604c19.708 -1.25 39.8604 -3.58301 58.6377 -9.29102z" />
    <glyph glyph-name="zero" unicode="0" horiz-adv-x="586" 
d="M550.44 523.85c5.02734 -44.0693 8.12793 -88.3594 11.0303 -120.762c-2.18066 -98.9707 -12.4443 -184.678 -43.3467 -266.704c-15.9307 -42.291 -40.0557 -79.124 -78.4854 -104.93c-23.541 -15.8057 -49.0967 -24.3477 -77.7217 -26.292
c-68.5547 -4.65234 -134.887 3.94434 -199.664 27.1523c-53.041 19 -89.4707 56.916 -118.359 102.651c-19.0273 30.1104 -20.5137 66.2207 -19.7363 100.165c1.90234 83.1104 7.23535 166.165 12.374 249.164c1.01367 16.333 5.84668 32.9023 11.5137 48.4023
c39.2637 107.484 107.082 153.498 210.441 148.165c54.0967 -2.79199 108.609 -7.52832 161.664 -17.917c84.124 -16.4863 121.888 -65.6523 130.29 -139.096zM230.712 429.838c-11.0273 -34.375 -14.6943 -71.0957 -21.3613 -105.471
c4.75 -24 7.95801 -45.8467 13.5 -67.082c11.75 -45.0693 62.0684 -62.875 96.04 -19.417c46.374 59.333 47.3047 126.193 33.8604 195.567c-1.18066 6.125 -5.70801 12.0137 -9.79102 17.1104c-27.2354 34 -98.457 22.333 -112.248 -20.708z" />
    <glyph glyph-name="one" unicode="1" horiz-adv-x="392" 
d="M196.304 3.39844c0.0136719 0.375 0.0166016 0.736328 0.0166016 1.09766c-32.166 0 -64.3457 -0.472656 -96.498 0.138672c-28.0137 0.541992 -38.583 6.16699 -42 32.333c-5.70801 43.7354 -9.84668 88.1797 -8.72168 132.165
c0.958008 37.583 11.1387 44.7217 47.208 53.6797c42.874 10.6523 43.3184 10.6523 42.3604 54.2217c-1.09766 49.8467 -1.79199 99.749 -5.125 149.457c-2.72266 40.583 -4.32031 40.3193 -43.6807 38.5273c-9.91699 -0.458008 -20.084 -0.583008 -29.8203 1.05566
c-16.6807 2.80566 -30.1113 12.3057 -31.6533 29.6523c-2.93066 32.875 -4.26367 65.9717 -4.38867 98.9854c-0.0693359 19.0557 11.1387 32.833 27.5547 42.75c19.8887 12.0137 38.916 25.4854 59.0273 37.0967c7.30566 4.22168 16.6387 6.70801 25.0967 6.84668
c38.791 0.652344 77.6514 1.15234 116.415 -0.180664c31.5137 -1.09766 41.8057 -9.69434 45.7227 -41.3193c3.11133 -25.0693 1.83398 -50.8193 1.05664 -76.2217c-3.15234 -103.055 -7.27734 -206.081 -10.1387 -309.149
c-0.805664 -28.8467 0.263672 -30.2773 30.124 -37.708c29.8887 -7.44434 46.5547 -23.8887 47.2217 -55.1387c0.694336 -33.2354 2.27734 -66.499 1.54102 -99.707c-0.611328 -27.2637 -14.292 -46.4297 -42.3613 -52.0547
c-15.083 -3.02734 -30.458 -5.69434 -45.7773 -6.25c-27.6943 -1 -55.4443 -0.277344 -83.1797 -0.277344z" />
    <glyph glyph-name="two" unicode="2" horiz-adv-x="570" 
d="M284.51 4.91211c-0.0273438 1.47266 -0.0458984 2.94141 -0.0595703 4.42773c-54.3184 -1.70801 -108.637 -3.59668 -162.955 -5.02734c-18.8467 -0.5 -37.8047 -0.972656 -56.5547 0.554688c-22.7217 1.84766 -31.4434 9.93066 -36.04 32.1523
c-2.90234 14.041 -5.34668 28.624 -4.83301 42.8604c1.20801 33.25 3.44434 66.5137 6.88867 99.5967c3.83301 36.791 22.8047 63.1377 56.1797 80.9287c41.0967 21.916 81.749 45.0127 120.651 70.54c28.5693 18.75 55.0693 41.083 80.3887 64.1387
c10.9023 9.93066 19.5137 24.792 23.8193 39.0283c7.81934 25.875 -14.8887 46.25 -40.7773 38.3193c-21.3057 -6.51367 -36.8193 -20.25 -45.3467 -41.0137c-3.34766 -8.16699 -5.27832 -16.917 -7.90332 -25.4033c-10.9717 -35.5137 -17.2217 -39.833 -53.6934 -41.4443
c-32.1104 -1.43066 -64.1514 -5.15332 -96.2764 -5.87598c-32.6797 -0.736328 -39.0547 5.27734 -40.7627 38.2773c-2.77734 53.708 4.19434 106.388 22.208 157.192c18.8057 53.041 58.9297 85.207 109.193 105.29c54.7217 21.8604 111.776 27.5684 169.804 16.374
c31.5 -6.08301 62.9297 -13.2354 93.707 -22.2354c26.7637 -7.83301 51.2773 -20.8047 70.041 -42.79c43.3467 -50.8047 46.583 -111.832 8.83398 -176.123c-28.0557 -47.7773 -66.541 -85.957 -111.388 -117.582c-31.708 -22.3604 -65.2773 -42.082 -97.332 -63.957
c-8.52734 -5.81934 -14.5967 -15.2637 -21.791 -23.0273c11.1113 -2.625 22.2227 -7.45801 33.3193 -7.41602c25.4307 0.0976562 50.833 3.08398 76.2773 3.95898c34.541 1.19434 34.5547 0.819336 37.374 33.958c0.375 4.43066 0.75 8.84766 1.25 13.2646
c5.25 46.0967 60.249 73.1104 100.304 48.416c7.86133 -4.84668 15.0283 -13.9717 18.1113 -22.6797c4.72168 -13.3613 7.67969 -28.042 7.80469 -42.208c0.583008 -64.374 -0.0839844 -128.748 -0.347656 -193.136
c-0.0136719 -4.43066 -0.194336 -8.90234 -0.791992 -13.291c-4.5 -33.4717 -16.2217 -45.458 -49.582 -45.833c-69.9023 -0.777344 -139.818 -0.235352 -209.721 -0.235352z" />
    <glyph glyph-name="three" unicode="3" horiz-adv-x="542" 
d="M181.77 687.042c27.1523 4.95801 54.9355 6.52832 71.4355 8.38965c68.457 -1.59766 123.15 -13.4727 176.413 -34.667c69.3877 -27.6104 93.8877 -107.762 86.624 -154.775c-8.22168 -53.2217 -23.7627 -104.415 -66.4707 -141.775
c-12.2773 -10.7363 -10.4297 -18.2783 -1.67969 -30.5283c15.3467 -21.5 29.5967 -44.0967 41.4854 -67.666c15.4443 -30.6387 18.7773 -63.333 9.65234 -97.1797c-17.6113 -65.374 -44.6113 -124.317 -111.235 -153.164
c-59.5273 -25.7773 -121.526 -34.3604 -185.22 -16.3047c-21.333 6.04199 -41.9443 14.5977 -63.3193 20.4443c-60.083 16.4443 -94.208 58.416 -107.347 116.013c-7.77734 34.1104 -7.55469 70.3604 -8.09668 105.68c-0.375 24.416 13.7363 42.499 37.3467 49.7764
c37.9854 11.708 76.2627 11.6943 114.401 -1.08301c16.125 -5.40234 24.917 -16.541 32.2227 -31.249c19.416 -39.0967 82.6514 -47.749 113.609 -16.2637c20.1807 20.5273 15.1387 46.6377 -12.7363 54.0684c-20 5.33301 -41.541 5.58301 -62.4717 6.48535
c-40.7354 1.77734 -58.374 22.749 -51.4434 62.8037c4.13867 23.916 17.791 34.9297 41.7354 32.291c15.416 -1.69434 30.582 -5.84668 45.998 -7.29102c25.0557 -2.34766 44.7217 11.0684 51.1797 33.374c5.61133 19.4023 -2.01367 33.5967 -22.1387 36.0693
c-24.1807 2.97266 -48.6807 4.34766 -73.0557 4.5c-17.7363 0.111328 -32.125 -9.11035 -41.042 -24.5547c-16.8467 -29.166 -43.7627 -35.5273 -74.1924 -33.6943c-21.041 1.26367 -41.9717 4.30566 -63.0127 5.625c-18.333 1.13867 -29.2773 10.2217 -31.5137 28.0684
c-1.79199 14.208 -3.79199 28.999 -1.77832 42.957c3.77734 26.25 9.98535 52.1807 15.8877 78.083c16.875 74.166 66.9434 112.513 138.762 125.568z" />
    <glyph glyph-name="four" unicode="4" horiz-adv-x="593" 
d="M407.295 0.884766c0.0273438 1.86133 0.0302734 3.72461 0.0302734 5.59961c-36.6523 0 -73.3047 -0.597656 -109.943 0.194336c-29.6104 0.638672 -38.041 6.875 -43.041 35.6104c-6.65234 38.2354 -12.3887 76.8047 -15.4307 115.471
c-3.09766 39.499 10.583 51.8604 49.8877 51.583c9.95801 -0.0693359 20.0137 0.0136719 29.833 1.40234c3.38867 0.472656 9.11035 5.77832 8.66602 7.72266c-1.05566 4.66699 -4.43066 11.4307 -8.125 12.375c-8.36133 2.11133 -17.6533 2.48633 -26.2783 1.36133
c-70.957 -9.29199 -141.706 -7.76465 -212.566 1.47168c-35.958 4.68066 -47.3887 13.125 -51.958 48.291c-5.45801 41.9297 -6.98535 84.082 2.41699 125.873c6.01367 26.7354 18.5967 49.707 38.4854 68.7207c56.999 54.5273 115.054 108.04 170.372 164.22
c33.1523 33.666 70.1797 47.5967 116.804 42.791c27.3467 -2.81934 55.1934 -0.569336 82.8184 -0.638672c35.9297 -0.0976562 50.291 -11.4863 56.499 -47.2363c2.44434 -14.0693 2.65234 -28.708 2.33301 -43.0547c-1.40234 -64.3604 -3.81934 -128.707 -4.91699 -193.081
c-0.513672 -30.4297 1.30566 -31.4297 30.7354 -35.874c34.7354 -5.25 42.8467 -14.8057 42.499 -50.5693c-0.0830078 -7.76367 -0.360352 -15.5967 -1.49902 -23.249c-5.41699 -36.2217 -16.5 -45.4023 -52.8604 -44.3604
c-6.65234 0.194336 -13.499 1.65234 -19.9014 0.541016c-4.34668 -0.763672 -8.08301 -5.01367 -12.083 -7.69434c3.23633 -4.125 5.79199 -10.7637 9.86133 -11.875c9.45801 -2.58301 19.625 -2.59668 29.5273 -3.45801c27.291 -2.375 35.791 -8.73633 41.5273 -34.375
c11.8467 -52.9717 9.80469 -106.013 -2.55664 -158.554c-5.30566 -22.583 -14.083 -28.75 -37.916 -29.0693c-37.7354 -0.513672 -75.4844 -0.138672 -113.22 -0.138672zM210.926 352.424c13.0557 -2.05566 26.416 -2.11133 41.6104 -3.16699
c12.4307 0.902344 27.4443 -0.347656 40.8604 3.67969c11.917 3.56934 27.7637 10.5137 32 20.2637c13.6807 31.4854 19.1807 65.6934 13.6113 100.138c-2.98633 18.5 -9.80566 20.125 -24.1807 6.73633c-33.9854 -31.6523 -67.374 -63.957 -100.901 -96.1094
c-3.97168 -3.80566 -7.61035 -8.06934 -10.791 -12.5557c-7.19434 -10.1523 -3.43066 -17.2354 7.79102 -18.9854z" />
    <glyph glyph-name="five" unicode="5" horiz-adv-x="511" 
d="M95.0332 678.084c57.0967 6.65234 114.814 7.94531 148.634 10.0566c79.291 -3.55566 134.763 -4.59766 189.971 -9.04199c37.0967 -2.98633 46.3887 -14.9307 44.958 -51.5273c-1.51367 -38.7773 -3.83301 -77.6377 -8.31934 -116.165
c-4.19434 -36.0273 -15.8193 -59.3184 -66.041 -56.3184c-46.4854 2.77734 -93.0127 5.17969 -139.554 5.99902c-17.4863 0.305664 -35.4727 -2.72168 -52.4863 -7.11035c-16.6387 -4.27734 -19.208 -19.2637 -5.27734 -29.4717
c7.54199 -5.52734 17.9863 -8.70801 27.458 -9.65234c20.9443 -2.08301 42.0967 -2.97168 63.1523 -2.79102c138.651 1.20801 199.859 -112.526 186.998 -214.956c-2.625 -20.8613 -6.30566 -41.7217 -11.2227 -62.1523c-18.208 -75.624 -74.874 -122.942 -151.623 -133.609
c-63.957 -8.875 -125.637 -3.63867 -187.566 13.3057c-34.583 9.45801 -59.9717 28.1523 -76.5127 58.9854c-27.541 51.333 -34.1523 107.471 -33.5693 164.442c0.263672 26.125 13.8887 38.3887 39.9443 39.4717c27.6943 1.15234 55.5547 1.30469 83.207 -0.40332
c22.5693 -1.38867 41.1523 -9.20801 54.7217 -31.416c19.6943 -32.25 82.4297 -35.3887 110.096 -8.91699c11.7363 11.2363 13.8477 24.7637 11.5146 39.6943c-2.51367 16.1113 -15.5547 21.1387 -28.5264 24.166c-40.3887 9.43066 -81.2627 9.08301 -122.442 5.54102
c-27.5693 -2.375 -55.458 -3.81934 -83.041 -2.43066c-41.9443 2.11133 -54.0693 14.2637 -61.291 55.5273c-1.90234 10.8887 -4.11035 21.9854 -3.90234 32.957c1.27734 70.957 2.5 141.929 5.11133 212.845c1.70801 46.3467 18.874 67.541 65.6094 72.9717z" />
    <glyph glyph-name="six" unicode="6" horiz-adv-x="537" 
d="M31.9111 265.589c-2.20801 37.6387 -5.0166 75.2607 -7.55859 112.899c-2.52734 61.957 8.65332 121.359 26.5283 180.483c23.9023 78.999 81.8184 113.429 157.442 123.15c70.8047 9.11133 139.262 -3.59668 204.649 -32.8467
c25.4307 -11.375 44.4023 -28.5557 57.1104 -53.3887c23.0557 -45.0684 38.958 -92.0537 38.791 -143.233c-0.125 -38.999 -13.583 -52.9707 -51.6377 -52.8594c-27.708 0.0830078 -55.4717 1.375 -83.082 3.70801c-18.4023 1.55566 -33.041 9.44434 -42.0684 28.0557
c-4.11133 8.48633 -16.0693 18.9307 -24.1523 18.6807c-28.4717 -0.888672 -57.3877 -3.68066 -84.998 -10.375c-18.8887 -4.58301 -24.1387 -18.8193 -22.3057 -36.083c1.83301 -17.2217 14.333 -21.6797 28.0137 -22.957c18.6943 -1.75 37.5693 -2.55566 56.3467 -2.18066
c37.708 0.763672 75.374 2.86133 113.068 3.94434c67.332 1.91699 102.609 -49.5547 110.012 -95.7764c11.3613 -70.957 -0.554688 -139.442 -29.4434 -204.928c-12.125 -27.5 -31.6807 -47.8467 -60.9443 -57.9434c-89.04 -30.708 -178.386 -31.25 -268.19 -3.61133
c-41.0967 12.6387 -68.0127 38.666 -82.7764 79.7354c-19.3193 53.749 -31.4717 108.582 -34.8047 165.525zM322.058 298.738c-17.2363 3.88867 -34.8301 6.15332 -52.2607 9.11133l-0.292969 -2.37598c-8.875 0 -17.8467 0.888672 -26.6104 -0.15332
c-35.3193 -4.19434 -45.2363 -13.3467 -34.584 -53.9854c3.70801 -14.1523 12.8467 -24.5693 26.624 -26.9863c19.416 -3.40234 39.6523 -6.54102 59.041 -4.61035c31.4297 3.11133 45.5127 22.667 45.7627 54.5137c0.0976562 13.2363 -5.54102 21.7363 -17.6797 24.4863z
" />
    <glyph glyph-name="seven" unicode="7" horiz-adv-x="556" 
d="M88.6133 672.556c54.1523 3.43066 108.356 6.3877 179.744 10.5684c59.4434 -4.86133 135.665 -10.458 211.733 -17.6387c33.5693 -3.16699 49.9717 -20.8613 50.958 -54.7637c1.22266 -42.124 1.51465 -84.4287 -1.15234 -126.442
c-1.30566 -20.541 -9.51367 -40.8184 -15.958 -60.7764c-4.05566 -12.5967 -10.1523 -24.624 -16.124 -36.499c-56.8184 -112.943 -114.442 -225.497 -170.345 -338.898c-16.2773 -33.0273 -38.6934 -48.624 -76.0127 -45.6104
c-30.8887 2.48633 -62.1797 -0.180664 -93.1377 1.88867c-32.3604 2.16699 -39.207 15.292 -23.8457 43.458c24.9717 45.7637 52.291 90.291 76.166 136.624c41.6523 80.832 81.7354 162.47 121.582 244.219c4.80566 9.86133 4.08301 22.4307 5.91602 33.75
c-11.7363 1.68066 -23.6113 5.44434 -35.167 4.63867c-32.041 -2.26367 -63.916 -6.68066 -95.916 -9.77832c-28.458 -2.75 -33.5137 -7.75 -35.166 -37.291c-0.625 -11.0693 0.0693359 -22.333 -1.75 -33.1797c-3.55566 -21.2773 -11.8887 -28.3887 -33.4297 -29.166
c-16.625 -0.597656 -33.3467 -0.722656 -49.9297 0.333008c-30.5137 1.95801 -44.5273 13.708 -50.708 43.0547c-3.41699 16.208 -5.5 32.833 -6.55566 49.374c-2.40234 37.6387 -4.36035 75.3184 -5.37402 113.013c-0.472656 17.6387 0.166016 35.583 2.88867 52.9717
c6.20801 39.624 22.0693 53.6377 61.583 56.1514z" />
    <glyph glyph-name="eight" unicode="8" horiz-adv-x="533" 
d="M226.159 690.014c13.2637 0.958008 26.5801 1.26758 39.8857 1.85059c55.8604 3.01367 107.582 -12.167 157.609 -35.2637c31.8193 -14.6943 55.041 -37.8467 65.874 -71.1934c7.48633 -23.0693 13.5977 -46.916 17.0283 -70.9014
c7.63867 -53.4297 -11.0557 -98.1377 -49.7773 -134.971c-4.02734 -3.81934 -8.08301 -7.61133 -12 -11.542c-22.25 -22.1807 -22.1523 -23.917 -2.41602 -49.4307c9.48633 -12.2637 19.25 -24.5273 27.0557 -37.8604c44.5273 -76.0967 25.7773 -170.817 -45.1387 -223.15
c-53.916 -39.7773 -114.651 -64.666 -182.108 -64.583c-90.5957 0.111328 -155.137 46.1104 -197.983 123.998c-15.0967 27.4443 -17.7354 58.0967 -8.94336 87.416c10.1113 33.7354 23.2637 66.832 38.0137 98.8594c17.666 38.3604 12.8604 42.5547 -9.45898 63.3877
c-42.958 40.083 -43.083 92.2764 -36.875 145.47c0.388672 3.27734 1.68066 6.42969 2.43066 9.67969c25.5 110.638 83.458 160.234 196.804 168.234zM303.947 459.826c-11.9023 2.16699 -24.166 2.34863 -42.4023 3.97363
c-12.5967 -2.68066 -32.124 -3.59766 -48.6934 -11.084c-28.8193 -13.0137 -32.8057 -48.7637 -9.375 -64.3604c29.833 -19.8613 98.3877 -9.23633 119.79 18.5693c16.6387 21.6104 7.25 48.0684 -19.3193 52.9014zM213.712 232.58
c15.3887 -5.54199 31.6816 -8.54297 47.5703 -12.6396c27.041 2.26367 51.4297 7.54102 68.166 30.332c11.2773 15.375 9.16602 26.75 -8.07031 34.875c-35.9443 16.9307 -73.0684 17.125 -108.846 0.27832c-8.25 -3.88867 -15.542 -15.6523 -17.7363 -25.083
c-3.09766 -13.3467 6.88867 -23.4434 18.916 -27.7627z" />
    <glyph glyph-name="nine" unicode="9" horiz-adv-x="538" 
d="M487.366 549.113c16.3613 -82.916 31.5117 -165.637 25.0117 -250.705c0 -25.5273 0.875 -51.0967 -0.263672 -76.5684c-1 -22.0693 -3.56934 -44.125 -6.69434 -66.0137c-11.792 -82.707 -66.666 -133.248 -155.706 -150.039
c-66.6797 -12.583 -132.637 -3.34668 -198.066 9.81934c-52.499 10.5693 -80.9287 50.124 -99.8174 94.6514c-14.0693 33.166 -22.9863 69.8604 -26.6387 105.749c-4.36133 42.833 14 59.9717 53.1104 56.125c26.4307 -2.59766 53.208 -1.79199 79.8467 -2.15332
c19.1807 -0.263672 35.1523 -6 43.3604 -24.75c7.29199 -16.6523 21.125 -22.9297 37.5 -22.3047c23.0557 0.875 46.1807 3 68.9443 6.59766c8.06934 1.27734 18.083 6.69434 22.083 13.3193c5.75 9.52734 11.0967 23.0273 8.52734 32.6797
c-1.97266 7.375 -16.3613 15.9443 -25.4033 16.1387c-34.3047 0.75 -68.8047 -0.25 -102.999 -3.29199c-39.4717 -3.5 -77.5127 1.19434 -114.692 13.7217c-37.166 12.5273 -58.207 39.874 -65.29 77.4707c-14.1943 75.332 -3.34766 147.929 26.582 218.025
c9.45801 22.1523 23.6387 40.3184 45.916 50.6104c97.5127 45.0547 196.372 50.5684 296.552 9.06934c48.7354 -20.1807 77.6797 -55.1104 88.1377 -108.151zM225.201 389.615c18.833 -5.56934 38.8887 -6.98828 58.416 -10.2246
c0.125 0.861328 0.263672 1.70898 0.388672 2.57031c9.95801 0 19.958 -0.555664 29.875 0.111328c24.6807 1.66699 30.5137 10.3887 24 34.6943c-7.31934 27.2773 -28.2773 45.791 -57.1934 47.583c-29.375 1.81934 -54.958 -7.70801 -71.4023 -33.499
c-11.708 -18.3613 -5.81934 -34.833 15.916 -41.2354z" />
    <glyph glyph-name="colon" unicode=":" horiz-adv-x="212" 
d="M58.1006 279.472c-13.8193 1.83301 -24.1963 9.6377 -28.252 24.5684c-7.77734 28.5273 -7.80469 57.1934 0.166992 85.2207c7.30566 25.6807 19.042 31.7227 56.8467 31.2363c17.1113 -2.11133 40.25 -4.29199 63.1523 -7.97266
c16.3887 -2.63867 27.9717 -11.6807 32.6387 -28.958c8.45801 -31.3467 4.40234 -61.5967 -7.09766 -91.0547c-6.59668 -16.8887 -21.9434 -21.541 -38.2207 -20.5547c-26.4717 1.59766 -52.957 4.01465 -79.2344 7.51465zM186.694 26.835
c5.15234 -59.0547 -13.9316 -72.041 -67.8477 -68.5684c-16.541 1.06934 -32.957 4.26367 -49.498 5.375c-21.7637 1.47266 -33.4854 14.9443 -33.9717 34.1104c-0.777344 30.708 1.68066 61.624 4.61133 92.2764c1.19434 12.4443 12.375 19.3613 24.4307 18.0137
c33.9717 -3.79199 67.9014 -8.48633 101.609 -14.1533c13.8057 -2.33301 19.5273 -14.2217 20.458 -27.1797c0.944336 -13.2217 0.208008 -26.5684 0.208008 -39.874z" />
    <glyph glyph-name="semicolon" unicode=";" horiz-adv-x="239" 
d="M123.457 106.821c77.666 -14.6387 70.0293 -14.2246 70.4316 -89.751c8.95801 -54.9023 -29.1523 -97.6797 -67.416 -139.957c-6.25 -6.90234 -17.375 -14.8193 -25.0557 -13.75c-12 1.68066 -25.3193 8.375 -33.7773 17.1113
c-9.77734 10.083 1.22266 20.2217 7.81934 28.833c8.08301 10.542 17.8047 20.0283 24.5684 31.3203c12.417 20.7217 5.23633 36.5684 -18.0273 42.4297c-5.31934 1.33301 -10.9863 1.26367 -16.4863 1.91602c-16.875 1.98633 -25.1807 12.7783 -27.792 28.4033
c-1.26367 7.58301 -0.875 15.4443 -1.09766 23.1807c-1.58301 56.041 29.3613 73.5967 80.2217 70.9297c2.20801 -0.125 4.44434 -0.263672 6.61133 -0.666016zM206.666 394.593c3.05566 -14 5.26367 -28.1641 7.875 -42.2334
c-1.75 -51.8604 -22.4307 -73.8047 -74.166 -73.4717c-23.083 0.152344 -46.416 3.66602 -69.124 8.24902c-23.7354 4.77734 -37.9717 20.2354 -43.3604 44.8877c-5.86133 26.833 -5.29199 52.874 3.26367 78.7344c7.75 23.416 16.3887 31.4854 41.6943 29.1523
c35.166 -3.25 70.0957 -9.70801 104.846 -16.3047c14.9717 -2.84766 25.5547 -13.375 28.9717 -29.0137z" />
    <glyph glyph-name="less" unicode="&#x3c;" horiz-adv-x="377" 
d="M235.379 258.541c29.6523 -30.0273 59.29 -60.0693 89.5117 -89.5137c17.375 -16.9307 16.792 -35.1113 6.09766 -54.4863c-12.0557 -21.8467 -26.5693 -41.0684 -58.4297 -45.5264c-8.51367 4.94434 -21.2217 9.81934 -30.7354 18.2773
c-34.833 30.958 -69.541 62.1797 -102.513 95.0957c-32.9854 32.9297 -64.1797 67.6797 -95.4844 102.249c-24.7354 27.3193 -26.3047 40.8887 -4.81934 70.5137c14.2363 19.6113 30.958 37.9443 48.9297 54.2354c55.1104 49.9717 111.318 98.7207 167.192 147.845
c18.3193 16.0967 22.208 16.791 38.666 0.138672c16.333 -16.5273 32.0137 -34.0137 45.8047 -52.6797c17.375 -23.5137 17.1523 -35.666 -2.13867 -59.999c-28.4297 -35.8604 -61.7764 -66.79 -100.887 -91.0957c-7.54199 -4.69434 -15.542 -8.76367 -22.584 -14.0967
c-18.3467 -13.9023 -21.333 -29.999 -7.68066 -48.9854c8.36133 -11.625 18.9443 -21.7217 29.0693 -31.9717z" />
    <glyph glyph-name="equal" unicode="=" horiz-adv-x="389" 
d="M322.011 398.262c36.5 -0.486328 42.8486 -7.15039 42.335 -43.0947c-0.277344 -19.9307 -0.152344 -40 -2.41602 -59.75c-3.93066 -34.333 -21.417 -55.666 -55.75 -61.416c-73.666 -12.333 -147.665 -12.958 -220.887 4.45801
c-11.666 2.77734 -22.7627 8.56934 -33.6094 14.0137c-27.9307 14 -29.4727 39.625 -26.6953 65.8604c3.02734 28.5967 4.59668 59.2354 35.249 74.0264c10.417 5.04199 23.6807 5.45898 35.6943 5.66699c37.6797 0.680664 75.374 0.25 113.054 0.25v0.0966797
c37.6797 0 75.3594 0.402344 113.025 -0.111328zM92.6133 439.806c-31.6797 1.41699 -40.1768 11.9307 -42.0938 36.5c-3.04199 38.333 10.5547 66.749 36.957 73.374c14.9023 3.73633 30.6104 5.44434 46.0127 5.875c31.0273 0.875 62.1104 0.263672 93.165 0.263672
v0.999023c34.3887 0 68.791 0.763672 103.138 -0.25c26.0693 -0.763672 30.208 -5.93066 30.7637 -32.3887c0.305664 -14.416 0.319336 -28.8877 -0.680664 -43.249c-1.72266 -24.6807 -11.334 -35.7637 -35.084 -41.8193
c-6.44434 -1.63867 -13.083 -3.63867 -19.6104 -3.54102c-70.874 1 -141.79 1.06934 -212.567 4.23633z" />
    <glyph glyph-name="greater" unicode="&#x3e;" horiz-adv-x="356" 
d="M300.171 375.567c17.041 -15.416 28.8203 -33.626 31.5977 -63.8613c-4.73633 -7.29199 -10.5283 -20.7783 -20.1807 -30.375c-62.1797 -61.8184 -125.165 -122.804 -187.97 -183.983c-25.2637 -24.5967 -32.9023 -24.1797 -56.749 1.61133
c-10.542 11.4023 -21.7637 22.1797 -32.25 33.6377c-14 15.3057 -14.6113 21.583 1 36.2354c31.5547 29.625 64.2627 58.041 96.4014 87.0547c14 12.6387 28.416 24.916 41.541 38.4297c17.0273 17.5273 17.0693 19.3467 -0.47168 37.958
c-41.8887 44.4443 -84.3184 88.374 -126.526 132.513c-4.61133 4.81934 -9 9.84668 -13.7363 14.5273c-10.4863 10.375 -10.5693 21.125 -1.95801 32.6807c3.97266 5.31934 7.05566 11.3193 11.1387 16.541c27.3467 34.875 47.3047 37.292 80.3184 7.82031
c59.624 -53.2217 118.582 -107.165 177.845 -160.789z" />
    <glyph glyph-name="question" unicode="?" horiz-adv-x="564" 
d="M539.101 466.747c1.65234 -37.791 1.79297 -75.207 -12.082 -111.707c-13.8193 -36.3467 -36.833 -64.4023 -72.4434 -78.333c-30.625 -11.9863 -63.208 -19.7227 -95.5273 -26.417c-23.916 -4.95801 -27.874 -6.04102 -32.5264 -29.7354
c-10.9307 -55.749 -37.6943 -79.249 -94.9023 -82.4014c-15.4717 -0.861328 -31.2354 -1.44434 -46.5127 0.513672c-18.7773 2.41699 -28.249 12.4727 -28.541 30.917c-0.430664 27.7217 -0.75 55.7627 2.81934 83.1514c6.45801 49.4434 39.0273 75.124 94.6797 81.0547
c22.9854 2.44434 46.1934 6.44434 68.207 13.25c26.625 8.22168 41.333 28.332 39.5967 47.498c-1.86133 20.6943 -26.25 43.4443 -52.833 42.3467c-27.291 -1.13867 -54.5967 -7.63867 -81.3467 -14.083c-17.1807 -4.13867 -21.2783 -20.958 -26.2783 -35.9023
c-9.02734 -27.0137 -10.1523 -28.6523 -37.0547 -28.333c-29.916 0.347656 -60.0957 0.639648 -89.6094 4.80664c-34.6523 4.875 -53.5137 28.1523 -50.416 62.874c5.40234 60.6797 23.208 118.234 61.291 166.512c22.6523 28.7217 56.832 42.4023 92.7764 47.2217
c28.4443 3.81934 57.4023 3.73633 86.1377 5.375c55.9297 -3.65234 110.29 -11.3887 163.289 -30.5273c62.5967 -22.6104 108.346 -81.1377 111.276 -148.081zM285.397 100.016c30.875 -0.388672 55.7617 -20.7812 59.7061 -51.8359
c2.34766 -18.5693 1.98633 -37.8057 0.0976562 -56.4717c-2.77734 -27.5693 -15.7773 -38.6523 -43.7773 -40.0547c-14.3887 -0.722656 -28.8604 -0.125 -43.291 -0.125c-0.0693359 -0.638672 -0.138672 -1.27734 -0.22168 -1.91602
c-21.958 2.40234 -43.999 4.20801 -65.832 7.40234c-17.3193 2.54199 -29.4717 13.9033 -30.2354 30.8613c-1.29199 28.4717 -0.486328 57.2354 2.38867 85.5684c0.75 7.43066 11.1807 16.9727 19.208 19.8896c13.1943 4.79199 28.0273 6.08398 42.2637 6.77832
c19.8467 0.972656 39.791 0.15332 59.6934 -0.0966797z" />
    <glyph glyph-name="at" unicode="@" horiz-adv-x="754" 
d="M728.33 515.44c6.30566 -75.624 -7.06055 -148.373 -41.6436 -216.345c-26.458 -52.0137 -65.6377 -92.0967 -118.65 -117.235c-44.1523 -20.9443 -65.7627 -13.9307 -91.915 27.2217c-3.56934 5.61133 -7.08301 11.2783 -10.958 16.6807
c-9.30566 12.9443 -20.792 16.042 -34.333 6.58398c-9.08301 -6.34668 -17.4297 -13.8184 -26.832 -19.6104c-21.625 -13.3467 -42.6523 -28.3184 -65.7627 -38.4434c-70.7217 -31 -131.763 15.7773 -152.221 62.666c-20.8467 47.7773 -20.5273 97.7354 -12.625 147.318
c14.8467 93.2354 75.1934 147.484 160.414 178.359c21.041 7.625 41.5967 5.13867 61.249 -4.75c8.90234 -4.48633 17.541 -9.68066 25.666 -15.4307c11.9443 -8.45801 21.958 -10 30.041 4.83301c2.08301 3.83301 5.18066 7.29102 8.41699 10.2637
c16.041 14.6807 34.1377 19.8193 55.1514 11.583c20.625 -8.06934 28.8887 -24.8193 27.333 -44.9307c-1.69434 -21.9717 -6 -43.916 -11.1387 -65.4014c-9.88867 -41.2637 -17.083 -82.5967 -12.0967 -125.207c1.94434 -16.5967 2.5 -35.0967 20.2363 -42.8467
c19.583 -8.56934 34.0967 5.75 47.249 16.958c46.708 39.8047 66.8467 90.3877 56.666 151.512c-7.45801 44.791 -26.9717 84.0264 -56.3877 118.817c-33.291 39.3604 -78.0957 53.5967 -126.47 58.916c-93.249 10.25 -175.4 -15.6807 -246.094 -78.0547
c-54.5127 -48.1104 -77.79 -112.179 -93.5264 -180.025c-4.47168 -19.3057 -5.79102 -39.4863 -7.16602 -59.3613c-4.81934 -70.0127 28.6807 -119.762 82.0137 -161.441c57.4717 -44.916 121.513 -62.541 189.345 -57.0967c22.5693 0 41.458 0.597656 60.3047 -0.152344
c23.3193 -0.930664 29.4023 -7.80566 29.333 -30.5557c-0.152344 -52.041 -40.749 -94.4434 -93.373 -91.9434c-188.678 8.98633 -321.635 137.207 -350.218 296.107c-24.5273 136.387 23.7217 249.482 116.971 345.162c86.0684 88.3184 193.733 131.609 316.621 134.304
c139.442 3.05566 252.83 -99.54 264.399 -238.455zM381.136 280.138c27.8604 39.6387 36.083 85.249 36.0273 132.248c-0.0273438 25.9023 -18.874 41.5137 -40.1094 52.875c-21.0967 11.2773 -39.1104 0.819336 -54.6514 -12.042
c-37.999 -31.4443 -55.6514 -73.166 -61.457 -123.096c5.51367 -18.7637 8.16602 -39.0547 17.1934 -55.9434c16.708 -31.2773 54.6934 -37.416 82.54 -15.583c7.72168 6.05566 14.8184 13.5137 20.457 21.541z" />
    <glyph glyph-name="A" unicode="A" horiz-adv-x="686" 
d="M322.8 682.151c0.0273438 0.75 0.0722656 1.50293 0.12793 2.25293c44.2354 -2.84766 88.7764 -3.32031 132.596 -9.25098c39.208 -5.30566 57.7637 -25.083 60.3467 -63.8467c2.34766 -35.166 -0.375 -70.8604 -3.36133 -106.11
c-1.90234 -22.4307 -13.3047 -39.9863 -38.3877 -44.1387c-26.708 -4.41699 -23.875 -17.75 -15.208 -36.0137c29.6943 -62.624 64.874 -121.832 116.734 -168.846c14.375 -13.0273 32.791 -22.666 50.8467 -30.333c24.791 -10.5137 37.3877 -27.083 35.457 -53.791
c-2.54199 -35.2637 -2.69434 -71.083 -9.48633 -105.568c-6.48633 -32.8467 -29.0273 -56.7354 -64.4854 -57.999c-59.6523 -2.13867 -118.957 -15.041 -179.15 -4.30469c-54.166 9.65234 -76.374 32.958 -74.3604 87.7764c1.01367 27.5557 6.20801 55.0693 10.9023 82.3604
c3.30566 19.208 14.3193 31.625 35.5 33.9307c6.23633 0.680664 11.875 6.875 17.792 10.542c-5.80566 4.56934 -11.1943 12.333 -17.5 13.1523c-24.166 3.13867 -48.6104 4.59668 -72.999 5.63867c-17.708 0.763672 -35.5273 0.486328 -53.208 -0.666016
c-4.26367 -0.277344 -8.18066 -5.87402 -12.25 -9.0127c3.11133 -2.75 5.86133 -7.29199 9.375 -8c43.4854 -8.72168 52.332 -40.2217 50.29 -77.582c-1.51367 -27.5137 -3.34668 -55.374 -9.13867 -82.1797c-5.73633 -26.5557 -25.125 -40.8057 -53.2217 -41.7363
c-57.666 -1.91699 -115.332 -5.41699 -172.984 -5.40332c-21.625 0.0136719 -43.8604 6.11035 -64.7207 12.832c-23.375 7.54199 -36.25 26.167 -35.25 51.0273c1.29199 32.1104 3.375 64.332 7.77734 96.1367c3.19434 23 16.6104 41.2637 38.2764 51.5
c77.3467 36.5547 107.513 108.942 136.471 181.399c11.542 28.8887 5.82031 41.6387 -23.2354 52.0693c-33.6943 12.083 -44.458 34.7773 -40.2354 67.0547c3.72168 28.5137 8.08301 57.0967 14.666 85.0547c8.5 36.125 32.9854 58.0693 69.4854 62.833
c37.2773 4.86133 74.999 6.55566 112.554 9.08301c13.2773 0.888672 26.6523 0.138672 39.9854 0.138672zM304.72 361.048c-4.11133 -15.2773 2.32129 -22.8203 18.418 -22.9873c23.208 -0.25 33.791 20.625 22.291 46c-3.44434 7.61133 -10.3057 13.667 -15.5977 20.4443
c-5.22168 -6.22168 -11.4023 -11.874 -15.3887 -18.8047c-4.36133 -7.59668 -7.43066 -16.1523 -9.72266 -24.6523z" />
    <glyph glyph-name="A" unicode="&#xc5;" horiz-adv-x="686" 
d="M322.8 682.151c0.0273438 0.75 0.0722656 1.50293 0.12793 2.25293c44.2354 -2.84766 88.7764 -3.32031 132.596 -9.25098c39.208 -5.30566 57.7637 -25.083 60.3467 -63.8467c2.34766 -35.166 -0.375 -70.8604 -3.36133 -106.11
c-1.90234 -22.4307 -13.3047 -39.9863 -38.3877 -44.1387c-26.708 -4.41699 -23.875 -17.75 -15.208 -36.0137c29.6943 -62.624 64.874 -121.832 116.734 -168.846c14.375 -13.0273 32.791 -22.666 50.8467 -30.333c24.791 -10.5137 37.3877 -27.083 35.457 -53.791
c-2.54199 -35.2637 -2.69434 -71.083 -9.48633 -105.568c-6.48633 -32.8467 -29.0273 -56.7354 -64.4854 -57.999c-59.6523 -2.13867 -118.957 -15.041 -179.15 -4.30469c-54.166 9.65234 -76.374 32.958 -74.3604 87.7764c1.01367 27.5557 6.20801 55.0693 10.9023 82.3604
c3.30566 19.208 14.3193 31.625 35.5 33.9307c6.23633 0.680664 11.875 6.875 17.792 10.542c-5.80566 4.56934 -11.1943 12.333 -17.5 13.1523c-24.166 3.13867 -48.6104 4.59668 -72.999 5.63867c-17.708 0.763672 -35.5273 0.486328 -53.208 -0.666016
c-4.26367 -0.277344 -8.18066 -5.87402 -12.25 -9.0127c3.11133 -2.75 5.86133 -7.29199 9.375 -8c43.4854 -8.72168 52.332 -40.2217 50.29 -77.582c-1.51367 -27.5137 -3.34668 -55.374 -9.13867 -82.1797c-5.73633 -26.5557 -25.125 -40.8057 -53.2217 -41.7363
c-57.666 -1.91699 -115.332 -5.41699 -172.984 -5.40332c-21.625 0.0136719 -43.8604 6.11035 -64.7207 12.832c-23.375 7.54199 -36.25 26.167 -35.25 51.0273c1.29199 32.1104 3.375 64.332 7.77734 96.1367c3.19434 23 16.6104 41.2637 38.2764 51.5
c77.3467 36.5547 107.513 108.942 136.471 181.399c11.542 28.8887 5.82031 41.6387 -23.2354 52.0693c-33.6943 12.083 -44.458 34.7773 -40.2354 67.0547c3.72168 28.5137 8.08301 57.0967 14.666 85.0547c8.5 36.125 32.9854 58.0693 69.4854 62.833
c37.2773 4.86133 74.999 6.55566 112.554 9.08301c13.2773 0.888672 26.6523 0.138672 39.9854 0.138672zM304.72 361.048c-4.11133 -15.2773 2.32129 -22.8203 18.418 -22.9873c23.208 -0.25 33.791 20.625 22.291 46c-3.44434 7.61133 -10.3057 13.667 -15.5977 20.4443
c-5.22168 -6.22168 -11.4023 -11.874 -15.3887 -18.8047c-4.36133 -7.59668 -7.43066 -16.1523 -9.72266 -24.6523z" />
    <glyph glyph-name="A" unicode="&#xc4;" horiz-adv-x="686" 
d="M322.8 682.151c0.0273438 0.75 0.0722656 1.50293 0.12793 2.25293c44.2354 -2.84766 88.7764 -3.32031 132.596 -9.25098c39.208 -5.30566 57.7637 -25.083 60.3467 -63.8467c2.34766 -35.166 -0.375 -70.8604 -3.36133 -106.11
c-1.90234 -22.4307 -13.3047 -39.9863 -38.3877 -44.1387c-26.708 -4.41699 -23.875 -17.75 -15.208 -36.0137c29.6943 -62.624 64.874 -121.832 116.734 -168.846c14.375 -13.0273 32.791 -22.666 50.8467 -30.333c24.791 -10.5137 37.3877 -27.083 35.457 -53.791
c-2.54199 -35.2637 -2.69434 -71.083 -9.48633 -105.568c-6.48633 -32.8467 -29.0273 -56.7354 -64.4854 -57.999c-59.6523 -2.13867 -118.957 -15.041 -179.15 -4.30469c-54.166 9.65234 -76.374 32.958 -74.3604 87.7764c1.01367 27.5557 6.20801 55.0693 10.9023 82.3604
c3.30566 19.208 14.3193 31.625 35.5 33.9307c6.23633 0.680664 11.875 6.875 17.792 10.542c-5.80566 4.56934 -11.1943 12.333 -17.5 13.1523c-24.166 3.13867 -48.6104 4.59668 -72.999 5.63867c-17.708 0.763672 -35.5273 0.486328 -53.208 -0.666016
c-4.26367 -0.277344 -8.18066 -5.87402 -12.25 -9.0127c3.11133 -2.75 5.86133 -7.29199 9.375 -8c43.4854 -8.72168 52.332 -40.2217 50.29 -77.582c-1.51367 -27.5137 -3.34668 -55.374 -9.13867 -82.1797c-5.73633 -26.5557 -25.125 -40.8057 -53.2217 -41.7363
c-57.666 -1.91699 -115.332 -5.41699 -172.984 -5.40332c-21.625 0.0136719 -43.8604 6.11035 -64.7207 12.832c-23.375 7.54199 -36.25 26.167 -35.25 51.0273c1.29199 32.1104 3.375 64.332 7.77734 96.1367c3.19434 23 16.6104 41.2637 38.2764 51.5
c77.3467 36.5547 107.513 108.942 136.471 181.399c11.542 28.8887 5.82031 41.6387 -23.2354 52.0693c-33.6943 12.083 -44.458 34.7773 -40.2354 67.0547c3.72168 28.5137 8.08301 57.0967 14.666 85.0547c8.5 36.125 32.9854 58.0693 69.4854 62.833
c37.2773 4.86133 74.999 6.55566 112.554 9.08301c13.2773 0.888672 26.6523 0.138672 39.9854 0.138672zM304.72 361.048c-4.11133 -15.2773 2.32129 -22.8203 18.418 -22.9873c23.208 -0.25 33.791 20.625 22.291 46c-3.44434 7.61133 -10.3057 13.667 -15.5977 20.4443
c-5.22168 -6.22168 -11.4023 -11.874 -15.3887 -18.8047c-4.36133 -7.59668 -7.43066 -16.1523 -9.72266 -24.6523z" />
    <glyph glyph-name="A" unicode="&#xc3;" horiz-adv-x="686" 
d="M322.8 682.151c0.0273438 0.75 0.0722656 1.50293 0.12793 2.25293c44.2354 -2.84766 88.7764 -3.32031 132.596 -9.25098c39.208 -5.30566 57.7637 -25.083 60.3467 -63.8467c2.34766 -35.166 -0.375 -70.8604 -3.36133 -106.11
c-1.90234 -22.4307 -13.3047 -39.9863 -38.3877 -44.1387c-26.708 -4.41699 -23.875 -17.75 -15.208 -36.0137c29.6943 -62.624 64.874 -121.832 116.734 -168.846c14.375 -13.0273 32.791 -22.666 50.8467 -30.333c24.791 -10.5137 37.3877 -27.083 35.457 -53.791
c-2.54199 -35.2637 -2.69434 -71.083 -9.48633 -105.568c-6.48633 -32.8467 -29.0273 -56.7354 -64.4854 -57.999c-59.6523 -2.13867 -118.957 -15.041 -179.15 -4.30469c-54.166 9.65234 -76.374 32.958 -74.3604 87.7764c1.01367 27.5557 6.20801 55.0693 10.9023 82.3604
c3.30566 19.208 14.3193 31.625 35.5 33.9307c6.23633 0.680664 11.875 6.875 17.792 10.542c-5.80566 4.56934 -11.1943 12.333 -17.5 13.1523c-24.166 3.13867 -48.6104 4.59668 -72.999 5.63867c-17.708 0.763672 -35.5273 0.486328 -53.208 -0.666016
c-4.26367 -0.277344 -8.18066 -5.87402 -12.25 -9.0127c3.11133 -2.75 5.86133 -7.29199 9.375 -8c43.4854 -8.72168 52.332 -40.2217 50.29 -77.582c-1.51367 -27.5137 -3.34668 -55.374 -9.13867 -82.1797c-5.73633 -26.5557 -25.125 -40.8057 -53.2217 -41.7363
c-57.666 -1.91699 -115.332 -5.41699 -172.984 -5.40332c-21.625 0.0136719 -43.8604 6.11035 -64.7207 12.832c-23.375 7.54199 -36.25 26.167 -35.25 51.0273c1.29199 32.1104 3.375 64.332 7.77734 96.1367c3.19434 23 16.6104 41.2637 38.2764 51.5
c77.3467 36.5547 107.513 108.942 136.471 181.399c11.542 28.8887 5.82031 41.6387 -23.2354 52.0693c-33.6943 12.083 -44.458 34.7773 -40.2354 67.0547c3.72168 28.5137 8.08301 57.0967 14.666 85.0547c8.5 36.125 32.9854 58.0693 69.4854 62.833
c37.2773 4.86133 74.999 6.55566 112.554 9.08301c13.2773 0.888672 26.6523 0.138672 39.9854 0.138672zM304.72 361.048c-4.11133 -15.2773 2.32129 -22.8203 18.418 -22.9873c23.208 -0.25 33.791 20.625 22.291 46c-3.44434 7.61133 -10.3057 13.667 -15.5977 20.4443
c-5.22168 -6.22168 -11.4023 -11.874 -15.3887 -18.8047c-4.36133 -7.59668 -7.43066 -16.1523 -9.72266 -24.6523z" />
    <glyph glyph-name="A" unicode="&#xc2;" horiz-adv-x="686" 
d="M322.8 682.151c0.0273438 0.75 0.0722656 1.50293 0.12793 2.25293c44.2354 -2.84766 88.7764 -3.32031 132.596 -9.25098c39.208 -5.30566 57.7637 -25.083 60.3467 -63.8467c2.34766 -35.166 -0.375 -70.8604 -3.36133 -106.11
c-1.90234 -22.4307 -13.3047 -39.9863 -38.3877 -44.1387c-26.708 -4.41699 -23.875 -17.75 -15.208 -36.0137c29.6943 -62.624 64.874 -121.832 116.734 -168.846c14.375 -13.0273 32.791 -22.666 50.8467 -30.333c24.791 -10.5137 37.3877 -27.083 35.457 -53.791
c-2.54199 -35.2637 -2.69434 -71.083 -9.48633 -105.568c-6.48633 -32.8467 -29.0273 -56.7354 -64.4854 -57.999c-59.6523 -2.13867 -118.957 -15.041 -179.15 -4.30469c-54.166 9.65234 -76.374 32.958 -74.3604 87.7764c1.01367 27.5557 6.20801 55.0693 10.9023 82.3604
c3.30566 19.208 14.3193 31.625 35.5 33.9307c6.23633 0.680664 11.875 6.875 17.792 10.542c-5.80566 4.56934 -11.1943 12.333 -17.5 13.1523c-24.166 3.13867 -48.6104 4.59668 -72.999 5.63867c-17.708 0.763672 -35.5273 0.486328 -53.208 -0.666016
c-4.26367 -0.277344 -8.18066 -5.87402 -12.25 -9.0127c3.11133 -2.75 5.86133 -7.29199 9.375 -8c43.4854 -8.72168 52.332 -40.2217 50.29 -77.582c-1.51367 -27.5137 -3.34668 -55.374 -9.13867 -82.1797c-5.73633 -26.5557 -25.125 -40.8057 -53.2217 -41.7363
c-57.666 -1.91699 -115.332 -5.41699 -172.984 -5.40332c-21.625 0.0136719 -43.8604 6.11035 -64.7207 12.832c-23.375 7.54199 -36.25 26.167 -35.25 51.0273c1.29199 32.1104 3.375 64.332 7.77734 96.1367c3.19434 23 16.6104 41.2637 38.2764 51.5
c77.3467 36.5547 107.513 108.942 136.471 181.399c11.542 28.8887 5.82031 41.6387 -23.2354 52.0693c-33.6943 12.083 -44.458 34.7773 -40.2354 67.0547c3.72168 28.5137 8.08301 57.0967 14.666 85.0547c8.5 36.125 32.9854 58.0693 69.4854 62.833
c37.2773 4.86133 74.999 6.55566 112.554 9.08301c13.2773 0.888672 26.6523 0.138672 39.9854 0.138672zM304.72 361.048c-4.11133 -15.2773 2.32129 -22.8203 18.418 -22.9873c23.208 -0.25 33.791 20.625 22.291 46c-3.44434 7.61133 -10.3057 13.667 -15.5977 20.4443
c-5.22168 -6.22168 -11.4023 -11.874 -15.3887 -18.8047c-4.36133 -7.59668 -7.43066 -16.1523 -9.72266 -24.6523z" />
    <glyph glyph-name="A" unicode="&#xc1;" horiz-adv-x="686" 
d="M322.8 682.151c0.0273438 0.75 0.0722656 1.50293 0.12793 2.25293c44.2354 -2.84766 88.7764 -3.32031 132.596 -9.25098c39.208 -5.30566 57.7637 -25.083 60.3467 -63.8467c2.34766 -35.166 -0.375 -70.8604 -3.36133 -106.11
c-1.90234 -22.4307 -13.3047 -39.9863 -38.3877 -44.1387c-26.708 -4.41699 -23.875 -17.75 -15.208 -36.0137c29.6943 -62.624 64.874 -121.832 116.734 -168.846c14.375 -13.0273 32.791 -22.666 50.8467 -30.333c24.791 -10.5137 37.3877 -27.083 35.457 -53.791
c-2.54199 -35.2637 -2.69434 -71.083 -9.48633 -105.568c-6.48633 -32.8467 -29.0273 -56.7354 -64.4854 -57.999c-59.6523 -2.13867 -118.957 -15.041 -179.15 -4.30469c-54.166 9.65234 -76.374 32.958 -74.3604 87.7764c1.01367 27.5557 6.20801 55.0693 10.9023 82.3604
c3.30566 19.208 14.3193 31.625 35.5 33.9307c6.23633 0.680664 11.875 6.875 17.792 10.542c-5.80566 4.56934 -11.1943 12.333 -17.5 13.1523c-24.166 3.13867 -48.6104 4.59668 -72.999 5.63867c-17.708 0.763672 -35.5273 0.486328 -53.208 -0.666016
c-4.26367 -0.277344 -8.18066 -5.87402 -12.25 -9.0127c3.11133 -2.75 5.86133 -7.29199 9.375 -8c43.4854 -8.72168 52.332 -40.2217 50.29 -77.582c-1.51367 -27.5137 -3.34668 -55.374 -9.13867 -82.1797c-5.73633 -26.5557 -25.125 -40.8057 -53.2217 -41.7363
c-57.666 -1.91699 -115.332 -5.41699 -172.984 -5.40332c-21.625 0.0136719 -43.8604 6.11035 -64.7207 12.832c-23.375 7.54199 -36.25 26.167 -35.25 51.0273c1.29199 32.1104 3.375 64.332 7.77734 96.1367c3.19434 23 16.6104 41.2637 38.2764 51.5
c77.3467 36.5547 107.513 108.942 136.471 181.399c11.542 28.8887 5.82031 41.6387 -23.2354 52.0693c-33.6943 12.083 -44.458 34.7773 -40.2354 67.0547c3.72168 28.5137 8.08301 57.0967 14.666 85.0547c8.5 36.125 32.9854 58.0693 69.4854 62.833
c37.2773 4.86133 74.999 6.55566 112.554 9.08301c13.2773 0.888672 26.6523 0.138672 39.9854 0.138672zM304.72 361.048c-4.11133 -15.2773 2.32129 -22.8203 18.418 -22.9873c23.208 -0.25 33.791 20.625 22.291 46c-3.44434 7.61133 -10.3057 13.667 -15.5977 20.4443
c-5.22168 -6.22168 -11.4023 -11.874 -15.3887 -18.8047c-4.36133 -7.59668 -7.43066 -16.1523 -9.72266 -24.6523z" />
    <glyph glyph-name="A" unicode="&#xc0;" horiz-adv-x="686" 
d="M322.8 682.151c0.0273438 0.75 0.0722656 1.50293 0.12793 2.25293c44.2354 -2.84766 88.7764 -3.32031 132.596 -9.25098c39.208 -5.30566 57.7637 -25.083 60.3467 -63.8467c2.34766 -35.166 -0.375 -70.8604 -3.36133 -106.11
c-1.90234 -22.4307 -13.3047 -39.9863 -38.3877 -44.1387c-26.708 -4.41699 -23.875 -17.75 -15.208 -36.0137c29.6943 -62.624 64.874 -121.832 116.734 -168.846c14.375 -13.0273 32.791 -22.666 50.8467 -30.333c24.791 -10.5137 37.3877 -27.083 35.457 -53.791
c-2.54199 -35.2637 -2.69434 -71.083 -9.48633 -105.568c-6.48633 -32.8467 -29.0273 -56.7354 -64.4854 -57.999c-59.6523 -2.13867 -118.957 -15.041 -179.15 -4.30469c-54.166 9.65234 -76.374 32.958 -74.3604 87.7764c1.01367 27.5557 6.20801 55.0693 10.9023 82.3604
c3.30566 19.208 14.3193 31.625 35.5 33.9307c6.23633 0.680664 11.875 6.875 17.792 10.542c-5.80566 4.56934 -11.1943 12.333 -17.5 13.1523c-24.166 3.13867 -48.6104 4.59668 -72.999 5.63867c-17.708 0.763672 -35.5273 0.486328 -53.208 -0.666016
c-4.26367 -0.277344 -8.18066 -5.87402 -12.25 -9.0127c3.11133 -2.75 5.86133 -7.29199 9.375 -8c43.4854 -8.72168 52.332 -40.2217 50.29 -77.582c-1.51367 -27.5137 -3.34668 -55.374 -9.13867 -82.1797c-5.73633 -26.5557 -25.125 -40.8057 -53.2217 -41.7363
c-57.666 -1.91699 -115.332 -5.41699 -172.984 -5.40332c-21.625 0.0136719 -43.8604 6.11035 -64.7207 12.832c-23.375 7.54199 -36.25 26.167 -35.25 51.0273c1.29199 32.1104 3.375 64.332 7.77734 96.1367c3.19434 23 16.6104 41.2637 38.2764 51.5
c77.3467 36.5547 107.513 108.942 136.471 181.399c11.542 28.8887 5.82031 41.6387 -23.2354 52.0693c-33.6943 12.083 -44.458 34.7773 -40.2354 67.0547c3.72168 28.5137 8.08301 57.0967 14.666 85.0547c8.5 36.125 32.9854 58.0693 69.4854 62.833
c37.2773 4.86133 74.999 6.55566 112.554 9.08301c13.2773 0.888672 26.6523 0.138672 39.9854 0.138672zM304.72 361.048c-4.11133 -15.2773 2.32129 -22.8203 18.418 -22.9873c23.208 -0.25 33.791 20.625 22.291 46c-3.44434 7.61133 -10.3057 13.667 -15.5977 20.4443
c-5.22168 -6.22168 -11.4023 -11.874 -15.3887 -18.8047c-4.36133 -7.59668 -7.43066 -16.1523 -9.72266 -24.6523z" />
    <glyph glyph-name="B" unicode="B" horiz-adv-x="631" 
d="M352.897 3.81348c-0.0136719 -0.986328 -0.0322266 -2.01465 -0.0322266 -3.04199c-47.6523 0 -95.4297 -2.125 -142.915 0.652344c-39.624 2.31934 -78.957 10.0137 -118.304 16.0557c-27.7637 4.26367 -43.458 21.208 -45.4717 49.249
c-2.93066 40.916 -6.125 81.8604 -6.97266 122.832c-0.597656 28.583 8.69434 53.041 32.75 72.8467c38.9854 32.1104 47.4717 78.832 50.3604 126.081c1.20801 19.7363 -2.625 39.8057 -4.36133 59.708c-1.44434 16.583 -11.208 25.4854 -26.8467 29.7217
c-13.8467 3.76367 -27.916 7.48633 -40.916 13.375c-16.083 7.30566 -27.0693 19.9307 -26.1387 38.9717c1.625 33.1797 2.23633 66.5684 6.79199 99.3877c2.18066 15.7363 10.417 31.708 19.5 45.1523c12.8613 19.041 31.25 30.1934 56.25 29.374
c90.9014 -2.97266 181.9 -3.375 272.705 -8.09668c55.9717 -2.91699 108.86 -18.7783 154.374 -54.708c46.999 -37.0967 59.04 -84.54 42.6377 -139.637c-12.083 -40.5693 -29.9854 -78.6523 -60.5127 -109.707c-15.3467 -15.5967 -14.8047 -16.9297 3.55664 -29.416
c41.6104 -28.291 63.124 -70.6934 80.1104 -115.567c8.30566 -21.9443 9.15332 -45.6943 1.69531 -68.8047c-34.791 -107.776 -92.7764 -166.942 -201.733 -171.734c-15.5137 -0.680664 -31.0137 -1.79199 -46.5273 -2.69434zM301.269 320.905
c-30.8604 0.0830078 -35.2754 -6.62402 -35.2754 -44.207c0.263672 -3.43066 0.541016 -12.3193 1.73535 -21.0693c2.04199 -15.0693 10.7227 -24.1523 26.1113 -25.3887c35.583 -2.875 68.5684 6.77734 97.165 26.8047c8.875 6.22168 15.8613 22.8467 14.5 33.5273
c-1.09766 8.48633 -15.292 19.6943 -25.334 21.7773c-25.8057 5.375 -52.5273 8.47266 -78.9023 8.55566zM296.743 505.084c-30.6387 -4.47168 -36.1104 -12.666 -35.749 -44.2354c0 -7.73633 -1.81934 -16.083 0.541992 -23
c2.11133 -6.18066 8.45801 -14.958 13.583 -15.416c30.208 -2.66699 60.2354 0.208008 84.457 20.791c24.9854 21.2217 18.1523 52.041 -13.7773 60.1104c-15.5693 3.94434 -33.0557 4.08301 -49.0557 1.75z" />
    <glyph glyph-name="C" unicode="C" horiz-adv-x="629" 
d="M44.1904 150.839c-15.4307 65.1797 -19.0703 131.684 -20.0146 198.363c-1.55566 63.8467 7.16602 126.026 26.5684 187.039c34.7773 109.318 145.484 155.442 235.039 146.484c42.0547 -4.20801 79.8457 -17.1797 113.998 -42.0127
c12.875 -9.36133 17.2773 -7.45898 18.1943 8.31836c4.15234 71.7764 38.9434 69.6934 86.79 62.6104c24.708 -3.66699 48.5967 -15.2227 71.7773 -25.6113c7.76367 -3.48633 14.6943 -13.583 17.5557 -22.1523c5.22168 -15.6523 10.8047 -32.6523 9.79102 -48.6797
c-4.56934 -71.9297 -9 -143.971 -38.125 -211.817c-13.9023 -32.3887 -35.3604 -50.083 -71.1377 -48.7637c-18.8613 0.694336 -37.7773 0.625 -56.5547 2.25c-28.2217 2.44434 -37.499 10.3193 -39.416 39.1797c-2.06934 31.0547 -17.3604 51.5127 -42.6104 67.0127
c-16.1523 9.91699 -33.1797 11.042 -46.2627 -1.72168c-24.458 -23.8467 -48.583 -48.5547 -69.0967 -75.7354c-16.666 -22.0967 -18.1387 -50.332 -11.3613 -76.9014c5.44434 -21.333 12.958 -42.7217 23.1943 -62.1523c26.208 -49.708 94.7354 -52.6807 126.805 -5.91699
c11.8887 17.333 21.541 36.2637 31.374 54.916c12.1943 23.1104 30.083 34.707 56.7217 31.6797c24.2217 -2.76367 48.6104 -4.19434 72.707 -7.76367c45.4443 -6.73633 60.333 -24.8477 52.1943 -70.8193c-21.3057 -120.318 -84.9717 -205.817 -215.4 -238.733
c-80.0264 -20.1943 -156.108 -7.86133 -231.052 21.999c-54.9297 21.875 -88.2207 62.1104 -101.679 118.929z" />
    <glyph glyph-name="C" unicode="&#xc7;" horiz-adv-x="629" 
d="M44.1904 150.839c-15.4307 65.1797 -19.0703 131.684 -20.0146 198.363c-1.55566 63.8467 7.16602 126.026 26.5684 187.039c34.7773 109.318 145.484 155.442 235.039 146.484c42.0547 -4.20801 79.8457 -17.1797 113.998 -42.0127
c12.875 -9.36133 17.2773 -7.45898 18.1943 8.31836c4.15234 71.7764 38.9434 69.6934 86.79 62.6104c24.708 -3.66699 48.5967 -15.2227 71.7773 -25.6113c7.76367 -3.48633 14.6943 -13.583 17.5557 -22.1523c5.22168 -15.6523 10.8047 -32.6523 9.79102 -48.6797
c-4.56934 -71.9297 -9 -143.971 -38.125 -211.817c-13.9023 -32.3887 -35.3604 -50.083 -71.1377 -48.7637c-18.8613 0.694336 -37.7773 0.625 -56.5547 2.25c-28.2217 2.44434 -37.499 10.3193 -39.416 39.1797c-2.06934 31.0547 -17.3604 51.5127 -42.6104 67.0127
c-16.1523 9.91699 -33.1797 11.042 -46.2627 -1.72168c-24.458 -23.8467 -48.583 -48.5547 -69.0967 -75.7354c-16.666 -22.0967 -18.1387 -50.332 -11.3613 -76.9014c5.44434 -21.333 12.958 -42.7217 23.1943 -62.1523c26.208 -49.708 94.7354 -52.6807 126.805 -5.91699
c11.8887 17.333 21.541 36.2637 31.374 54.916c12.1943 23.1104 30.083 34.707 56.7217 31.6797c24.2217 -2.76367 48.6104 -4.19434 72.707 -7.76367c45.4443 -6.73633 60.333 -24.8477 52.1943 -70.8193c-21.3057 -120.318 -84.9717 -205.817 -215.4 -238.733
c-80.0264 -20.1943 -156.108 -7.86133 -231.052 21.999c-54.9297 21.875 -88.2207 62.1104 -101.679 118.929z" />
    <glyph glyph-name="D" unicode="D" horiz-adv-x="689" 
d="M660.022 371.378c0.888672 -0.0556641 1.74805 -0.113281 2.60938 -0.168945c-3.33301 -50.916 -4.77734 -102.04 -10.5137 -152.679c-5.91699 -52.249 -20.833 -102.054 -53.3467 -145.22c-17.3613 -23.0557 -38.5693 -39.167 -66.6523 -46.7783
c-74.6104 -20.2217 -150.151 -27.1934 -227.414 -22.0684c-32.916 2.18066 -66.291 -3 -99.4854 -3.98633c-22.166 -0.666992 -44.4434 -0.77832 -66.5684 0.527344c-32.583 1.93066 -56.749 17.9443 -70.7354 47.749c-26.0273 55.4854 -30.416 113.263 -15.2217 172.221
c7.22168 28.0547 18.4297 35.0127 47.832 35.832c8.86133 0.25 18.0283 -0.402344 26.5146 1.61133c16.3057 3.875 29.417 13.542 29.667 31.4727c0.583008 43.2217 1.52734 86.6104 -1.66699 129.651c-2.06934 27.875 -20.1104 36.7363 -47.166 29.1943
c-5.34668 -1.48633 -10.541 -3.55566 -15.9297 -4.86133c-25.3887 -6.16699 -44.8047 2.15234 -52.7627 27.291c-17.7773 56.208 -22.2773 113.305 -0.777344 169.846c10.2773 27.0137 28.4854 46.3467 56.4014 57.5967c38.5547 15.5557 77.54 25.6807 119.498 25.4033
c76.5967 -0.513672 153.165 1.02832 228.983 -13.5273c42.958 -8.25 83.4854 -22.1807 121.305 -44.166c46.6934 -27.1523 76.4844 -66.7627 88.5957 -119.442c9.76367 -42.4717 13.8057 -85.3604 9.5 -128.93c-1.52734 -15.458 -1.80469 -31.041 -2.66602 -46.5684z
M326.164 446.806c-0.166992 -26.541 -0.0546875 -53.084 -0.0546875 -85.2783c-0.763672 -15.375 -2.25 -36.3604 -2.70801 -57.3604c-0.333008 -15.4443 -0.555664 -31.0693 1.375 -46.3467c2.38867 -18.7773 11.291 -26.666 28.749 -24.374
c63.1797 8.31934 115.013 38.6523 133.832 106.776c15.5 56.083 -4.125 117.068 -71.3467 136.805c-20.1113 5.90234 -40.4307 11.4023 -60.9863 15.3604c-18.625 3.58301 -23.958 -0.625 -27.4717 -19.1387c-1.625 -8.59668 -1.33301 -17.6104 -1.38867 -26.4434z" />
    <glyph glyph-name="E" unicode="E" horiz-adv-x="641" 
d="M85.1572 697.901c75.3467 13.875 150.182 29.457 227.723 27.832c63.9854 -5.59668 127.984 -10.9854 191.928 -17.0127c9.79199 -0.930664 19.4307 -4.45801 28.9307 -7.43066c33.6387 -10.5137 55.5547 -31.916 60.1797 -67.9297
c2.11133 -16.416 5.04199 -33.3604 3.15332 -49.5547c-5.375 -46.1934 -11.542 -92.4287 -20.5557 -138.012c-3.29199 -16.625 -13.8477 -32.6523 -24.0146 -46.8467c-12.75 -17.8057 -31.9863 -23 -53.4307 -17.7363c-19.5273 4.79199 -29.7637 17.6943 -32.6807 37.416
c-1.29199 8.73633 -3.54199 17.458 -6.48633 25.791c-9.48633 26.7637 -30.458 44.6797 -57.9434 40.374c-37.9854 -5.94434 -75.7344 -15.958 -112.164 -28.3604c-23.3057 -7.93066 -23.0977 -26.1943 -0.375977 -37.208c13.3193 -6.45801 29.541 -8.19434 44.666 -9.31934
c19.8467 -1.47266 40.0127 1.11035 59.832 -0.52832c26.166 -2.16699 37.124 -15.1387 37.3467 -41.583c0.458008 -52.0967 -29.0967 -79.8877 -74.5547 -76.332c-20.5557 1.61133 -42.3057 -0.75 -62.2773 -6.01367c-26.0273 -6.86133 -30.1104 -28.5967 -11.5137 -47.8877
c23.8604 -24.7637 117.873 -38.0137 145.429 -18.3887c11.0967 7.90234 19.1387 21.2217 26.166 33.4434c8.80566 15.3193 14.1523 32.5967 22.791 48.041c13.375 23.916 33.375 38.3047 62.2637 36.6523c28.2354 -1.625 49.7354 -15.8193 59.582 -41.2354
c9.06934 -23.4307 16.458 -49 17.1523 -73.8467c1.19434 -43.041 -2.70801 -86.29 -5.93066 -129.345c-0.888672 -11.833 -6.48535 -23.4297 -10.6797 -34.8604c-9.80566 -26.6807 -28.25 -40.667 -57.6387 -41.7783c-85.3604 -3.23633 -170.692 -7.63867 -256.038 -11.4023
c-43.2217 -1.90234 -86.4434 -4.05469 -129.679 -4.81836c-16.5 -0.291992 -33.0967 2.68066 -49.583 4.69434c-27.4717 3.36133 -43.3877 19.958 -51.3457 45.5967c-13.0273 41.9854 -16.4443 85.0547 -12.125 128.429c3.83301 38.4443 12.291 46.9717 49.5957 55.5273
c41.5547 9.51367 61.207 39.374 67.9434 77.415c6.86133 38.7637 1.81934 77.5273 -14.6113 113.999c-11.3467 25.1807 -28.749 40 -58.6377 41.083c-38.4854 1.38867 -59.374 18.3467 -62.2354 55.9434c-2.98633 39.4023 -0.638672 79.6377 3.70898 119.026
c3.43066 31.1387 22 49.8887 56.1104 56.166z" />
    <glyph glyph-name="E" unicode="&#xcb;" horiz-adv-x="641" 
d="M85.1572 697.901c75.3467 13.875 150.182 29.457 227.723 27.832c63.9854 -5.59668 127.984 -10.9854 191.928 -17.0127c9.79199 -0.930664 19.4307 -4.45801 28.9307 -7.43066c33.6387 -10.5137 55.5547 -31.916 60.1797 -67.9297
c2.11133 -16.416 5.04199 -33.3604 3.15332 -49.5547c-5.375 -46.1934 -11.542 -92.4287 -20.5557 -138.012c-3.29199 -16.625 -13.8477 -32.6523 -24.0146 -46.8467c-12.75 -17.8057 -31.9863 -23 -53.4307 -17.7363c-19.5273 4.79199 -29.7637 17.6943 -32.6807 37.416
c-1.29199 8.73633 -3.54199 17.458 -6.48633 25.791c-9.48633 26.7637 -30.458 44.6797 -57.9434 40.374c-37.9854 -5.94434 -75.7344 -15.958 -112.164 -28.3604c-23.3057 -7.93066 -23.0977 -26.1943 -0.375977 -37.208c13.3193 -6.45801 29.541 -8.19434 44.666 -9.31934
c19.8467 -1.47266 40.0127 1.11035 59.832 -0.52832c26.166 -2.16699 37.124 -15.1387 37.3467 -41.583c0.458008 -52.0967 -29.0967 -79.8877 -74.5547 -76.332c-20.5557 1.61133 -42.3057 -0.75 -62.2773 -6.01367c-26.0273 -6.86133 -30.1104 -28.5967 -11.5137 -47.8877
c23.8604 -24.7637 117.873 -38.0137 145.429 -18.3887c11.0967 7.90234 19.1387 21.2217 26.166 33.4434c8.80566 15.3193 14.1523 32.5967 22.791 48.041c13.375 23.916 33.375 38.3047 62.2637 36.6523c28.2354 -1.625 49.7354 -15.8193 59.582 -41.2354
c9.06934 -23.4307 16.458 -49 17.1523 -73.8467c1.19434 -43.041 -2.70801 -86.29 -5.93066 -129.345c-0.888672 -11.833 -6.48535 -23.4297 -10.6797 -34.8604c-9.80566 -26.6807 -28.25 -40.667 -57.6387 -41.7783c-85.3604 -3.23633 -170.692 -7.63867 -256.038 -11.4023
c-43.2217 -1.90234 -86.4434 -4.05469 -129.679 -4.81836c-16.5 -0.291992 -33.0967 2.68066 -49.583 4.69434c-27.4717 3.36133 -43.3877 19.958 -51.3457 45.5967c-13.0273 41.9854 -16.4443 85.0547 -12.125 128.429c3.83301 38.4443 12.291 46.9717 49.5957 55.5273
c41.5547 9.51367 61.207 39.374 67.9434 77.415c6.86133 38.7637 1.81934 77.5273 -14.6113 113.999c-11.3467 25.1807 -28.749 40 -58.6377 41.083c-38.4854 1.38867 -59.374 18.3467 -62.2354 55.9434c-2.98633 39.4023 -0.638672 79.6377 3.70898 119.026
c3.43066 31.1387 22 49.8887 56.1104 56.166z" />
    <glyph glyph-name="E" unicode="&#xca;" horiz-adv-x="641" 
d="M85.1572 697.901c75.3467 13.875 150.182 29.457 227.723 27.832c63.9854 -5.59668 127.984 -10.9854 191.928 -17.0127c9.79199 -0.930664 19.4307 -4.45801 28.9307 -7.43066c33.6387 -10.5137 55.5547 -31.916 60.1797 -67.9297
c2.11133 -16.416 5.04199 -33.3604 3.15332 -49.5547c-5.375 -46.1934 -11.542 -92.4287 -20.5557 -138.012c-3.29199 -16.625 -13.8477 -32.6523 -24.0146 -46.8467c-12.75 -17.8057 -31.9863 -23 -53.4307 -17.7363c-19.5273 4.79199 -29.7637 17.6943 -32.6807 37.416
c-1.29199 8.73633 -3.54199 17.458 -6.48633 25.791c-9.48633 26.7637 -30.458 44.6797 -57.9434 40.374c-37.9854 -5.94434 -75.7344 -15.958 -112.164 -28.3604c-23.3057 -7.93066 -23.0977 -26.1943 -0.375977 -37.208c13.3193 -6.45801 29.541 -8.19434 44.666 -9.31934
c19.8467 -1.47266 40.0127 1.11035 59.832 -0.52832c26.166 -2.16699 37.124 -15.1387 37.3467 -41.583c0.458008 -52.0967 -29.0967 -79.8877 -74.5547 -76.332c-20.5557 1.61133 -42.3057 -0.75 -62.2773 -6.01367c-26.0273 -6.86133 -30.1104 -28.5967 -11.5137 -47.8877
c23.8604 -24.7637 117.873 -38.0137 145.429 -18.3887c11.0967 7.90234 19.1387 21.2217 26.166 33.4434c8.80566 15.3193 14.1523 32.5967 22.791 48.041c13.375 23.916 33.375 38.3047 62.2637 36.6523c28.2354 -1.625 49.7354 -15.8193 59.582 -41.2354
c9.06934 -23.4307 16.458 -49 17.1523 -73.8467c1.19434 -43.041 -2.70801 -86.29 -5.93066 -129.345c-0.888672 -11.833 -6.48535 -23.4297 -10.6797 -34.8604c-9.80566 -26.6807 -28.25 -40.667 -57.6387 -41.7783c-85.3604 -3.23633 -170.692 -7.63867 -256.038 -11.4023
c-43.2217 -1.90234 -86.4434 -4.05469 -129.679 -4.81836c-16.5 -0.291992 -33.0967 2.68066 -49.583 4.69434c-27.4717 3.36133 -43.3877 19.958 -51.3457 45.5967c-13.0273 41.9854 -16.4443 85.0547 -12.125 128.429c3.83301 38.4443 12.291 46.9717 49.5957 55.5273
c41.5547 9.51367 61.207 39.374 67.9434 77.415c6.86133 38.7637 1.81934 77.5273 -14.6113 113.999c-11.3467 25.1807 -28.749 40 -58.6377 41.083c-38.4854 1.38867 -59.374 18.3467 -62.2354 55.9434c-2.98633 39.4023 -0.638672 79.6377 3.70898 119.026
c3.43066 31.1387 22 49.8887 56.1104 56.166z" />
    <glyph glyph-name="E" unicode="&#xc9;" horiz-adv-x="641" 
d="M85.1572 697.901c75.3467 13.875 150.182 29.457 227.723 27.832c63.9854 -5.59668 127.984 -10.9854 191.928 -17.0127c9.79199 -0.930664 19.4307 -4.45801 28.9307 -7.43066c33.6387 -10.5137 55.5547 -31.916 60.1797 -67.9297
c2.11133 -16.416 5.04199 -33.3604 3.15332 -49.5547c-5.375 -46.1934 -11.542 -92.4287 -20.5557 -138.012c-3.29199 -16.625 -13.8477 -32.6523 -24.0146 -46.8467c-12.75 -17.8057 -31.9863 -23 -53.4307 -17.7363c-19.5273 4.79199 -29.7637 17.6943 -32.6807 37.416
c-1.29199 8.73633 -3.54199 17.458 -6.48633 25.791c-9.48633 26.7637 -30.458 44.6797 -57.9434 40.374c-37.9854 -5.94434 -75.7344 -15.958 -112.164 -28.3604c-23.3057 -7.93066 -23.0977 -26.1943 -0.375977 -37.208c13.3193 -6.45801 29.541 -8.19434 44.666 -9.31934
c19.8467 -1.47266 40.0127 1.11035 59.832 -0.52832c26.166 -2.16699 37.124 -15.1387 37.3467 -41.583c0.458008 -52.0967 -29.0967 -79.8877 -74.5547 -76.332c-20.5557 1.61133 -42.3057 -0.75 -62.2773 -6.01367c-26.0273 -6.86133 -30.1104 -28.5967 -11.5137 -47.8877
c23.8604 -24.7637 117.873 -38.0137 145.429 -18.3887c11.0967 7.90234 19.1387 21.2217 26.166 33.4434c8.80566 15.3193 14.1523 32.5967 22.791 48.041c13.375 23.916 33.375 38.3047 62.2637 36.6523c28.2354 -1.625 49.7354 -15.8193 59.582 -41.2354
c9.06934 -23.4307 16.458 -49 17.1523 -73.8467c1.19434 -43.041 -2.70801 -86.29 -5.93066 -129.345c-0.888672 -11.833 -6.48535 -23.4297 -10.6797 -34.8604c-9.80566 -26.6807 -28.25 -40.667 -57.6387 -41.7783c-85.3604 -3.23633 -170.692 -7.63867 -256.038 -11.4023
c-43.2217 -1.90234 -86.4434 -4.05469 -129.679 -4.81836c-16.5 -0.291992 -33.0967 2.68066 -49.583 4.69434c-27.4717 3.36133 -43.3877 19.958 -51.3457 45.5967c-13.0273 41.9854 -16.4443 85.0547 -12.125 128.429c3.83301 38.4443 12.291 46.9717 49.5957 55.5273
c41.5547 9.51367 61.207 39.374 67.9434 77.415c6.86133 38.7637 1.81934 77.5273 -14.6113 113.999c-11.3467 25.1807 -28.749 40 -58.6377 41.083c-38.4854 1.38867 -59.374 18.3467 -62.2354 55.9434c-2.98633 39.4023 -0.638672 79.6377 3.70898 119.026
c3.43066 31.1387 22 49.8887 56.1104 56.166z" />
    <glyph glyph-name="E" unicode="&#xc8;" horiz-adv-x="641" 
d="M85.1572 697.901c75.3467 13.875 150.182 29.457 227.723 27.832c63.9854 -5.59668 127.984 -10.9854 191.928 -17.0127c9.79199 -0.930664 19.4307 -4.45801 28.9307 -7.43066c33.6387 -10.5137 55.5547 -31.916 60.1797 -67.9297
c2.11133 -16.416 5.04199 -33.3604 3.15332 -49.5547c-5.375 -46.1934 -11.542 -92.4287 -20.5557 -138.012c-3.29199 -16.625 -13.8477 -32.6523 -24.0146 -46.8467c-12.75 -17.8057 -31.9863 -23 -53.4307 -17.7363c-19.5273 4.79199 -29.7637 17.6943 -32.6807 37.416
c-1.29199 8.73633 -3.54199 17.458 -6.48633 25.791c-9.48633 26.7637 -30.458 44.6797 -57.9434 40.374c-37.9854 -5.94434 -75.7344 -15.958 -112.164 -28.3604c-23.3057 -7.93066 -23.0977 -26.1943 -0.375977 -37.208c13.3193 -6.45801 29.541 -8.19434 44.666 -9.31934
c19.8467 -1.47266 40.0127 1.11035 59.832 -0.52832c26.166 -2.16699 37.124 -15.1387 37.3467 -41.583c0.458008 -52.0967 -29.0967 -79.8877 -74.5547 -76.332c-20.5557 1.61133 -42.3057 -0.75 -62.2773 -6.01367c-26.0273 -6.86133 -30.1104 -28.5967 -11.5137 -47.8877
c23.8604 -24.7637 117.873 -38.0137 145.429 -18.3887c11.0967 7.90234 19.1387 21.2217 26.166 33.4434c8.80566 15.3193 14.1523 32.5967 22.791 48.041c13.375 23.916 33.375 38.3047 62.2637 36.6523c28.2354 -1.625 49.7354 -15.8193 59.582 -41.2354
c9.06934 -23.4307 16.458 -49 17.1523 -73.8467c1.19434 -43.041 -2.70801 -86.29 -5.93066 -129.345c-0.888672 -11.833 -6.48535 -23.4297 -10.6797 -34.8604c-9.80566 -26.6807 -28.25 -40.667 -57.6387 -41.7783c-85.3604 -3.23633 -170.692 -7.63867 -256.038 -11.4023
c-43.2217 -1.90234 -86.4434 -4.05469 -129.679 -4.81836c-16.5 -0.291992 -33.0967 2.68066 -49.583 4.69434c-27.4717 3.36133 -43.3877 19.958 -51.3457 45.5967c-13.0273 41.9854 -16.4443 85.0547 -12.125 128.429c3.83301 38.4443 12.291 46.9717 49.5957 55.5273
c41.5547 9.51367 61.207 39.374 67.9434 77.415c6.86133 38.7637 1.81934 77.5273 -14.6113 113.999c-11.3467 25.1807 -28.749 40 -58.6377 41.083c-38.4854 1.38867 -59.374 18.3467 -62.2354 55.9434c-2.98633 39.4023 -0.638672 79.6377 3.70898 119.026
c3.43066 31.1387 22 49.8887 56.1104 56.166z" />
    <glyph glyph-name="F" unicode="F" horiz-adv-x="669" 
d="M197.221 689.582c55.3604 3.08301 110.762 5.62402 166.136 8.3877c72.4297 -0.222656 144.04 -6.81934 215.247 -19.5967c36.9717 -6.63867 55.1934 -27.749 61.0957 -64.2344c10.8887 -67.3184 1.04199 -132.734 -15.1104 -197.637
c-6.54199 -26.2773 -24.708 -42.083 -52.4023 -43.5967c-20.9717 -1.13867 -42.249 -1.93066 -63.0547 0.277344c-23.6387 2.5 -29.6943 10.1807 -33.5 34.0137c-1.91699 12.0557 -2.86133 24.2637 -4.38867 36.375c-3.43066 27.333 -3.70801 28.916 -31.541 34.2773
c-45.3887 8.73633 -90.6934 5.88867 -134.998 -6.91699c-20.6807 -5.97168 -27.0137 -15.8467 -25.7363 -33.3184c1.31934 -18.1523 11.6943 -29.5273 32.1523 -32.083c14.2363 -1.77734 28.8193 -0.833008 43.2354 -1.23535
c16.6387 -0.458008 33.458 0.27832 49.874 -1.88867c22.125 -2.91699 35.416 -16.1113 39.208 -35.292c9.72168 -49.3047 -28.25 -94.6094 -78.0547 -92.5264c-17.6807 0.736328 -35.3057 4.19434 -52.9443 4.06934
c-13.3887 -0.0830078 -27.3604 -3.05566 -27.5547 -21.6807c-0.166992 -15.5967 8.77734 -27.541 24.958 -30.583c9.70801 -1.83301 19.8887 -1.15234 29.8604 -1.66602c23.75 -1.25 40.1807 -13.0693 46.875 -35.7354c14.3467 -48.5137 10.6523 -96.6104 -7.11133 -143.54
c-6.90234 -18.25 -23.1523 -27.0273 -41.208 -30.3047c-72.3467 -13.1523 -145.388 -18.291 -218.775 -13.2217c-31.2354 2.15234 -53.041 18.541 -63.624 50.0957c-15.7773 47.083 -14.1523 93.8877 -2.41602 141.054c4.68066 18.8057 15.5977 31.708 36.5137 33.25
c3.30566 0.25 6.54199 1.23633 9.83398 1.73633c46.1387 6.97168 60.541 17.8467 62.749 64.6514c2.18066 46.1934 -1.19434 93.0957 -6.90234 139.081c-4.125 33.25 -15.1807 40.2637 -48.8604 42.6113c-60.1104 4.19434 -82.874 38.8193 -82.7764 95.5127
c0.111328 61.6377 39.0137 104.748 100.36 113.65c24.0693 3.5 48.5273 4.65234 72.8604 6.01367z" />
    <glyph glyph-name="G" unicode="G" horiz-adv-x="672" 
d="M644.498 235.394c1.125 -0.222656 2.2373 -0.453125 3.34863 -0.689453c-8.97168 -59.1104 -17.8604 -118.221 -26.9297 -177.317c-5.31934 -34.6943 -26.708 -53.083 -60.7217 -55.375c-29.833 -2.01367 -59.8877 -2.51367 -89.7764 -1.5
c-20.7773 0.694336 -28.958 10.5 -31.4443 31.6523c-0.902344 7.68066 0.389648 15.75 -1.47168 23.0967c-0.666992 2.65234 -8.19434 5.81934 -11.6387 4.95801c-4.98633 -1.25 -9.23633 -5.80566 -13.5977 -9.22266c-74.5127 -58.4854 -155.15 -59.4434 -233.455 -14.4023
c-98.0127 56.3877 -152.554 143.081 -154.679 258.899c-1.44434 79.4014 9.02734 157.317 32.4854 233.08c23.083 74.5684 66.041 133.137 142.04 161.192c39.8604 14.708 80.8184 22.3467 123.846 13.6523c29.5547 -5.97168 53.0264 -21.333 75.123 -40.4854
c16.4023 -14.208 17.6104 -13.5693 22.874 5.73633c10.3057 37.7637 24.75 51.666 65.249 52.249c35.2773 0.5 70.832 -3.09766 105.873 -7.80566c25.5 -3.43066 41.583 -27.3057 40.8604 -60.625c-0.736328 -34.3193 -3.93066 -68.7354 -8.52734 -102.763
c-3.69434 -27.3887 -9.40234 -54.7637 -17.2354 -81.2637c-13.1523 -44.458 -43.5684 -68.1797 -90.0537 -70.6797c-24.2637 -1.30566 -48.8467 0.138672 -73.082 2.43066c-28.9443 2.72266 -35.75 10.625 -39.3887 39.2354
c-5.26367 41.499 -24.1104 55.1934 -65.915 47.874c-57.7354 -10.0967 -107.193 -54.3047 -113.707 -106.832c-5.09668 -41.1104 1.01465 -82.582 19.9863 -119.692c29.1797 -57.0684 117.4 -75.3184 168.33 -36.9023c10.1523 7.66699 18.5967 16.7363 15.291 30.6943
c-3.26367 13.7773 -13.9023 19.0693 -27.0967 20.667c-9.91699 1.19434 -19.9033 2.27734 -29.625 4.47168c-17.3193 3.93066 -31.1943 12.8193 -34.4307 31.666c-3.36133 19.583 5.15234 35.041 21.249 45.4297c8.18066 5.27734 18 9.59668 27.542 10.9023
c39.5273 5.41699 78.9854 10.8193 119.263 4.66699c22.916 -3.5 46.4854 -2.625 69.7627 -3.73633c49.2217 -2.36133 62.916 -15.1807 66.374 -63.458c1.66699 -23.2354 2.22266 -46.541 3.27832 -69.8047z" />
    <glyph glyph-name="H" unicode="H" horiz-adv-x="737" 
d="M195.836 0.46582c0.0273438 0.25 0.0214844 0.500977 0.0214844 0.750977c-31.041 1.44434 -62.0684 3.36133 -93.123 4.22266c-33.3193 0.930664 -54.7217 18.333 -64.1934 48.624c-13.3613 42.7637 -17.6387 87.124 -12.333 131.665
c3.77734 31.708 13.499 39.708 46.374 37.2217c22.8604 -1.73633 37.041 6.79102 42.9297 27.3467c7.91699 27.6104 16.6943 55.5547 19.4863 83.915c3.34766 34.0693 2.63965 68.8467 0.291992 103.082c-2.47266 36 -10.5977 42.5 -46.4727 48.833
c-49.1387 8.68066 -64.0273 27.3057 -61.2354 77.3467c1.75 31.333 6.79199 61.8184 25.1533 88.499c14.583 21.208 33.916 36.0273 59.957 37.458c58.666 3.22266 117.401 5.09766 176.109 7.08398c8.73633 0.291992 17.7227 -1.01367 26.3057 -2.90234
c22 -4.84668 35.9443 -19.166 37.4717 -41.2627c3.22266 -46.583 2.69531 -93.1797 -10.5684 -138.624c-6.22168 -21.3057 -18.6104 -33.5977 -42.8047 -34.4033c-9.02734 -0.305664 -24.666 -9.18066 -25.1104 -15.0557c-0.763672 -10.333 5.52832 -23.666 13.2227 -31.416
c7.01367 -7.06934 19.6523 -11.1387 30.083 -11.7637c39.833 -2.375 79.791 -2.81934 119.693 -3.97168c1.09766 -0.0273438 2.27832 -0.0410156 3.30566 0.27832c11.9443 3.81934 28.25 1.38867 30.3613 19.791c1.94434 16.916 -9.77734 30.9297 -28.4854 34.957
c-2.16699 0.458008 -4.40332 0.5 -6.61133 0.805664c-63.0684 8.70801 -70.5264 16.6797 -68.5957 80.5674c0.944336 30.9717 2.81934 62.207 8.08301 92.6787c6.125 35.4717 23.458 50.2217 59.4717 50.5273c57.666 0.5 115.359 -1.58301 173.025 -3.04102
c19.958 -0.513672 39.916 -2.02734 59.8047 -3.84668c26.1523 -2.38867 38.1523 -12.5137 42.666 -38.3887c2.44434 -14.0273 2.76367 -28.8467 1.36133 -43.0547c-3.05566 -30.833 -6.81934 -61.6797 -12.2637 -92.165
c-3.26367 -18.3057 -14.5693 -31.3057 -33.4023 -38.0693c-32.7354 -11.7637 -37.207 -18.166 -36.9844 -52.5547c0.166992 -25.5137 2.41699 -50.999 3.76465 -76.499c1.40234 -26.6104 3.42969 -53.1934 4.06836 -79.8184
c0.444336 -18.3193 8.04102 -27.7773 26.416 -32.0547c36.7354 -8.56934 44.374 -17.291 43.9014 -54.791c-0.444336 -36.5 -2.48633 -73.2354 -7.45801 -109.36c-6.41699 -46.666 -33.333 -70.8047 -80.707 -72.3184c-40.958 -1.30566 -82.1104 0.638672 -123.082 2.91602
c-25.375 1.40234 -50.5557 6.12402 -75.8193 9.34668c-22.1387 2.83301 -33.916 16.4443 -35.3887 37.6523c-2.93066 42.0273 -5.65332 84.124 -6.23633 126.221c-0.444336 31.791 12.1523 55.2764 51.0547 54.957c34.3887 -0.277344 45.458 20.25 33.125 50.9297
c-5.20801 12.9443 -13.8467 19.9443 -28.0127 18.3057c-48.4434 -5.63867 -97.0537 -10.2773 -145.22 -17.7773c-23.541 -3.66699 -27.5967 -20.7363 -9.90234 -37.1113c7.69434 -7.125 18.8057 -12.3887 29.167 -14.4717c24.0273 -4.84668 36.7637 -19.0967 41.25 -42.041
c9.26367 -47.458 7.41602 -95.166 0.110352 -142.457c-4.375 -28.291 -26.7354 -44.749 -60.8047 -46.4434c-31 -1.54199 -62.1387 -0.319336 -93.2217 -0.319336z" />
    <glyph glyph-name="I" unicode="I" horiz-adv-x="406" 
d="M242.974 4.99414c-0.0556641 -1.68066 -0.114258 -3.33008 -0.169922 -4.99707c-48.6523 2.59766 -97.3877 4.01465 -145.915 8.13965c-46.7637 3.98633 -61.6797 22.9727 -59.4434 69.8057c0.583008 12.1943 1.58301 24.4023 1.48535 36.5967
c-0.333008 40.6943 13.375 75.2217 49.6387 95.374c38.3193 21.3057 46.1387 53.6807 42.4443 92.958c-2.06934 22.0967 -4.375 44.3047 -4.23633 66.457c0.25 43.8047 -21.1387 75.1514 -57.791 94.0537c-31.6523 16.3193 -46.6387 38.041 -44.8467 73.6104
c1.66699 33.166 -1.20801 66.6104 1.27832 99.6797c2.69434 35.8604 16.3467 49.8047 51.6934 53.2773c29.541 2.90234 59.499 1.90234 89.2627 1.88867c34.3887 -0.0136719 68.7773 -0.777344 103.166 -1.33301c18.875 -0.305664 37.7773 -0.222656 56.5967 -1.43066
c45.3047 -2.91699 55.5684 -14.9727 55.7354 -59.417c0.152344 -42.5967 -5.72266 -83.8604 -19.084 -124.388c-8.52734 -25.875 -22.5684 -46.1113 -48.9707 -54.7363c-28.1104 -9.19434 -38.0127 -29.1943 -35.5127 -56.4023
c3.13867 -34.1943 6.38867 -68.4717 12.0693 -102.291c4.43066 -26.3604 18.7773 -45.4717 45.5684 -56.7354c40.666 -17.1113 49.458 -32.2363 44.5967 -74.8057c-4.13867 -36.2773 -10.7354 -72.4717 -19.1934 -107.999
c-8.51367 -35.7354 -21.166 -44.7773 -58.4707 -47.083c-19.8887 -1.23633 -39.9297 -0.222656 -59.9014 -0.222656z" />
    <glyph glyph-name="I" unicode="&#xcf;" horiz-adv-x="406" 
d="M242.974 4.99414c-0.0556641 -1.68066 -0.114258 -3.33008 -0.169922 -4.99707c-48.6523 2.59766 -97.3877 4.01465 -145.915 8.13965c-46.7637 3.98633 -61.6797 22.9727 -59.4434 69.8057c0.583008 12.1943 1.58301 24.4023 1.48535 36.5967
c-0.333008 40.6943 13.375 75.2217 49.6387 95.374c38.3193 21.3057 46.1387 53.6807 42.4443 92.958c-2.06934 22.0967 -4.375 44.3047 -4.23633 66.457c0.25 43.8047 -21.1387 75.1514 -57.791 94.0537c-31.6523 16.3193 -46.6387 38.041 -44.8467 73.6104
c1.66699 33.166 -1.20801 66.6104 1.27832 99.6797c2.69434 35.8604 16.3467 49.8047 51.6934 53.2773c29.541 2.90234 59.499 1.90234 89.2627 1.88867c34.3887 -0.0136719 68.7773 -0.777344 103.166 -1.33301c18.875 -0.305664 37.7773 -0.222656 56.5967 -1.43066
c45.3047 -2.91699 55.5684 -14.9727 55.7354 -59.417c0.152344 -42.5967 -5.72266 -83.8604 -19.084 -124.388c-8.52734 -25.875 -22.5684 -46.1113 -48.9707 -54.7363c-28.1104 -9.19434 -38.0127 -29.1943 -35.5127 -56.4023
c3.13867 -34.1943 6.38867 -68.4717 12.0693 -102.291c4.43066 -26.3604 18.7773 -45.4717 45.5684 -56.7354c40.666 -17.1113 49.458 -32.2363 44.5967 -74.8057c-4.13867 -36.2773 -10.7354 -72.4717 -19.1934 -107.999
c-8.51367 -35.7354 -21.166 -44.7773 -58.4707 -47.083c-19.8887 -1.23633 -39.9297 -0.222656 -59.9014 -0.222656z" />
    <glyph glyph-name="I" unicode="&#xce;" horiz-adv-x="406" 
d="M242.974 4.99414c-0.0556641 -1.68066 -0.114258 -3.33008 -0.169922 -4.99707c-48.6523 2.59766 -97.3877 4.01465 -145.915 8.13965c-46.7637 3.98633 -61.6797 22.9727 -59.4434 69.8057c0.583008 12.1943 1.58301 24.4023 1.48535 36.5967
c-0.333008 40.6943 13.375 75.2217 49.6387 95.374c38.3193 21.3057 46.1387 53.6807 42.4443 92.958c-2.06934 22.0967 -4.375 44.3047 -4.23633 66.457c0.25 43.8047 -21.1387 75.1514 -57.791 94.0537c-31.6523 16.3193 -46.6387 38.041 -44.8467 73.6104
c1.66699 33.166 -1.20801 66.6104 1.27832 99.6797c2.69434 35.8604 16.3467 49.8047 51.6934 53.2773c29.541 2.90234 59.499 1.90234 89.2627 1.88867c34.3887 -0.0136719 68.7773 -0.777344 103.166 -1.33301c18.875 -0.305664 37.7773 -0.222656 56.5967 -1.43066
c45.3047 -2.91699 55.5684 -14.9727 55.7354 -59.417c0.152344 -42.5967 -5.72266 -83.8604 -19.084 -124.388c-8.52734 -25.875 -22.5684 -46.1113 -48.9707 -54.7363c-28.1104 -9.19434 -38.0127 -29.1943 -35.5127 -56.4023
c3.13867 -34.1943 6.38867 -68.4717 12.0693 -102.291c4.43066 -26.3604 18.7773 -45.4717 45.5684 -56.7354c40.666 -17.1113 49.458 -32.2363 44.5967 -74.8057c-4.13867 -36.2773 -10.7354 -72.4717 -19.1934 -107.999
c-8.51367 -35.7354 -21.166 -44.7773 -58.4707 -47.083c-19.8887 -1.23633 -39.9297 -0.222656 -59.9014 -0.222656z" />
    <glyph glyph-name="I" unicode="&#xcd;" horiz-adv-x="406" 
d="M242.974 4.99414c-0.0556641 -1.68066 -0.114258 -3.33008 -0.169922 -4.99707c-48.6523 2.59766 -97.3877 4.01465 -145.915 8.13965c-46.7637 3.98633 -61.6797 22.9727 -59.4434 69.8057c0.583008 12.1943 1.58301 24.4023 1.48535 36.5967
c-0.333008 40.6943 13.375 75.2217 49.6387 95.374c38.3193 21.3057 46.1387 53.6807 42.4443 92.958c-2.06934 22.0967 -4.375 44.3047 -4.23633 66.457c0.25 43.8047 -21.1387 75.1514 -57.791 94.0537c-31.6523 16.3193 -46.6387 38.041 -44.8467 73.6104
c1.66699 33.166 -1.20801 66.6104 1.27832 99.6797c2.69434 35.8604 16.3467 49.8047 51.6934 53.2773c29.541 2.90234 59.499 1.90234 89.2627 1.88867c34.3887 -0.0136719 68.7773 -0.777344 103.166 -1.33301c18.875 -0.305664 37.7773 -0.222656 56.5967 -1.43066
c45.3047 -2.91699 55.5684 -14.9727 55.7354 -59.417c0.152344 -42.5967 -5.72266 -83.8604 -19.084 -124.388c-8.52734 -25.875 -22.5684 -46.1113 -48.9707 -54.7363c-28.1104 -9.19434 -38.0127 -29.1943 -35.5127 -56.4023
c3.13867 -34.1943 6.38867 -68.4717 12.0693 -102.291c4.43066 -26.3604 18.7773 -45.4717 45.5684 -56.7354c40.666 -17.1113 49.458 -32.2363 44.5967 -74.8057c-4.13867 -36.2773 -10.7354 -72.4717 -19.1934 -107.999
c-8.51367 -35.7354 -21.166 -44.7773 -58.4707 -47.083c-19.8887 -1.23633 -39.9297 -0.222656 -59.9014 -0.222656z" />
    <glyph glyph-name="I" unicode="&#xcc;" horiz-adv-x="406" 
d="M242.974 4.99414c-0.0556641 -1.68066 -0.114258 -3.33008 -0.169922 -4.99707c-48.6523 2.59766 -97.3877 4.01465 -145.915 8.13965c-46.7637 3.98633 -61.6797 22.9727 -59.4434 69.8057c0.583008 12.1943 1.58301 24.4023 1.48535 36.5967
c-0.333008 40.6943 13.375 75.2217 49.6387 95.374c38.3193 21.3057 46.1387 53.6807 42.4443 92.958c-2.06934 22.0967 -4.375 44.3047 -4.23633 66.457c0.25 43.8047 -21.1387 75.1514 -57.791 94.0537c-31.6523 16.3193 -46.6387 38.041 -44.8467 73.6104
c1.66699 33.166 -1.20801 66.6104 1.27832 99.6797c2.69434 35.8604 16.3467 49.8047 51.6934 53.2773c29.541 2.90234 59.499 1.90234 89.2627 1.88867c34.3887 -0.0136719 68.7773 -0.777344 103.166 -1.33301c18.875 -0.305664 37.7773 -0.222656 56.5967 -1.43066
c45.3047 -2.91699 55.5684 -14.9727 55.7354 -59.417c0.152344 -42.5967 -5.72266 -83.8604 -19.084 -124.388c-8.52734 -25.875 -22.5684 -46.1113 -48.9707 -54.7363c-28.1104 -9.19434 -38.0127 -29.1943 -35.5127 -56.4023
c3.13867 -34.1943 6.38867 -68.4717 12.0693 -102.291c4.43066 -26.3604 18.7773 -45.4717 45.5684 -56.7354c40.666 -17.1113 49.458 -32.2363 44.5967 -74.8057c-4.13867 -36.2773 -10.7354 -72.4717 -19.1934 -107.999
c-8.51367 -35.7354 -21.166 -44.7773 -58.4707 -47.083c-19.8887 -1.23633 -39.9297 -0.222656 -59.9014 -0.222656z" />
    <glyph glyph-name="J" unicode="J" horiz-adv-x="611" 
d="M330.828 242.894c9.27734 32.6797 14.6504 66.4727 19.9561 91.708c-4.84668 35.5693 -6.59668 62.291 -12.541 88.0547c-6.04199 26.1943 -10.2227 27.6523 -36.4443 29.291c-39.5273 2.45801 -58.416 21.708 -57.4717 61.7354
c0.972656 40.9854 4.02832 81.915 6.08398 122.873c1.15234 23.0137 14.166 38.3467 34.9717 43.4717c26.5967 6.55566 54.1523 11.958 81.4023 12.5557c40.833 0.888672 81.749 -3.52832 122.651 -4.41699c58.083 -1.26367 76.2773 -15.0137 90.3604 -71.541
c9.27734 -37.25 8.72168 -74.5547 1.41602 -112.193c-4.40234 -22.7354 -12.874 -42.7354 -31.54 -56.749c-18.7637 -14.1113 -24.5967 -32.3887 -24.2354 -55.1104c1.01367 -63.249 1.5 -126.526 0.763672 -189.789
c-0.277344 -24.2637 -3.51367 -48.6104 -7.09668 -72.6797c-4.88867 -32.833 -23.125 -57.333 -51.8887 -73.499c-95.9707 -53.9297 -198.178 -70.4434 -305.204 -44.666c-58.5127 14.0967 -100.498 49.8184 -118.359 110.234
c-10.083 34.125 -21.958 67.8467 -19.2637 104.026c1.13867 15.291 4.38867 30.7217 8.97168 45.374c8.94434 28.5137 30.4717 45 59.249 45.8193c37.499 1.05566 75.1514 -2.125 112.679 -4.43066c20.3057 -1.25 32.0967 -13.0273 35.4023 -33.4434
c1.59766 -9.83301 3.90332 -19.625 6.79199 -29.167c6.98633 -23.0693 22.0273 -36.5273 41.1387 -38.041c22.8604 -1.81934 36.874 11.7363 42.207 30.583z" />
    <glyph glyph-name="K" unicode="K" horiz-adv-x="763" 
d="M202.618 715.317c0.0136719 0.569336 0.0517578 1.14453 0.0791016 1.72754c40.958 -2.23633 82.1377 -2.54199 122.79 -7.27832c38.9717 -4.54199 54.2773 -18.6807 56.1797 -57.8604c2.25 -46.3047 -1.58301 -92.998 -4.44434 -139.428
c-1 -16.1807 -12.833 -25.583 -29.666 -25.8193c-13.3057 -0.180664 -26.625 0.833008 -39.9443 1.09668c-16.7773 0.333008 -28.458 -6.98633 -30.0273 -24.3477c-2.38867 -26.4307 -4.27734 -52.9863 -4.5 -79.5c-0.111328 -13.666 9.25 -16.4717 20.7773 -10.0967
c5.81934 3.20801 11.375 6.93066 16.8467 10.708c28.291 19.5557 56.666 39 84.6797 58.9443c8.98633 6.40234 17.6533 13.5693 25.25 21.541c7.52734 7.88867 11.25 16.6807 -1.66602 24.3057c-18 10.6113 -20.167 28.8613 -18.9307 46.8057
c2.5 36.5273 6.27734 72.9854 10.3193 109.388c2.41699 21.791 15.0283 37.082 35.3057 44.6514c17.6113 6.56934 35.625 13.125 54.0557 16.1523c38.2773 6.29199 76.8604 10.9443 115.471 14.791c15.291 1.52734 31.124 0.194336 46.4707 -1.76367
c39.041 -5 54.3047 -18.8613 62.541 -57.5137c8.47168 -39.7773 4.47168 -79.5967 -2.80566 -119.124c-3.43066 -18.666 -14.542 -33.4297 -31 -41.2764c-22.7773 -10.875 -47.0684 -18.5273 -70.6377 -27.7637c-12.125 -4.75 -26.2217 -7.375 -35.6797 -15.375
c-23.666 -20.0557 -45.6104 -42.25 -67.4434 -64.375c-14.0967 -14.2773 -13.7217 -19.958 1.01465 -32.708c39.3887 -34.125 78.8047 -68.2637 119.096 -101.291c7.95801 -6.52734 19.6104 -9.58301 30.082 -11.8193c66.5127 -14.25 75.5127 -25 69.8184 -92.4434
c-2.41699 -28.666 -6.25 -57.5264 -12.958 -85.4424c-8.84668 -36.7773 -26.5547 -47.8604 -63.9844 -51.0127c-51.874 -4.36133 -103.707 -9.72266 -155.304 -16.542c-81.582 -10.792 -107.582 10.1387 -106.901 91.2627c0.291992 34.3467 3.52832 68.707 6.40332 102.984
c1.56934 18.791 8.51367 34.541 30.124 38.5684c12.3193 2.30566 11.6113 9.47266 3.38965 15.5c-14.2637 10.458 -28.7773 21.0137 -44.4717 28.9854c-22.8193 11.583 -32.583 8.25 -48.416 -12.1113c-18.041 -23.208 -17.5137 -27.041 9.625 -38.8047
c21.1807 -9.16699 29.667 -25.8477 30.9863 -47.1533c2.88867 -46.999 -2.33301 -92.9707 -17.124 -137.956c-8.20801 -24.9854 -23.3604 -40.4297 -49.957 -41.4854c-28.7773 -1.125 -57.624 -1.31934 -86.415 -0.59668c-33.25 0.847656 -66.458 3.13965 -99.6934 4.79199
c-8.86133 0.444336 -17.8477 0.0693359 -26.584 1.375c-33.5967 5 -47.1523 18.2363 -48.1104 52.7363c-1.47266 53.2773 -0.486328 106.624 -0.611328 159.942c-0.0556641 23.208 12.541 39.124 33.0967 44.9297c33.4443 9.44434 46.4717 32.9854 48.749 63.8184
c2.86133 38.666 3.40332 77.5264 4.15332 116.317c0.138672 7.48633 -2.73633 15.2783 -5.27832 22.542c-8.45801 24.1387 -16.791 31.7637 -41.9297 28.2637c-65.249 -9.06934 -74.6797 29.4854 -70.6377 74.707c2.66699 29.791 4.97266 59.8457 10.917 89.0811
c8.22168 40.416 22.333 52.3184 63.6377 54.582c34.3193 1.875 68.833 0.388672 103.263 0.388672z" />
    <glyph glyph-name="L" unicode="L" horiz-adv-x="619" 
d="M593.097 194.533c0.527344 -0.0830078 1.07227 -0.140625 1.61426 -0.182617c-2.72266 -42.0273 -3.82031 -84.249 -8.65332 -126.04c-3.95801 -34.25 -24.3193 -56.1387 -58.5273 -57.9023c-104.068 -5.38867 -208.275 -9.11035 -312.469 -10.3877
c-37.3887 -0.458008 -74.8877 7.79199 -112.304 12.3193c-44.2354 5.36133 -57.8047 20.0977 -58.6104 64.75c-0.569336 32.1943 -0.680664 64.416 0.0556641 96.5957c0.763672 33.875 14.416 58.5273 48.0684 72.416c35.166 14.5137 41.958 28.4854 36.791 64.957
c-4.97168 35.1387 -12.0137 69.9717 -17.4023 105.055c-3.18066 20.708 -13.9023 33.4854 -33.4023 41.5547c-48.3047 19.9863 -58.8877 38.917 -52.624 89.4307c3.81934 30.833 7.68066 61.6523 11.6807 92.4717c4.38867 33.833 14.166 46.0693 48.082 48.1113
c36.291 2.18066 72.9014 -0.0419922 109.346 -1.18066c31.041 -0.972656 62.0264 -3.38965 93.0537 -4.72266c38.5273 -1.65234 61.708 -20.249 62.708 -58.415c1.15234 -44.2217 -2.30566 -88.6377 -5.19434 -132.859c-1.18066 -18 -12.4863 -29.0137 -30.2363 -35.6807
c-44.0693 -16.5557 -56.6807 -35.1807 -55.792 -82.666c0.722656 -38.7637 1.58398 -77.749 6.36133 -116.138c4.41699 -35.5 20.4307 -48.1523 56.041 -48.2354c26.541 -0.0556641 53.1934 2.56934 79.5957 5.76367c31.1943 3.77734 42.8887 15.9023 47.8193 45.957
c0.888672 5.45801 1.48633 11.083 1.23633 16.5967c-1.81934 40.833 27.9023 67.0547 79.1934 61.6934c6.59668 -0.694336 13.1104 -2.34668 19.5967 -3.87402c32.916 -7.77734 42.958 -19.2637 43.8193 -52.7773c0.75 -28.8467 0.152344 -57.7354 0.152344 -86.6104z" />
    <glyph glyph-name="M" unicode="M" horiz-adv-x="934" 
d="M225.231 14.5908c-0.194336 -1.56934 -0.381836 -3.13281 -0.589844 -4.70215c-40.4443 5.84668 -81.291 9.79102 -121.235 18.0547c-39.708 8.22168 -67.5273 29.6934 -66.9443 78.082c0.402344 33.1523 0.416016 66.3184 1.23535 99.457
c0.652344 26.3887 13.4854 45.7217 39.666 50.624c38.041 7.125 51.9297 32.0273 51.5547 66.291c-0.375 34.2354 -2.08301 68.874 -7.86035 102.526c-5.80566 33.8193 -21.9443 44.6523 -57.8467 48.5273c-25.0693 2.70801 -29.8193 6.61035 -36.3467 30.7207
c-1.44434 5.33301 -3.08301 10.9443 -2.83301 16.3467c2.15234 47.499 1.47168 95.4424 8.11035 142.345c6.16699 43.4854 25.542 55.707 68.75 63.082c54.6797 9.33301 108.554 -1.68066 162.664 -4.29199c27.7637 -1.33301 44.8467 -22.5684 56.6523 -46.4707
c22.0967 -44.749 43.6377 -89.7764 65.54 -134.609c20.4443 -41.8604 40.958 -83.707 61.791 -125.373c2.30566 -4.61133 7 -8.02832 10.583 -12.001c4.27734 4.47168 10.3193 8.20801 12.583 13.5273c22.5557 53.0967 42.0273 107.665 67.4434 159.317
c16.9443 34.416 40.8047 65.7627 64.04 96.623c16.833 22.3604 41.3887 31.5547 70.3604 30.7354c39.9443 -1.13867 79.9434 0.138672 119.915 0.180664c12.208 0.0136719 24.5137 0.194336 36.6104 -1.09766c50.9717 -5.47168 69.4717 -23.3184 69.416 -74.9287
c-0.0419922 -34.0547 -5.83398 -68.2764 -11.209 -102.081c-3.59668 -22.625 -16.9297 -35.9443 -41.9434 -40.3887c-39.5547 -7.02734 -45.4717 -15.583 -44.5693 -56.6523c0.680664 -31.0137 3.83301 -61.999 6.81934 -92.915
c0.944336 -9.80566 3.88867 -19.7227 7.61035 -28.8896c10.8057 -26.583 25.4717 -49.6797 57.041 -54.9854c24.916 -4.18066 36.7217 -20.6807 36.9443 -44.2217c0.347656 -35.333 1.68066 -71.1523 -3.27734 -105.93c-7.75 -54.291 -39.583 -83.916 -93.082 -94.833
c-42.916 -8.76367 -85.9014 -8.23633 -129.067 -2.15332c-23.0137 3.23633 -46.1943 5.27832 -69.1523 8.79199c-24.041 3.68066 -38.999 18.5273 -38.8467 42.6523c0.25 39.7354 0.944336 79.79 6.18066 119.081c4.125 31.0693 26.6943 49.3057 56.874 58.875
c42.3604 13.4307 44.0127 15.9033 45.415 60.8613c1.13867 36.6104 0.861328 73.2764 0.930664 109.915c0.0136719 7.73633 -0.291992 15.6943 -2.06934 23.1523c-3.26367 13.625 -11.6523 16.333 -21.1943 6.73633c-6.18066 -6.22168 -11.792 -13.5137 -15.875 -21.25
c-11.3613 -21.5693 -21.6533 -43.708 -32.625 -65.4854c-26.9307 -53.458 -53.1387 -107.318 -81.4023 -160.082c-13.7637 -25.6943 -35.1943 -40.958 -67.2773 -40.7354c-55.3877 0.375 -62.0684 3.31934 -85.124 54.6934c-29.541 65.8047 -58.541 131.859 -88.6377 197.4
c-5.27734 11.5 -14.7637 21.0693 -22.3057 31.541c-3.91699 -11.708 -10.834 -23.333 -11.167 -35.1387c-0.847656 -30.8604 -0.611328 -61.9854 2.58301 -92.6514c2.97266 -28.6523 20.5283 -47.499 48 -58.4014c47.7637 -18.9717 56.541 -29.0967 51.208 -79.04
c-4.06934 -38.0967 -15.541 -75.7354 -26.874 -112.624c-8.04199 -26.1807 -30.8057 -36.7637 -57.208 -38.0557c-16.6113 -0.819336 -33.3057 -0.152344 -49.958 -0.152344z" />
    <glyph glyph-name="N" unicode="N" horiz-adv-x="775" 
d="M584.558 699.138c0.0830078 0.402344 0.142578 0.810547 0.18457 1.22754c38.7217 -2.69434 77.5127 -4.61133 116.137 -8.33301c34.625 -3.33301 48.8057 -15.8193 49.7227 -50.6104c1.08301 -40.8604 -2.01465 -81.9434 -5.33398 -122.748
c-2.05566 -25.2773 -15.7363 -43.7217 -42.1807 -49.333c-22.083 -4.68066 -30.2354 -18.8467 -32.1104 -40.3184c-5.01367 -57.0967 5.13867 -112.874 12.6807 -168.942c1.88867 -14.0693 8.125 -22.083 23.6387 -21.8604
c21.1523 0.291992 34.6797 -12.125 36.332 -31.7773c3.36133 -39.6797 7.40332 -79.9014 4.36133 -119.387c-3.94434 -51.2773 -32.2773 -77.499 -83.457 -83.457c-63.3604 -7.375 -126.388 -3.44434 -188.4 12.1523c-25.8193 6.5 -31.9863 14.9443 -33.7637 42.0547
c-2.02734 30.9854 -3.15234 62.0547 -6.36035 92.915c-2.91699 28.0693 -13.1533 54.0547 -30.709 76.332c-28.1807 35.7773 -56.75 71.249 -85.9297 106.193c-11.25 13.458 -25.2773 32.4443 -42.9854 25.8613c-20.1943 -7.51367 -10.4727 -31.3467 -10.167 -48.041
c0.25 -14.1523 5.22168 -28.2637 8.38867 -42.3193c5.13867 -22.7773 16.6104 -35.7354 42.5957 -38.624c33.7637 -3.75 43.833 -15.916 46.0693 -50.5264c2.22266 -34.291 1.43066 -68.8184 0.861328 -103.221c-0.152344 -9.76367 -3.23535 -19.7773 -6.54102 -29.124
c-7.5 -21.2354 -20.6113 -32.749 -42.625 -29.749c-67.8877 9.25 -135.317 -0.569336 -202.928 -1.70801c-47.8467 -0.805664 -62.0273 9.61133 -66.4443 58.2354c-3.79199 41.9023 -2.38965 84.291 -3.04199 126.471c-0.25 16.0967 7.95801 27.7354 21.8047 34.7217
c14.8193 7.48633 30.0137 14.458 45.5693 20.2217c17.25 6.38867 28.3057 16.6807 29.708 35.833c3.52734 48.0967 -0.708984 95.4434 -16.3613 141.096c-8.25 24.0557 -28.9307 35.5977 -52.1807 42.5283c-37.666 11.2217 -40.499 14.7637 -42.3184 52.291
c-0.694336 14.4023 -2.52734 28.7637 -3.11035 43.166c-0.805664 19.9443 -2.61133 40.0547 -1.04199 59.8604c4.70801 59.3467 22.3047 77.3604 82.1377 75.1523c53.0137 -1.95801 105.832 -9.83301 158.637 -15.916c20.875 -2.40234 41.7637 -5.90234 62.1523 -10.874
c27.1807 -6.63867 39.0137 -18.7637 39.5967 -46.1523c0.833008 -38.7637 -1.125 -77.6797 -3.76367 -116.388c-1.13867 -16.7773 -7.44434 -32.2354 -27.4023 -37.5273c-13.958 -3.70801 -10 -12.0547 -2.02832 -19.0967c20.7773 -18.375 42.0127 -36.2637 62.623 -54.833
c35.4717 -31.958 70.5127 -64.4023 105.929 -96.416c13.708 -12.3887 19.875 -11.208 21.1387 5.5c3.11133 40.916 6.45898 82.0127 5.72266 122.971c-0.569336 32 -13.4307 41.8057 -45.791 44.917c-48.1797 4.625 -61.4707 17.5273 -59.3184 64.9854
c1.5 33.1387 7.18066 66.1387 12.042 99.041c3.61133 24.4443 18.625 40.1104 42.583 45.666c16.083 3.73633 32.5967 6.47266 49.0547 7.59766c18.791 1.29199 37.7354 0.291992 56.624 0.291992z" />
    <glyph glyph-name="N" unicode="&#xd1;" horiz-adv-x="775" 
d="M584.558 699.138c0.0830078 0.402344 0.142578 0.810547 0.18457 1.22754c38.7217 -2.69434 77.5127 -4.61133 116.137 -8.33301c34.625 -3.33301 48.8057 -15.8193 49.7227 -50.6104c1.08301 -40.8604 -2.01465 -81.9434 -5.33398 -122.748
c-2.05566 -25.2773 -15.7363 -43.7217 -42.1807 -49.333c-22.083 -4.68066 -30.2354 -18.8467 -32.1104 -40.3184c-5.01367 -57.0967 5.13867 -112.874 12.6807 -168.942c1.88867 -14.0693 8.125 -22.083 23.6387 -21.8604
c21.1523 0.291992 34.6797 -12.125 36.332 -31.7773c3.36133 -39.6797 7.40332 -79.9014 4.36133 -119.387c-3.94434 -51.2773 -32.2773 -77.499 -83.457 -83.457c-63.3604 -7.375 -126.388 -3.44434 -188.4 12.1523c-25.8193 6.5 -31.9863 14.9443 -33.7637 42.0547
c-2.02734 30.9854 -3.15234 62.0547 -6.36035 92.915c-2.91699 28.0693 -13.1533 54.0547 -30.709 76.332c-28.1807 35.7773 -56.75 71.249 -85.9297 106.193c-11.25 13.458 -25.2773 32.4443 -42.9854 25.8613c-20.1943 -7.51367 -10.4727 -31.3467 -10.167 -48.041
c0.25 -14.1523 5.22168 -28.2637 8.38867 -42.3193c5.13867 -22.7773 16.6104 -35.7354 42.5957 -38.624c33.7637 -3.75 43.833 -15.916 46.0693 -50.5264c2.22266 -34.291 1.43066 -68.8184 0.861328 -103.221c-0.152344 -9.76367 -3.23535 -19.7773 -6.54102 -29.124
c-7.5 -21.2354 -20.6113 -32.749 -42.625 -29.749c-67.8877 9.25 -135.317 -0.569336 -202.928 -1.70801c-47.8467 -0.805664 -62.0273 9.61133 -66.4443 58.2354c-3.79199 41.9023 -2.38965 84.291 -3.04199 126.471c-0.25 16.0967 7.95801 27.7354 21.8047 34.7217
c14.8193 7.48633 30.0137 14.458 45.5693 20.2217c17.25 6.38867 28.3057 16.6807 29.708 35.833c3.52734 48.0967 -0.708984 95.4434 -16.3613 141.096c-8.25 24.0557 -28.9307 35.5977 -52.1807 42.5283c-37.666 11.2217 -40.499 14.7637 -42.3184 52.291
c-0.694336 14.4023 -2.52734 28.7637 -3.11035 43.166c-0.805664 19.9443 -2.61133 40.0547 -1.04199 59.8604c4.70801 59.3467 22.3047 77.3604 82.1377 75.1523c53.0137 -1.95801 105.832 -9.83301 158.637 -15.916c20.875 -2.40234 41.7637 -5.90234 62.1523 -10.874
c27.1807 -6.63867 39.0137 -18.7637 39.5967 -46.1523c0.833008 -38.7637 -1.125 -77.6797 -3.76367 -116.388c-1.13867 -16.7773 -7.44434 -32.2354 -27.4023 -37.5273c-13.958 -3.70801 -10 -12.0547 -2.02832 -19.0967c20.7773 -18.375 42.0127 -36.2637 62.623 -54.833
c35.4717 -31.958 70.5127 -64.4023 105.929 -96.416c13.708 -12.3887 19.875 -11.208 21.1387 5.5c3.11133 40.916 6.45898 82.0127 5.72266 122.971c-0.569336 32 -13.4307 41.8057 -45.791 44.917c-48.1797 4.625 -61.4707 17.5273 -59.3184 64.9854
c1.5 33.1387 7.18066 66.1387 12.042 99.041c3.61133 24.4443 18.625 40.1104 42.583 45.666c16.083 3.73633 32.5967 6.47266 49.0547 7.59766c18.791 1.29199 37.7354 0.291992 56.624 0.291992z" />
    <glyph glyph-name="O" unicode="O" horiz-adv-x="636" 
d="M603.427 510.557c3.36133 -35.333 4.25098 -70.915 6.83398 -116.929c5.625 -78.0547 -3.81934 -164.804 -33.8604 -248.608c-7.80566 -21.7773 -17.0977 -43.874 -30.125 -62.79c-32.9854 -47.9023 -76.4297 -78.874 -138.04 -80.2217
c-62.1523 -1.36133 -124.18 -6.01367 -185.901 6.11133c-45.5547 8.95801 -86.7344 27.8604 -123.858 54.9014c-39.458 28.7217 -53.9023 71.749 -62.458 117.596c-18.9863 101.749 -12.9443 203.373 0.666992 305.011c0.583008 4.38867 1.91602 8.66602 2.84668 13.0127
c22.0557 102.651 74.791 151.637 177.748 164.358c61.8184 7.63867 123.637 10.6807 185.914 3.09766c43.6943 -5.31934 84.8467 -18.3604 123.332 -38.1514c46.8184 -24.083 71.9434 -65.166 76.9014 -117.388zM230.821 409.67
c-3.70801 -28.5693 -6.37598 -57.2617 -9.4873 -85.8867c0.944336 -0.0693359 1.88867 -0.152344 2.83301 -0.22168c0 -16.6523 -0.0273438 -33.3047 0.0283203 -49.9707c0.0136719 -3.31934 0.152344 -6.68066 0.583008 -9.97266
c3.43066 -25.8467 13.5977 -37.5137 38.3057 -44.1807c51.8467 -13.9863 97.1934 5.61035 118.818 53.8037c18.416 41.0273 24.166 85.2354 25.4434 129.846c0.541992 19.0967 -7.17969 34.8047 -26.1514 42.4717c-35.916 14.5 -72.416 20.458 -110.485 8.20801
c-22.1104 -7.125 -36.832 -20.5967 -39.8877 -44.0967z" />
    <glyph glyph-name="O" unicode="&#xd8;" horiz-adv-x="636" 
d="M603.427 510.557c3.36133 -35.333 4.25098 -70.915 6.83398 -116.929c5.625 -78.0547 -3.81934 -164.804 -33.8604 -248.608c-7.80566 -21.7773 -17.0977 -43.874 -30.125 -62.79c-32.9854 -47.9023 -76.4297 -78.874 -138.04 -80.2217
c-62.1523 -1.36133 -124.18 -6.01367 -185.901 6.11133c-45.5547 8.95801 -86.7344 27.8604 -123.858 54.9014c-39.458 28.7217 -53.9023 71.749 -62.458 117.596c-18.9863 101.749 -12.9443 203.373 0.666992 305.011c0.583008 4.38867 1.91602 8.66602 2.84668 13.0127
c22.0557 102.651 74.791 151.637 177.748 164.358c61.8184 7.63867 123.637 10.6807 185.914 3.09766c43.6943 -5.31934 84.8467 -18.3604 123.332 -38.1514c46.8184 -24.083 71.9434 -65.166 76.9014 -117.388zM230.821 409.67
c-3.70801 -28.5693 -6.37598 -57.2617 -9.4873 -85.8867c0.944336 -0.0693359 1.88867 -0.152344 2.83301 -0.22168c0 -16.6523 -0.0273438 -33.3047 0.0283203 -49.9707c0.0136719 -3.31934 0.152344 -6.68066 0.583008 -9.97266
c3.43066 -25.8467 13.5977 -37.5137 38.3057 -44.1807c51.8467 -13.9863 97.1934 5.61035 118.818 53.8037c18.416 41.0273 24.166 85.2354 25.4434 129.846c0.541992 19.0967 -7.17969 34.8047 -26.1514 42.4717c-35.916 14.5 -72.416 20.458 -110.485 8.20801
c-22.1104 -7.125 -36.832 -20.5967 -39.8877 -44.0967z" />
    <glyph glyph-name="O" unicode="&#xd6;" horiz-adv-x="636" 
d="M603.427 510.557c3.36133 -35.333 4.25098 -70.915 6.83398 -116.929c5.625 -78.0547 -3.81934 -164.804 -33.8604 -248.608c-7.80566 -21.7773 -17.0977 -43.874 -30.125 -62.79c-32.9854 -47.9023 -76.4297 -78.874 -138.04 -80.2217
c-62.1523 -1.36133 -124.18 -6.01367 -185.901 6.11133c-45.5547 8.95801 -86.7344 27.8604 -123.858 54.9014c-39.458 28.7217 -53.9023 71.749 -62.458 117.596c-18.9863 101.749 -12.9443 203.373 0.666992 305.011c0.583008 4.38867 1.91602 8.66602 2.84668 13.0127
c22.0557 102.651 74.791 151.637 177.748 164.358c61.8184 7.63867 123.637 10.6807 185.914 3.09766c43.6943 -5.31934 84.8467 -18.3604 123.332 -38.1514c46.8184 -24.083 71.9434 -65.166 76.9014 -117.388zM230.821 409.67
c-3.70801 -28.5693 -6.37598 -57.2617 -9.4873 -85.8867c0.944336 -0.0693359 1.88867 -0.152344 2.83301 -0.22168c0 -16.6523 -0.0273438 -33.3047 0.0283203 -49.9707c0.0136719 -3.31934 0.152344 -6.68066 0.583008 -9.97266
c3.43066 -25.8467 13.5977 -37.5137 38.3057 -44.1807c51.8467 -13.9863 97.1934 5.61035 118.818 53.8037c18.416 41.0273 24.166 85.2354 25.4434 129.846c0.541992 19.0967 -7.17969 34.8047 -26.1514 42.4717c-35.916 14.5 -72.416 20.458 -110.485 8.20801
c-22.1104 -7.125 -36.832 -20.5967 -39.8877 -44.0967z" />
    <glyph glyph-name="O" unicode="&#xd5;" horiz-adv-x="636" 
d="M603.427 510.557c3.36133 -35.333 4.25098 -70.915 6.83398 -116.929c5.625 -78.0547 -3.81934 -164.804 -33.8604 -248.608c-7.80566 -21.7773 -17.0977 -43.874 -30.125 -62.79c-32.9854 -47.9023 -76.4297 -78.874 -138.04 -80.2217
c-62.1523 -1.36133 -124.18 -6.01367 -185.901 6.11133c-45.5547 8.95801 -86.7344 27.8604 -123.858 54.9014c-39.458 28.7217 -53.9023 71.749 -62.458 117.596c-18.9863 101.749 -12.9443 203.373 0.666992 305.011c0.583008 4.38867 1.91602 8.66602 2.84668 13.0127
c22.0557 102.651 74.791 151.637 177.748 164.358c61.8184 7.63867 123.637 10.6807 185.914 3.09766c43.6943 -5.31934 84.8467 -18.3604 123.332 -38.1514c46.8184 -24.083 71.9434 -65.166 76.9014 -117.388zM230.821 409.67
c-3.70801 -28.5693 -6.37598 -57.2617 -9.4873 -85.8867c0.944336 -0.0693359 1.88867 -0.152344 2.83301 -0.22168c0 -16.6523 -0.0273438 -33.3047 0.0283203 -49.9707c0.0136719 -3.31934 0.152344 -6.68066 0.583008 -9.97266
c3.43066 -25.8467 13.5977 -37.5137 38.3057 -44.1807c51.8467 -13.9863 97.1934 5.61035 118.818 53.8037c18.416 41.0273 24.166 85.2354 25.4434 129.846c0.541992 19.0967 -7.17969 34.8047 -26.1514 42.4717c-35.916 14.5 -72.416 20.458 -110.485 8.20801
c-22.1104 -7.125 -36.832 -20.5967 -39.8877 -44.0967z" />
    <glyph glyph-name="O" unicode="&#xd4;" horiz-adv-x="636" 
d="M603.427 510.557c3.36133 -35.333 4.25098 -70.915 6.83398 -116.929c5.625 -78.0547 -3.81934 -164.804 -33.8604 -248.608c-7.80566 -21.7773 -17.0977 -43.874 -30.125 -62.79c-32.9854 -47.9023 -76.4297 -78.874 -138.04 -80.2217
c-62.1523 -1.36133 -124.18 -6.01367 -185.901 6.11133c-45.5547 8.95801 -86.7344 27.8604 -123.858 54.9014c-39.458 28.7217 -53.9023 71.749 -62.458 117.596c-18.9863 101.749 -12.9443 203.373 0.666992 305.011c0.583008 4.38867 1.91602 8.66602 2.84668 13.0127
c22.0557 102.651 74.791 151.637 177.748 164.358c61.8184 7.63867 123.637 10.6807 185.914 3.09766c43.6943 -5.31934 84.8467 -18.3604 123.332 -38.1514c46.8184 -24.083 71.9434 -65.166 76.9014 -117.388zM230.821 409.67
c-3.70801 -28.5693 -6.37598 -57.2617 -9.4873 -85.8867c0.944336 -0.0693359 1.88867 -0.152344 2.83301 -0.22168c0 -16.6523 -0.0273438 -33.3047 0.0283203 -49.9707c0.0136719 -3.31934 0.152344 -6.68066 0.583008 -9.97266
c3.43066 -25.8467 13.5977 -37.5137 38.3057 -44.1807c51.8467 -13.9863 97.1934 5.61035 118.818 53.8037c18.416 41.0273 24.166 85.2354 25.4434 129.846c0.541992 19.0967 -7.17969 34.8047 -26.1514 42.4717c-35.916 14.5 -72.416 20.458 -110.485 8.20801
c-22.1104 -7.125 -36.832 -20.5967 -39.8877 -44.0967z" />
    <glyph glyph-name="O" unicode="&#xd3;" horiz-adv-x="636" 
d="M603.427 510.557c3.36133 -35.333 4.25098 -70.915 6.83398 -116.929c5.625 -78.0547 -3.81934 -164.804 -33.8604 -248.608c-7.80566 -21.7773 -17.0977 -43.874 -30.125 -62.79c-32.9854 -47.9023 -76.4297 -78.874 -138.04 -80.2217
c-62.1523 -1.36133 -124.18 -6.01367 -185.901 6.11133c-45.5547 8.95801 -86.7344 27.8604 -123.858 54.9014c-39.458 28.7217 -53.9023 71.749 -62.458 117.596c-18.9863 101.749 -12.9443 203.373 0.666992 305.011c0.583008 4.38867 1.91602 8.66602 2.84668 13.0127
c22.0557 102.651 74.791 151.637 177.748 164.358c61.8184 7.63867 123.637 10.6807 185.914 3.09766c43.6943 -5.31934 84.8467 -18.3604 123.332 -38.1514c46.8184 -24.083 71.9434 -65.166 76.9014 -117.388zM230.821 409.67
c-3.70801 -28.5693 -6.37598 -57.2617 -9.4873 -85.8867c0.944336 -0.0693359 1.88867 -0.152344 2.83301 -0.22168c0 -16.6523 -0.0273438 -33.3047 0.0283203 -49.9707c0.0136719 -3.31934 0.152344 -6.68066 0.583008 -9.97266
c3.43066 -25.8467 13.5977 -37.5137 38.3057 -44.1807c51.8467 -13.9863 97.1934 5.61035 118.818 53.8037c18.416 41.0273 24.166 85.2354 25.4434 129.846c0.541992 19.0967 -7.17969 34.8047 -26.1514 42.4717c-35.916 14.5 -72.416 20.458 -110.485 8.20801
c-22.1104 -7.125 -36.832 -20.5967 -39.8877 -44.0967z" />
    <glyph glyph-name="O" unicode="&#xd2;" horiz-adv-x="636" 
d="M603.427 510.557c3.36133 -35.333 4.25098 -70.915 6.83398 -116.929c5.625 -78.0547 -3.81934 -164.804 -33.8604 -248.608c-7.80566 -21.7773 -17.0977 -43.874 -30.125 -62.79c-32.9854 -47.9023 -76.4297 -78.874 -138.04 -80.2217
c-62.1523 -1.36133 -124.18 -6.01367 -185.901 6.11133c-45.5547 8.95801 -86.7344 27.8604 -123.858 54.9014c-39.458 28.7217 -53.9023 71.749 -62.458 117.596c-18.9863 101.749 -12.9443 203.373 0.666992 305.011c0.583008 4.38867 1.91602 8.66602 2.84668 13.0127
c22.0557 102.651 74.791 151.637 177.748 164.358c61.8184 7.63867 123.637 10.6807 185.914 3.09766c43.6943 -5.31934 84.8467 -18.3604 123.332 -38.1514c46.8184 -24.083 71.9434 -65.166 76.9014 -117.388zM230.821 409.67
c-3.70801 -28.5693 -6.37598 -57.2617 -9.4873 -85.8867c0.944336 -0.0693359 1.88867 -0.152344 2.83301 -0.22168c0 -16.6523 -0.0273438 -33.3047 0.0283203 -49.9707c0.0136719 -3.31934 0.152344 -6.68066 0.583008 -9.97266
c3.43066 -25.8467 13.5977 -37.5137 38.3057 -44.1807c51.8467 -13.9863 97.1934 5.61035 118.818 53.8037c18.416 41.0273 24.166 85.2354 25.4434 129.846c0.541992 19.0967 -7.17969 34.8047 -26.1514 42.4717c-35.916 14.5 -72.416 20.458 -110.485 8.20801
c-22.1104 -7.125 -36.832 -20.5967 -39.8877 -44.0967z" />
    <glyph glyph-name="P" unicode="P" horiz-adv-x="604" 
d="M149.966 685.763c0.0273438 0.527344 0.0537109 1.05469 0.0673828 1.58203c89.749 -5.09668 179.595 -9.01367 269.205 -15.8604c36.8047 -2.81934 71.0957 -17.5967 101.859 -38.499c41.041 -27.8887 58.916 -67.9854 58.5967 -116.818
c-0.0830078 -13.3193 -2.08301 -26.6807 -1.40234 -39.9443c2.83301 -55.3877 -17.5693 -101.123 -53.4297 -142.525c-32.0967 -37.041 -71.791 -56.582 -119.499 -56.0264c-45.374 0.527344 -90.665 6.48535 -136.054 9.22168
c-9.04199 0.541992 -18.3057 -2.68066 -27.4727 -4.16699c2.80566 -11.3887 2.02832 -26.8193 9.25 -33.2363c11.7773 -10.4717 28.1387 -17.3604 43.6943 -21.666c37.875 -10.5137 43.1113 -15.2217 46.959 -53.249c4.51367 -44.708 1.84668 -88.6934 -12.4307 -131.623
c-11.0273 -33.166 -17.7637 -39.4023 -51.666 -41.416c-65.707 -3.90234 -130.956 -0.84668 -195.038 15.834c-31.291 8.15234 -43.6934 21.583 -43.9297 53.6797c-0.291992 38.833 2.09668 77.6797 3.11035 116.54c0.583008 22.333 9.69434 38.4854 31.9297 45.2773
c25.583 7.81934 36.1943 25.9717 39.917 51.5684c7.02734 48.3604 16.6523 96.4014 5.13867 145.373c-7.06934 30.0693 -12.0273 34.1523 -42.9854 33.458c-4.44434 -0.0976562 -8.875 -0.75 -13.3057 -0.694336c-24.9023 0.263672 -36.2354 8.43066 -37.041 32.541
c-1.375 41.0137 -2.72266 82.3467 0.819336 123.11c4.30566 49.6797 26.958 67.2764 77.0547 67.5264c15.5557 0.0830078 31.0967 0.0136719 46.6523 0.0136719zM363.531 440.585c-19.4307 17.0967 -43.499 20.1387 -68.54 21.4443
c-6.15234 -0.5 -12.8193 -0.583008 -19.333 -1.65234c-12.4863 -2.04199 -26.9023 -0.0419922 -28.3887 -19.9307c-2.15234 -28.791 2.93066 -41.9023 22.917 -48.1943c31.291 -9.84668 61.457 -4.55469 89.748 9.88965c20.4443 10.4443 21.0273 23.1523 3.59668 38.4434z
" />
    <glyph glyph-name="Q" unicode="Q" horiz-adv-x="630" 
d="M42.9023 194.533c-7.11133 75.082 -13.0713 150.276 -18.9043 218.998c3.30566 42.1797 5.55566 77.624 9.02832 112.957c2.90234 29.5557 14.0967 56.7217 34.541 77.8877c52.4717 54.2773 111.79 94.1934 192.789 87.9854
c48.624 -3.72266 97.5127 -3.88965 146.262 -6.00098c70.499 -3.04199 124.651 -36.208 165.165 -92.3604c9.55566 -13.2363 18.8613 -28.958 21.25 -44.5967c6.47168 -42.541 12.624 -85.665 12.541 -128.554c-0.125 -58.749 -5.86133 -117.498 -9.76367 -176.206
c-1.83301 -27.666 -4.01367 -55.374 -7.95801 -82.79c-1.86133 -12.875 -6.94434 -25.7637 -12.9307 -37.4443c-13.458 -26.3057 -14.7637 -26.6943 4.68066 -46.333c24.833 -25.083 29.6943 -53.6797 17.958 -85.6797c-4.94434 -13.458 -10.6113 -27.0547 -18.4443 -38.957
c-17.75 -26.9717 -36.1523 -30.041 -60.8047 -9.5c-20.416 17.0137 -39.8604 35.4023 -58.041 54.7773c-11.6523 12.4307 -21.4023 17.458 -39.9717 13.666c-78.1934 -15.958 -156.512 -12.0557 -234.511 4.125c-69.0127 14.3057 -111.067 57.125 -131.581 122.68
c-5.59668 17.9023 -9.54102 36.6797 -11.3047 55.3457zM342.091 467.142c-8.61133 1.68066 -17.4854 2.04004 -31.6797 3.62305c-14.4443 -2.77734 -34.4023 -4.76367 -53.1387 -10.666c-25.2354 -7.95801 -37.416 -28.2773 -36.5967 -52.9854
c0.430664 -12.9307 5.88867 -18.0693 18.666 -15.75c15.1523 2.75 30.2773 6.04199 45.5684 7.65332c31.458 3.30566 61.6523 -0.22168 88.5547 -19.0967c6.05566 -4.25 13.875 -10.3193 18.1113 2.125c12.8887 37.791 -10.0967 77.3604 -49.4854 85.0967zM247.69 236.712
c17.833 -5.375 35.958 -9.78027 48.3604 -13.0439c17.4307 1.36133 28.6523 1.22266 39.4023 3.38965c8.95801 1.80566 9.26367 8.59766 3.36133 14.6396c-15.2363 15.6113 -71.7773 24.0557 -91.8467 13.5557c-3.40234 -1.77734 -7.56934 -6.40234 -7.38867 -9.48535
c0.194336 -3.26367 4.625 -8 8.11133 -9.05566z" />
    <glyph glyph-name="R" unicode="R" horiz-adv-x="644" 
d="M93.9375 697.582c41.0693 0.805664 82.1699 0.164062 123.239 0.164062c68.6934 -0.388672 137.067 0.472656 205.511 -12.1943c104.068 -19.2637 146.221 -85.332 156.304 -179.845c6.84668 -64.1104 -11.0977 -121.054 -63.1387 -163.692
c-6.86133 -5.625 -12.917 -12.2637 -19.9727 -17.6104c-12.6113 -9.56934 -12.6113 -19.3057 -2.47266 -30.6943c11.0693 -12.4307 21.6943 -25.2637 32.3057 -38.0967c11.8467 -14.333 25.833 -22.4023 45.4297 -23.6104c31.583 -1.94434 40.666 -11.0967 43.1523 -43.2217
c3.06934 -39.8047 4.97168 -79.7764 5.20801 -119.692c0.208008 -33.875 -17.2227 -51.8057 -50.7773 -52.9727c-54.333 -1.875 -108.721 -2.77734 -163.081 -2.67969c-30.5693 0.0556641 -42.583 9.13867 -45.541 37.291
c-4.84668 46.2354 -7.80469 92.7627 -8.79102 139.221c-0.277344 12.9307 5.51465 31.667 14.9727 37.8477c15.791 10.3193 11.6104 17.541 5.02734 28.9717c-14.8057 25.6523 -36 38.9434 -66.0547 34.1514c-18.541 -2.95801 -36.9717 -6.90234 -55.166 -11.541
c-10.4023 -2.65234 -19.6943 -10.4023 -15.458 -21.5273c2.94434 -7.75 12.0273 -16.2637 19.9443 -18.3193c12.541 -3.25 26.4297 -1.01367 39.7207 -1.73633c29.5137 -1.61133 42.5273 -10.75 44.083 -39.0557c2.30566 -41.958 3.625 -84.457 -0.430664 -126.151
c-4.43066 -45.4717 -19.8057 -62.5547 -60.708 -66.4297c-62.749 -5.94434 -126.151 -11.1523 -188.804 2.52832c-39.7354 8.68066 -49.5547 17.4727 -52.0967 57.3193c-2.72266 42.916 -1.23633 86.165 -0.222656 129.234c0.527344 22.5137 12.916 37.5137 35.9014 41.458
c22.3604 3.83301 32.5684 19.0693 34.541 39.208c4.65234 47.416 9.83301 94.957 10.625 142.512c0.611328 36.75 -17.208 55.1807 -54.2627 64.0693c-17.4307 4.18066 -27.3057 14.5137 -30.958 30.8467c-10.3193 46.166 -11.0273 92.6377 0.319336 138.609
c7.30566 29.5693 28.541 44.958 61.6514 45.6387zM338.466 450.693c-21.4854 10.2363 -45.4697 15.2207 -68.3447 22.498c-33.6943 -4.44434 -36.667 -6.95801 -41.584 -38.874c-0.847656 -5.45801 -1.54199 -10.9717 -1.75 -16.4854
c-0.930664 -23.8193 7.01367 -35.1387 30.416 -31.5967c27.9023 4.23633 55.9717 12.6113 81.6934 24.2363c21.1523 9.55566 20.6104 30.208 -0.430664 40.2217z" />
    <glyph glyph-name="S" unicode="S" horiz-adv-x="598" 
d="M569.531 565c0.555664 -0.0693359 1.12402 -0.116211 1.70703 -0.143555c-2.95801 -28.6523 -5.5 -57.3604 -9.01367 -85.957c-2.76367 -22.458 -16.6387 -37.624 -38.1104 -40.9014c-34.875 -5.33301 -70.208 -8.19434 -105.458 -10.25
c-19.208 -1.125 -29.1943 14.1943 -37.5967 28.8467c-11.333 19.75 -28.166 31.1113 -50.2217 34.5693c-7.47168 1.16699 -15.624 1.29199 -22.9297 -0.388672c-33.208 -7.63867 -42.0693 -32.7217 -21.292 -59.3604c12.1523 -15.5693 28.333 -24.458 47.8467 -27.5273
c22.9854 -3.61133 46.2764 -6.08398 68.832 -11.5557c22.4854 -5.45801 44.6797 -12.833 66.1934 -21.375c121.998 -48.416 126.304 -212.039 65.6377 -282.052c-21.7354 -25.083 -48.082 -42.1104 -78.498 -54.2627c-66.3604 -26.5137 -133.832 -29.2637 -202.331 -10.3193
c-21.4717 5.93066 -38.9717 8.43066 -61.4023 -6.06934c-35.583 -23 -78.666 -20.1807 -119.707 -13.4033c-19.333 3.19434 -31.1797 17.0137 -34.6104 36.2217c-12.5557 70.207 -17.0557 141.109 -13.292 212.247c1.79199 33.75 19.5283 53.3193 53.4727 58.208
c32.7354 4.70801 66.1797 4.88867 99.3594 6.19434c20.583 0.805664 32.2354 -12.291 40.374 -29.4297c7.59668 -16.0137 14.0967 -32.6797 23.0967 -47.874c11.2637 -19.041 29.25 -27.2354 51.1807 -22.4717c19.5 4.23633 28.5 19.2773 34.3613 37.1104
c5.68066 17.3057 -1.58301 30.5693 -12.6797 42.1943c-17.5273 18.3193 -39.708 27.125 -64.5967 31.3887c-34.8604 5.97168 -70.665 10.0693 -103.831 21.4717c-56.3604 19.375 -91.5957 60.7637 -104.901 119.513c-1.94434 8.58301 -2.88867 17.5693 -2.95801 26.375
c-0.611328 81.457 64.4854 168.025 143.207 188.262c32.125 8.26367 65.125 13.4717 97.958 18.5684c26.8887 4.18066 53.166 -0.666016 78.0547 -11.5967c12.3467 -5.41699 21.4854 -3.93066 33.2627 4.30566c12.0557 8.41699 28.0967 14.4307 42.708 15.1387
c24.083 1.16699 48.833 -0.638672 72.5684 -5.05566c40.458 -7.52734 54.583 -23.916 60.0967 -64.165c1.95801 -14.2773 2.70801 -28.749 3.40234 -43.165c0.527344 -11.0693 0.110352 -22.1943 0.110352 -33.291z" />
    <glyph glyph-name="T" unicode="T" horiz-adv-x="711" 
d="M685.163 546.431c0.416992 -0.0273438 0.839844 -0.0683594 1.25684 -0.0957031c-3.01367 -46.5273 -5.48633 -93.0957 -9.20801 -139.554c-3.48633 -43.541 -16.0557 -54.6934 -58.7637 -54.1104c-14.4307 0.194336 -28.8887 1.02734 -43.2354 2.48535
c-27.208 2.77734 -34.1943 11.0273 -35.375 38.124c-0.722656 16.5557 -1.01465 33.3887 -4.29199 49.5273c-4.23633 20.9443 -14.375 27.083 -35.875 25.9717c-41.1104 -2.15234 -61.9434 -21.8467 -62.3604 -62.332
c-0.472656 -45.5273 0.179688 -91.1104 2.23535 -136.582c1.33301 -29.75 2.58301 -31.7227 32.2637 -36.0146c33.6797 -4.875 45.3184 -24.041 44.6514 -55.3184c-0.916992 -43.249 -2.98633 -86.5537 -6.72266 -129.65
c-2.69434 -31.1387 -13.2637 -39.7773 -45.1523 -41.7354c-14.333 -0.875 -28.8467 1.25 -43.2217 0.680664c-44.2773 -1.75 -88.5264 -4.18066 -132.79 -6.23633c-14.3887 -0.666992 -28.9297 -2.40332 -43.1797 -1.15332
c-23.3887 2.05566 -34.3887 12.1943 -36.2637 35.75c-3.68066 46.4297 -7.11133 93.0127 -7.54199 139.554c-0.402344 43.583 8.43066 51.6943 52.0273 54.667c15.208 1.04199 22.0137 6.31934 22.5137 21.6807c1.63867 49.8887 5.20801 99.749 5.19434 149.623
c0 16.9863 -7.41699 34.3477 -13.2783 50.875c-6.11133 17.2217 -20.5977 22.458 -37.7227 19.9443c-10.9443 -1.59766 -21.75 -4.38965 -32.5 -7.09766c-14.375 -3.61133 -22.9863 -12.7637 -24.9443 -27.708c-0.291992 -2.20801 -0.722656 -4.40234 -0.805664 -6.61035
c-2.80566 -70.332 -47.0137 -78.165 -108.749 -64.6514c-15.4863 3.38867 -25.5137 13.5137 -28.3467 29.2773c-2.73633 15.25 -5.54199 30.6387 -6.23633 46.0547c-2.20801 48.8047 -4.15234 97.6514 -4.72168 146.498c-0.236328 19.8467 1.70801 40.0684 5.61035 59.5264
c4.70801 23.5273 19.3887 40.1797 44.208 43.957c17.458 2.65234 35.333 4.38867 52.9443 3.875c122.04 -3.48633 244.053 -7.95898 366.093 -11.4727c37.7354 -1.08301 75.5264 0.0283203 113.29 -0.235352c57.8877 -0.416992 78.6514 -20.917 78.9844 -77.5273
c0.111328 -20 0.0136719 -39.9863 0.0136719 -59.9863z" />
    <glyph glyph-name="U" unicode="U" horiz-adv-x="758" 
d="M458.863 357.892c0.805664 0 1.63867 -0.000976562 2.47168 -0.000976562c0 24.416 0.111328 48.832 -0.0410156 73.248c-0.0976562 14.666 -4.31934 23.1934 -21.958 26.6934c-42.5547 8.45801 -48.5684 16.9854 -49.1104 60.957
c-0.416992 33.2773 0.125 66.6523 2.18066 99.8604c3 48.541 20.8193 66.3047 69.041 65.7627c72.0967 -0.819336 144.207 -3.23633 216.233 -6.625c39.2354 -1.84766 55.666 -19.625 56.1934 -59.624c0.430664 -32.1104 -2.56934 -64.2627 -3.86133 -96.4014
c-1.13867 -28.2217 -13.3193 -49.3467 -40.333 -59.249c-17.6523 -6.47168 -21.1943 -18.2773 -22.4717 -35.6523c-4.55566 -61.916 -11.3193 -123.665 -16.8613 -185.525c-1.38867 -15.4443 -2.125 -31.0273 -1.83301 -46.5137
c1.01367 -54.0967 -21.958 -98.8877 -54.2627 -139.748c-14.0967 -17.833 -33.3604 -28.8604 -55.624 -34.5273c-90.665 -23.083 -182.261 -29.6523 -272.912 -4.30566c-34.416 9.625 -68.124 27.583 -97.4014 48.4023c-46.9434 33.375 -62.415 85.083 -62.7207 140.513
c-0.236328 42.0693 5.5 84.208 4.875 126.249c-0.513672 34.208 -6.76367 68.3184 -10.0273 102.513c-1.73633 18.25 -10.125 27.042 -29.375 28.8896c-35.9023 3.44434 -44.333 12.2217 -45.6387 47.7627c-1.41699 38.7217 -2.30566 77.624 -0.0556641 116.263
c2.30566 39.4854 19.792 55.7217 59.1523 57.5273c33.2217 1.52734 66.5967 0.985352 99.8604 -0.0703125c39.9023 -1.26367 79.749 -4.18066 119.638 -6.11133c44.5137 -2.15234 56.583 -10.874 65.8604 -54.54c4.08301 -19.2363 3.625 -39.5273 4.33301 -59.374
c0.625 -17.7363 -0.0976562 -35.5 -0.0146484 -53.25c0.180664 -35.7354 -9.73633 -48.1377 -44.0967 -54.7207c-27.7217 -5.31934 -29.2773 -5.33301 -28.875 -33.041c0.763672 -53.166 1.93066 -106.401 5.95801 -159.387
c2.26367 -29.8047 18.416 -42.6797 47.9014 -45.1797c12.0693 -1.02734 24.541 -0.75 36.5127 1.02734c48.1523 7.13867 64.9854 25.958 67.1104 74.9854c0.902344 21.0273 0.152344 42.124 0.152344 63.1934z" />
    <glyph glyph-name="U" unicode="&#xdc;" horiz-adv-x="758" 
d="M458.863 357.892c0.805664 0 1.63867 -0.000976562 2.47168 -0.000976562c0 24.416 0.111328 48.832 -0.0410156 73.248c-0.0976562 14.666 -4.31934 23.1934 -21.958 26.6934c-42.5547 8.45801 -48.5684 16.9854 -49.1104 60.957
c-0.416992 33.2773 0.125 66.6523 2.18066 99.8604c3 48.541 20.8193 66.3047 69.041 65.7627c72.0967 -0.819336 144.207 -3.23633 216.233 -6.625c39.2354 -1.84766 55.666 -19.625 56.1934 -59.624c0.430664 -32.1104 -2.56934 -64.2627 -3.86133 -96.4014
c-1.13867 -28.2217 -13.3193 -49.3467 -40.333 -59.249c-17.6523 -6.47168 -21.1943 -18.2773 -22.4717 -35.6523c-4.55566 -61.916 -11.3193 -123.665 -16.8613 -185.525c-1.38867 -15.4443 -2.125 -31.0273 -1.83301 -46.5137
c1.01367 -54.0967 -21.958 -98.8877 -54.2627 -139.748c-14.0967 -17.833 -33.3604 -28.8604 -55.624 -34.5273c-90.665 -23.083 -182.261 -29.6523 -272.912 -4.30566c-34.416 9.625 -68.124 27.583 -97.4014 48.4023c-46.9434 33.375 -62.415 85.083 -62.7207 140.513
c-0.236328 42.0693 5.5 84.208 4.875 126.249c-0.513672 34.208 -6.76367 68.3184 -10.0273 102.513c-1.73633 18.25 -10.125 27.042 -29.375 28.8896c-35.9023 3.44434 -44.333 12.2217 -45.6387 47.7627c-1.41699 38.7217 -2.30566 77.624 -0.0556641 116.263
c2.30566 39.4854 19.792 55.7217 59.1523 57.5273c33.2217 1.52734 66.5967 0.985352 99.8604 -0.0703125c39.9023 -1.26367 79.749 -4.18066 119.638 -6.11133c44.5137 -2.15234 56.583 -10.874 65.8604 -54.54c4.08301 -19.2363 3.625 -39.5273 4.33301 -59.374
c0.625 -17.7363 -0.0976562 -35.5 -0.0146484 -53.25c0.180664 -35.7354 -9.73633 -48.1377 -44.0967 -54.7207c-27.7217 -5.31934 -29.2773 -5.33301 -28.875 -33.041c0.763672 -53.166 1.93066 -106.401 5.95801 -159.387
c2.26367 -29.8047 18.416 -42.6797 47.9014 -45.1797c12.0693 -1.02734 24.541 -0.75 36.5127 1.02734c48.1523 7.13867 64.9854 25.958 67.1104 74.9854c0.902344 21.0273 0.152344 42.124 0.152344 63.1934z" />
    <glyph glyph-name="U" unicode="&#xdb;" horiz-adv-x="758" 
d="M458.863 357.892c0.805664 0 1.63867 -0.000976562 2.47168 -0.000976562c0 24.416 0.111328 48.832 -0.0410156 73.248c-0.0976562 14.666 -4.31934 23.1934 -21.958 26.6934c-42.5547 8.45801 -48.5684 16.9854 -49.1104 60.957
c-0.416992 33.2773 0.125 66.6523 2.18066 99.8604c3 48.541 20.8193 66.3047 69.041 65.7627c72.0967 -0.819336 144.207 -3.23633 216.233 -6.625c39.2354 -1.84766 55.666 -19.625 56.1934 -59.624c0.430664 -32.1104 -2.56934 -64.2627 -3.86133 -96.4014
c-1.13867 -28.2217 -13.3193 -49.3467 -40.333 -59.249c-17.6523 -6.47168 -21.1943 -18.2773 -22.4717 -35.6523c-4.55566 -61.916 -11.3193 -123.665 -16.8613 -185.525c-1.38867 -15.4443 -2.125 -31.0273 -1.83301 -46.5137
c1.01367 -54.0967 -21.958 -98.8877 -54.2627 -139.748c-14.0967 -17.833 -33.3604 -28.8604 -55.624 -34.5273c-90.665 -23.083 -182.261 -29.6523 -272.912 -4.30566c-34.416 9.625 -68.124 27.583 -97.4014 48.4023c-46.9434 33.375 -62.415 85.083 -62.7207 140.513
c-0.236328 42.0693 5.5 84.208 4.875 126.249c-0.513672 34.208 -6.76367 68.3184 -10.0273 102.513c-1.73633 18.25 -10.125 27.042 -29.375 28.8896c-35.9023 3.44434 -44.333 12.2217 -45.6387 47.7627c-1.41699 38.7217 -2.30566 77.624 -0.0556641 116.263
c2.30566 39.4854 19.792 55.7217 59.1523 57.5273c33.2217 1.52734 66.5967 0.985352 99.8604 -0.0703125c39.9023 -1.26367 79.749 -4.18066 119.638 -6.11133c44.5137 -2.15234 56.583 -10.874 65.8604 -54.54c4.08301 -19.2363 3.625 -39.5273 4.33301 -59.374
c0.625 -17.7363 -0.0976562 -35.5 -0.0146484 -53.25c0.180664 -35.7354 -9.73633 -48.1377 -44.0967 -54.7207c-27.7217 -5.31934 -29.2773 -5.33301 -28.875 -33.041c0.763672 -53.166 1.93066 -106.401 5.95801 -159.387
c2.26367 -29.8047 18.416 -42.6797 47.9014 -45.1797c12.0693 -1.02734 24.541 -0.75 36.5127 1.02734c48.1523 7.13867 64.9854 25.958 67.1104 74.9854c0.902344 21.0273 0.152344 42.124 0.152344 63.1934z" />
    <glyph glyph-name="U" unicode="&#xda;" horiz-adv-x="758" 
d="M458.863 357.892c0.805664 0 1.63867 -0.000976562 2.47168 -0.000976562c0 24.416 0.111328 48.832 -0.0410156 73.248c-0.0976562 14.666 -4.31934 23.1934 -21.958 26.6934c-42.5547 8.45801 -48.5684 16.9854 -49.1104 60.957
c-0.416992 33.2773 0.125 66.6523 2.18066 99.8604c3 48.541 20.8193 66.3047 69.041 65.7627c72.0967 -0.819336 144.207 -3.23633 216.233 -6.625c39.2354 -1.84766 55.666 -19.625 56.1934 -59.624c0.430664 -32.1104 -2.56934 -64.2627 -3.86133 -96.4014
c-1.13867 -28.2217 -13.3193 -49.3467 -40.333 -59.249c-17.6523 -6.47168 -21.1943 -18.2773 -22.4717 -35.6523c-4.55566 -61.916 -11.3193 -123.665 -16.8613 -185.525c-1.38867 -15.4443 -2.125 -31.0273 -1.83301 -46.5137
c1.01367 -54.0967 -21.958 -98.8877 -54.2627 -139.748c-14.0967 -17.833 -33.3604 -28.8604 -55.624 -34.5273c-90.665 -23.083 -182.261 -29.6523 -272.912 -4.30566c-34.416 9.625 -68.124 27.583 -97.4014 48.4023c-46.9434 33.375 -62.415 85.083 -62.7207 140.513
c-0.236328 42.0693 5.5 84.208 4.875 126.249c-0.513672 34.208 -6.76367 68.3184 -10.0273 102.513c-1.73633 18.25 -10.125 27.042 -29.375 28.8896c-35.9023 3.44434 -44.333 12.2217 -45.6387 47.7627c-1.41699 38.7217 -2.30566 77.624 -0.0556641 116.263
c2.30566 39.4854 19.792 55.7217 59.1523 57.5273c33.2217 1.52734 66.5967 0.985352 99.8604 -0.0703125c39.9023 -1.26367 79.749 -4.18066 119.638 -6.11133c44.5137 -2.15234 56.583 -10.874 65.8604 -54.54c4.08301 -19.2363 3.625 -39.5273 4.33301 -59.374
c0.625 -17.7363 -0.0976562 -35.5 -0.0146484 -53.25c0.180664 -35.7354 -9.73633 -48.1377 -44.0967 -54.7207c-27.7217 -5.31934 -29.2773 -5.33301 -28.875 -33.041c0.763672 -53.166 1.93066 -106.401 5.95801 -159.387
c2.26367 -29.8047 18.416 -42.6797 47.9014 -45.1797c12.0693 -1.02734 24.541 -0.75 36.5127 1.02734c48.1523 7.13867 64.9854 25.958 67.1104 74.9854c0.902344 21.0273 0.152344 42.124 0.152344 63.1934z" />
    <glyph glyph-name="U" unicode="&#xd9;" horiz-adv-x="758" 
d="M458.863 357.892c0.805664 0 1.63867 -0.000976562 2.47168 -0.000976562c0 24.416 0.111328 48.832 -0.0410156 73.248c-0.0976562 14.666 -4.31934 23.1934 -21.958 26.6934c-42.5547 8.45801 -48.5684 16.9854 -49.1104 60.957
c-0.416992 33.2773 0.125 66.6523 2.18066 99.8604c3 48.541 20.8193 66.3047 69.041 65.7627c72.0967 -0.819336 144.207 -3.23633 216.233 -6.625c39.2354 -1.84766 55.666 -19.625 56.1934 -59.624c0.430664 -32.1104 -2.56934 -64.2627 -3.86133 -96.4014
c-1.13867 -28.2217 -13.3193 -49.3467 -40.333 -59.249c-17.6523 -6.47168 -21.1943 -18.2773 -22.4717 -35.6523c-4.55566 -61.916 -11.3193 -123.665 -16.8613 -185.525c-1.38867 -15.4443 -2.125 -31.0273 -1.83301 -46.5137
c1.01367 -54.0967 -21.958 -98.8877 -54.2627 -139.748c-14.0967 -17.833 -33.3604 -28.8604 -55.624 -34.5273c-90.665 -23.083 -182.261 -29.6523 -272.912 -4.30566c-34.416 9.625 -68.124 27.583 -97.4014 48.4023c-46.9434 33.375 -62.415 85.083 -62.7207 140.513
c-0.236328 42.0693 5.5 84.208 4.875 126.249c-0.513672 34.208 -6.76367 68.3184 -10.0273 102.513c-1.73633 18.25 -10.125 27.042 -29.375 28.8896c-35.9023 3.44434 -44.333 12.2217 -45.6387 47.7627c-1.41699 38.7217 -2.30566 77.624 -0.0556641 116.263
c2.30566 39.4854 19.792 55.7217 59.1523 57.5273c33.2217 1.52734 66.5967 0.985352 99.8604 -0.0703125c39.9023 -1.26367 79.749 -4.18066 119.638 -6.11133c44.5137 -2.15234 56.583 -10.874 65.8604 -54.54c4.08301 -19.2363 3.625 -39.5273 4.33301 -59.374
c0.625 -17.7363 -0.0976562 -35.5 -0.0146484 -53.25c0.180664 -35.7354 -9.73633 -48.1377 -44.0967 -54.7207c-27.7217 -5.31934 -29.2773 -5.33301 -28.875 -33.041c0.763672 -53.166 1.93066 -106.401 5.95801 -159.387
c2.26367 -29.8047 18.416 -42.6797 47.9014 -45.1797c12.0693 -1.02734 24.541 -0.75 36.5127 1.02734c48.1523 7.13867 64.9854 25.958 67.1104 74.9854c0.902344 21.0273 0.152344 42.124 0.152344 63.1934z" />
    <glyph glyph-name="V" unicode="V" horiz-adv-x="743" 
d="M561.381 688.846c0.0136719 -0.0419922 0.0107422 -0.0732422 0.0107422 -0.115234c30 0 60 0.430664 89.9854 -0.208008c12.083 -0.263672 24.1387 -2.72168 36.166 -4.44434c25.1523 -3.59668 39.7773 -18.291 43.999 -43.124
c2.04199 -11.9863 4.84766 -24.208 4.30566 -36.1943c-1.44434 -32.1387 -3.51367 -64.333 -7.20801 -96.2773c-2.93066 -25.3887 -13.875 -34.0967 -39.458 -36.1387c-4.41699 -0.347656 -8.95898 -0.861328 -13.3057 -0.319336
c-26.2773 3.33301 -39.9434 -10.208 -51.1797 -32.6797c-49.249 -98.5264 -88.457 -201.136 -127.692 -303.829c-12.625 -33.0273 -29.3057 -64.5273 -44.4717 -96.5684c-9.93066 -20.9854 -26.5967 -31.5127 -50.166 -32.374
c-16.583 -0.597656 -33.1387 -2.95898 -49.6387 -5.05664c-47.1797 -5.97168 -71.1514 4.47266 -91.3594 48.1943c-22.7637 49.291 -42.9443 99.915 -61.5693 150.942c-27.791 76.1104 -53.8604 152.873 -79.3457 229.789
c-8.18066 24.6807 -21.833 37.1943 -48.3047 35.5557c-12.1387 -0.75 -24.5273 -0.222656 -36.583 1.375c-28.916 3.83301 -40.916 17.1943 -42.2773 46.0273c-2.41699 51.1523 10.3887 99.041 32.0137 144.874c10.1807 21.583 26.375 36.291 51.083 37.1797
c71.9854 2.56934 143.901 12.9307 216.053 1.08398c32.75 -5.375 42.25 -12.3193 48.2217 -44.9443c5.59668 -30.5547 10.0967 -61.3457 13.916 -92.1787c1.34766 -10.833 0.208984 -22.2354 -1.40234 -33.124c-4.38867 -29.583 -16.8467 -53.3184 -49.499 -59.0264
c-13.8613 -2.43066 -15.792 -9.65234 -12 -21.2354c19.6943 -60.1104 39.3057 -120.248 59.0273 -180.345c1.375 -4.20801 2.875 -8.54102 5.26367 -12.1934c2.22266 -3.38867 5.51465 -8 8.68164 -8.29199c2.88867 -0.263672 7.09668 3.98633 9.19434 7.23633
c2.97266 4.58301 4.47266 10.1104 6.72266 15.1797c22.9443 51.749 45.9023 103.484 68.8877 155.22c4.05566 9.125 8.16699 18.2363 12.3193 27.333c5.56934 12.166 1.01367 18.1104 -11.375 21.583c-60.874 17.0693 -63.6514 21.0693 -64.0957 84.332
c-0.222656 30.0547 0.416016 59.6377 11.9434 88.4287c11.7363 29.3193 31.458 44.5693 63.166 44.375c33.3193 -0.208008 66.6523 -0.0410156 99.9717 -0.0410156z" />
    <glyph glyph-name="W" unicode="W" horiz-adv-x="1035" 
d="M195.957 692.721c0.0693359 -0.513672 0.09375 -1.03027 0.107422 -1.53027c25.5557 0 51.208 1.40234 76.6104 -0.514648c16.2217 -1.22266 32.541 -6.05566 47.9717 -11.6113c20.9023 -7.54199 31.8047 -24.5693 32.1797 -46.291
c0.680664 -38.8604 1.02832 -77.8184 -0.985352 -116.609c-1.88867 -36.3047 -9.69434 -44.4014 -46.3887 -52.6377c-15.0137 -3.375 -14.2773 -12.25 -11.0693 -22.1387c11.3057 -34.833 23.25 -69.4717 35.208 -104.097c4.69434 -13.6113 9.56934 -27.208 15.2637 -40.416
c3.44434 -8 9.63867 -9.23633 14.6807 -1.23633c4.70801 7.45801 8.875 15.416 12.2227 23.583c15.5557 38.0137 30.3467 76.3467 46.2773 114.207c6.73633 16.0273 6.18066 26.4443 -12.7217 32.8613c-25.5137 8.65234 -35.5967 28.6104 -34.124 54.7627
c2.06934 36.4854 2.06934 73.2764 7.23633 109.331c5.875 40.999 20.7217 52.999 61.8877 55.332c46.5273 2.63867 93.1514 3.68066 139.748 4.98633c11.0557 0.305664 22.333 -0.0693359 33.1943 -1.94434c37.9717 -6.58301 50.5273 -16.3047 54.8467 -55.499
c4.72168 -42.8047 5.01367 -86.3037 4.15234 -129.428c-0.513672 -25.7354 -9.08301 -31.374 -37.833 -37.0264c-21.333 -4.20801 -24.4854 -6.94434 -18.916 -25.5693c15.5693 -52.0967 32.2354 -103.86 49.0684 -155.568c1.79199 -5.5 7.47266 -9.73633 11.3477 -14.5557
c4.43066 4.45801 10.6387 8.13867 13.0137 13.5137c21.9854 49.749 43.916 99.54 64.5264 149.873c8.98633 21.9307 6.41699 25.9727 -16.4854 26.6953c-42.458 1.34766 -52.0273 19.4727 -51.2354 53.875c0.805664 35.2637 3.15332 71.0273 10.1953 105.472
c7.52734 36.8604 23.4434 47.0967 60.3877 50.541c61.041 5.70801 121.679 3.875 182.4 -5.5c30.0273 -4.63867 48.8604 -20.833 59.4297 -46.999c18.3057 -45.2637 13.917 -91.666 0.736328 -137.109c-2.54199 -8.79199 -13.959 -16.3477 -22.9863 -21.5
c-7.25 -4.13867 -17.0273 -4.95801 -25.749 -5.18066c-22.2637 -0.555664 -35.8047 -9.77734 -45.8047 -31.0127c-51.6523 -109.679 -97.916 -221.316 -131.916 -337.843c-4.63867 -15.8887 -11.5967 -31.166 -18.166 -46.4297
c-9.23633 -21.458 -25.958 -32.7354 -49.333 -33.458c-18.8613 -0.583008 -37.8057 0.222656 -56.6113 -1.01367c-27.291 -1.79199 -44.2773 11.2354 -54.3047 35.166c-12.4443 29.6797 -24.916 59.374 -36.624 89.3457c-10.0967 25.8467 -18.833 52.2217 -28.8887 78.0967
c-2.16699 5.59668 -7.41699 9.99902 -11.2363 14.957c-4.04199 -4.75 -9.66699 -8.875 -11.875 -14.3613c-19.541 -48.3887 -38.499 -96.999 -57.5957 -145.567c-2.44434 -6.19434 -4.52734 -12.541 -7.08301 -18.6934c-15.5557 -37.5967 -26.958 -44.9297 -68.4854 -43.874
c-13.3193 0.333008 -26.6943 2.06934 -39.9443 1.34668c-30.291 -1.66699 -51.4014 12.4854 -65.2344 37.6797c-9.02734 16.4443 -16.4717 33.9717 -22.7354 51.6797c-39.5693 111.984 -79.291 223.928 -117.305 336.44c-8.54199 25.2637 -20.5977 37.625 -48.3613 39.9727
c-43.874 3.69434 -56.79 19.208 -54.373 62.6523c1.97266 35.3193 6.84766 70.6104 12.75 105.526c5.13867 30.416 22.75 49.8877 55.9717 51.4707c34.333 1.63867 68.6377 3.875 102.957 5.84766z" />
    <glyph glyph-name="X" unicode="X" horiz-adv-x="781" 
d="M589.848 679.484c0.0136719 -0.361328 0.0283203 -0.696289 0.0419922 -1.04395c28.8604 0 57.7354 0.583008 86.582 -0.125c49.791 -1.23633 63.791 -11.9727 71.5547 -60.2773c5.26367 -32.708 8.44434 -66.1377 8.26367 -99.207
c-0.180664 -33.7217 -12.6387 -44.5967 -46.124 -49.624c-14.2637 -2.13867 -28.708 -5.98535 -42.8604 -5.24902c-21.7637 1.13867 -35.0967 -7.5 -45.374 -26.125c-15.5273 -28.166 -32.0547 -55.8877 -49.7764 -82.7207c-10.958 -16.583 -9.625 -29.916 2.13867 -45.0127
c18.416 -23.625 36.0684 -47.8887 53.2344 -72.4443c9.88867 -14.1523 22.2354 -19.6523 39.4717 -19.4854c16.4307 0.166992 33.042 -2.23535 49.292 -5.05469c22.8193 -3.97266 35.2217 -19.375 35.999 -41.6807c1.16699 -33.25 2.02832 -66.7217 -0.554688 -99.832
c-2.98633 -38.1797 -23.4023 -59.124 -61.9717 -61.6797c-65.249 -4.31934 -130.721 -7.22168 -196.095 -7.19434c-45.4023 0.0136719 -66.9023 20.8047 -72.1387 66.457c-4.29199 37.3887 -4.66699 75.2773 -5.66699 112.957c-0.416992 15.7637 2.88867 31.5273 18 40.7217
c10.542 6.41699 9.70898 13.3477 3.13965 21.667c-0.694336 0.875 -1.27734 1.88867 -2.13867 2.54102c-14.7217 11.2363 -29.4717 22.417 -44.2217 33.6113c-15.1113 -18.5967 -30.5273 -36.9717 -44.7773 -56.208c-1.16699 -1.58301 4.59668 -11.4717 8.97168 -13.4443
c20.1807 -9.11133 27.292 -24.5137 25.8896 -45.583c-2.27734 -34.2773 -2.55469 -68.791 -6.70703 -102.832c-4.13867 -33.9297 -20.5273 -49.3604 -54.5273 -52.1797c-55.2773 -4.58301 -110.735 -7.19434 -166.123 -10.3467
c-7.70801 -0.444336 -15.5273 0.472656 -23.249 1.22266c-60.416 5.77734 -89.291 35.9297 -91.8184 97.0127c-0.916992 22.1523 -1.41699 44.5127 0.555664 66.54c3.5 39.0273 18.708 52.499 57.499 54.3877c7.76367 0.375 15.583 0.958008 23.3047 0.360352
c17.166 -1.33301 29.457 5.75 39.8457 19.1387c22.4443 28.9443 45.333 57.5693 68.7773 85.708c10.167 12.208 10.5283 22.6797 1.55664 35.791c-18.8057 27.4717 -36.6943 55.582 -54.5 83.7207c-7.81934 12.3613 -18.333 18.375 -32.8887 19.0693
c-19.916 0.972656 -39.8047 4.26465 -59.6797 3.9873c-23.4023 -0.333008 -38.708 9.98633 -45.75 31.0557c-5.56934 16.6523 -9.98633 34.166 -11.4727 51.5967c-2.06934 24.2637 -1.72168 48.833 -0.929688 73.208c1.06934 32.6943 13.4023 46.4717 46.416 48.874
c32.0547 2.31934 64.3594 2.875 96.4844 1.875c50.999 -1.59766 101.942 -4.95898 152.9 -7.90332c28.3604 -1.63867 39.7627 -9.58301 47.29 -37.833c12.8467 -48.2354 8.22168 -96.8037 -1.23633 -145.108c-0.208008 -1.06934 -0.638672 -2.15234 -1.18066 -3.11035
c-5.13867 -9.19434 -16.916 -21.4863 -14.3184 -26.9727c8.90234 -18.7363 22.3604 -35.4727 35.3877 -51.9307c2.02734 -2.56934 13.374 -1.95801 16.2217 1.09766c9.77734 10.4717 18.9023 22.0273 25.7354 34.5693c2.75 5.06934 1.19434 15.2363 -2.31934 20.458
c-11.7773 17.5273 -15.1943 36.6387 -15.1113 56.9717c0.180664 41.083 0.0556641 82.166 0.694336 123.235c0.486328 30.9854 7.66699 38.8604 38.875 42.0684c23.125 2.375 46.4023 4.36133 69.624 4.38867c23.25 0.0273438 46.5 -2.61133 69.7637 -4.08398z" />
    <glyph glyph-name="Y" unicode="Y" horiz-adv-x="711" 
d="M360.077 3.25781c0.0273438 -1.06934 0.0400391 -2.1377 0.0400391 -3.20703c-33.291 0 -66.5957 0.194336 -99.8867 -0.0419922c-45.0273 -0.333008 -58.6523 10.334 -63.124 54.167c-3.94434 38.6104 -6.93066 77.415 -8.02832 116.206
c-1.02734 36.3887 7.18066 43.3057 42.9307 49.5557c14.4307 2.52734 33.542 -1.66699 41.292 15.3604c8.52734 18.7773 -7.47266 30.624 -17.3193 43.54c-38.3467 50.3467 -77.2764 100.276 -115.025 151.067c-12.6943 17.083 -25.4863 27.333 -49.0137 27.083
c-39.3047 -0.402344 -63.3457 17.0977 -64.248 59.583c-0.680664 32.1387 -4.72266 64.3467 -3.44531 96.374c2.01367 50.499 22.2217 70.2627 72.6377 71.415c59.9297 1.38867 119.929 1 179.872 -0.0419922c37.4443 -0.652344 52.1523 -13.458 57.4023 -51.1104
c7.48633 -53.583 4.83398 -106.568 -22.1104 -155.304c-6.47168 -11.7217 -6.61035 -20.3887 2.18164 -29.7354c0.763672 -0.805664 1.26367 -1.86133 2.08301 -2.59766c11.6943 -10.5693 17.8467 -33.3467 36.1377 -28.416c11.1387 3 20.7354 19.833 26.3184 32.5273
c3.70801 8.44434 0.5 20.9023 -2.04199 30.9443c-12.5693 49.5684 -10.125 99.0537 0.888672 148.22c4.41699 19.7363 17.584 33.7637 38.8057 36.375c35.1797 4.33301 70.4014 9.01367 105.762 11.0273c35.4443 2.01367 71.0693 1.66602 106.583 0.985352
c29.5273 -0.569336 43.9854 -10.125 49.832 -39.25c9.19434 -45.791 10.75 -92.582 1.44434 -138.734c-5.56934 -27.6807 -27.2217 -41.1523 -52.916 -43.3047c-30.0967 -2.52734 -51.041 -16.8604 -70.749 -38.0264c-34.791 -37.3887 -70.5957 -73.9023 -107.471 -109.249
c-17.1113 -16.4023 -20.3193 -35.9434 -21.9023 -57.1934c-1.25 -16.7217 6.98633 -23.333 23.083 -25.7217c67.124 -9.97168 67.249 -10.333 68.4297 -79.0684c0.458008 -26.6387 0.458008 -53.3193 -0.333984 -79.9443
c-0.361328 -12.0967 -2.13867 -24.374 -5.06934 -36.124c-6.02734 -24.1104 -12.0693 -30.124 -36.6104 -30.5127c-28.8057 -0.458008 -57.6523 2.06934 -86.499 3.09668c-9.95801 0.347656 -19.958 0.0556641 -29.9297 0.0556641z" />
    <glyph glyph-name="Y" unicode="&#xdd;" horiz-adv-x="711" 
d="M360.077 3.25781c0.0273438 -1.06934 0.0400391 -2.1377 0.0400391 -3.20703c-33.291 0 -66.5957 0.194336 -99.8867 -0.0419922c-45.0273 -0.333008 -58.6523 10.334 -63.124 54.167c-3.94434 38.6104 -6.93066 77.415 -8.02832 116.206
c-1.02734 36.3887 7.18066 43.3057 42.9307 49.5557c14.4307 2.52734 33.542 -1.66699 41.292 15.3604c8.52734 18.7773 -7.47266 30.624 -17.3193 43.54c-38.3467 50.3467 -77.2764 100.276 -115.025 151.067c-12.6943 17.083 -25.4863 27.333 -49.0137 27.083
c-39.3047 -0.402344 -63.3457 17.0977 -64.248 59.583c-0.680664 32.1387 -4.72266 64.3467 -3.44531 96.374c2.01367 50.499 22.2217 70.2627 72.6377 71.415c59.9297 1.38867 119.929 1 179.872 -0.0419922c37.4443 -0.652344 52.1523 -13.458 57.4023 -51.1104
c7.48633 -53.583 4.83398 -106.568 -22.1104 -155.304c-6.47168 -11.7217 -6.61035 -20.3887 2.18164 -29.7354c0.763672 -0.805664 1.26367 -1.86133 2.08301 -2.59766c11.6943 -10.5693 17.8467 -33.3467 36.1377 -28.416c11.1387 3 20.7354 19.833 26.3184 32.5273
c3.70801 8.44434 0.5 20.9023 -2.04199 30.9443c-12.5693 49.5684 -10.125 99.0537 0.888672 148.22c4.41699 19.7363 17.584 33.7637 38.8057 36.375c35.1797 4.33301 70.4014 9.01367 105.762 11.0273c35.4443 2.01367 71.0693 1.66602 106.583 0.985352
c29.5273 -0.569336 43.9854 -10.125 49.832 -39.25c9.19434 -45.791 10.75 -92.582 1.44434 -138.734c-5.56934 -27.6807 -27.2217 -41.1523 -52.916 -43.3047c-30.0967 -2.52734 -51.041 -16.8604 -70.749 -38.0264c-34.791 -37.3887 -70.5957 -73.9023 -107.471 -109.249
c-17.1113 -16.4023 -20.3193 -35.9434 -21.9023 -57.1934c-1.25 -16.7217 6.98633 -23.333 23.083 -25.7217c67.124 -9.97168 67.249 -10.333 68.4297 -79.0684c0.458008 -26.6387 0.458008 -53.3193 -0.333984 -79.9443
c-0.361328 -12.0967 -2.13867 -24.374 -5.06934 -36.124c-6.02734 -24.1104 -12.0693 -30.124 -36.6104 -30.5127c-28.8057 -0.458008 -57.6523 2.06934 -86.499 3.09668c-9.95801 0.347656 -19.958 0.0556641 -29.9297 0.0556641z" />
    <glyph glyph-name="Z" unicode="Z" horiz-adv-x="605" 
d="M363.814 5.95215c-0.0273438 -1.95801 -0.0566406 -3.95898 -0.0703125 -5.95898c-62.082 1.95801 -124.15 4.02734 -186.233 5.84668c-28.833 0.847656 -57.6934 1 -86.5264 1.90234c-11.0137 0.347656 -22.4443 0.264648 -32.9023 3.19531
c-19.041 5.33301 -28.2354 17.583 -27.333 40.5137c2 50.999 5.18066 101.984 9.51367 152.831c2.05566 24.1387 14.2637 44.0693 34.5273 58.416c19.916 14.1113 39.791 28.2773 59.5547 42.5967c61.999 44.9023 124.207 89.5127 185.623 135.206
c8.73633 6.5 13.4863 18.3467 20.0693 27.7217c-10.3057 2.22266 -20.8193 7.04199 -30.8613 6.20898c-40.8467 -3.375 -81.541 -8.70801 -122.332 -12.833c-12.5693 -1.27734 -16.6113 -8.80469 -18.209 -19.749c-2.23633 -15.3193 -4.02832 -30.8193 -7.76465 -45.791
c-4.08301 -16.3467 -15.583 -25.7217 -32.166 -30.2773c-26.041 -7.15234 -50.999 -2.47168 -74.832 6.95898c-21.416 8.48633 -26.791 29.0557 -27.3047 49.5967c-1.51367 60.999 -1.97168 122.012 -2.55469 183.039c-0.111328 11.083 0.486328 22.25 1.88867 33.2363
c4.06934 32 17.9443 44.4443 50.5273 45.1387c48.833 1.04199 97.666 1.65332 146.499 2.44531c86.541 1.40234 173.082 3.36035 259.622 3.79102c21.9717 0.111328 44.1934 -3.43066 65.8877 -7.54199c17.2217 -3.25 32.7354 -12.9307 32.3604 -32.7363
c-0.833008 -44.1797 -1.05566 -88.6787 -6.70801 -132.373c-5.36133 -41.3887 -30.7363 -71.6523 -64.9717 -96.499c-68.249 -49.5137 -134.748 -101.457 -201.72 -152.721c-10.542 -8.06934 -20.2783 -17.333 -29.4863 -26.916
c-12.25 -12.75 -10.5693 -19.5967 6.54199 -20.8193c28.7217 -2.06934 58.1523 -5.23633 86.3467 -1.26367c64.249 9.02734 61.332 -1.36133 57.4707 63.9854c-1.84766 31.1943 7.24902 41.4307 38.374 46.9863c1.08301 0.194336 2.20801 0.22168 3.30566 0.374023
c74.6104 10.9717 103.805 -13.5693 104.652 -88.8457c0.652344 -58.8467 0.763672 -117.693 0.708008 -176.54c-0.0419922 -46.8887 -12.875 -59.375 -58.541 -59.1807c-50.9854 0.222656 -101.971 0.0556641 -152.956 0.0556641z" />
    <glyph glyph-name="bracketleft" unicode="[" horiz-adv-x="290" 
d="M212.49 57.4473c16.958 -3.51367 36.9189 -6.80566 37.7666 -26.042c0.888672 -20 -5.04199 -41.291 -12.625 -60.166c-2.68066 -6.69434 -18.7637 -10.1943 -29.0967 -11.167c-18.708 -1.75 -37.6943 -0.5 -56.5557 -0.5v1.01367
c-18.875 0 -37.75 -0.25 -56.6113 0.0556641c-26.5137 0.430664 -44.4023 13.8467 -51.8193 38.832c-5.01367 16.8887 -8.16602 34.583 -9.87402 52.1523c-3.76367 38.6104 -8.25 77.3594 -8.58301 116.081c-1.16699 134.248 -1.63965 268.524 -0.181641 402.772
c0.347656 31.6943 8.02832 63.5273 14.4863 94.8604c8.27734 40.1387 35.7773 60.9854 75.3877 63.0967c39.8467 2.125 79.916 1.48633 119.832 0.444336c21.1387 -0.555664 31.4717 -14.3193 30.3467 -35.3887c-1.97266 -37.291 -20.5283 -61.1377 -57.583 -70.2344
c-18.0693 -4.43066 -26.958 -14.1523 -27.4443 -32.0273c-0.430664 -15.5273 -0.125 -31.0684 -0.263672 -46.6094c-0.611328 -72.124 -1.80566 -144.234 -1.76367 -216.358c0.0419922 -77.6797 0.875 -155.359 2.15234 -233.039
c0.444336 -26.8604 5.34668 -32.1797 32.4297 -37.7764z" />
    <glyph glyph-name="backslash" unicode="\" horiz-adv-x="361" 
d="M334.478 -5.58008c6.08301 -30.1523 -2.14062 -40.79 -32.9316 -42.7344c-5.51367 -0.347656 -11.083 -0.0556641 -23.2773 -0.0556641c-3.30566 0.347656 -13.1943 1.36133 -23.0967 2.40332c-41.083 4.34668 -66.6797 25.832 -76.666 66.623
c-11.5967 47.3467 -24.666 94.332 -36.916 141.512c-37.291 143.692 -74.5127 287.398 -111.707 431.104c-2.20801 8.55566 -4.77734 17.1387 -5.70801 25.875c-1.23633 11.4443 4.48535 20.2637 15.8877 21.708c27.2637 3.45801 54.3887 10.25 82.249 1.34766
c17.1387 -5.48633 29.6943 -14.8887 36.5 -31.166c5.54199 -13.25 10.625 -26.8057 14.5137 -40.625c52.208 -185.525 104.18 -371.106 156.193 -556.688c1.79199 -6.40234 3.65332 -12.8047 4.95898 -19.3047z" />
    <glyph glyph-name="bracketright" unicode="]" horiz-adv-x="307" 
d="M281.936 284.055c3.34766 -92.0547 -0.720703 -183.999 -22.29 -274.317c-10.9307 -45.624 -26.0693 -61.5264 -72.291 -62.5537c-40.7637 -0.902344 -81.791 2.375 -122.415 6.56934c-25.166 2.59766 -31.1377 12.042 -32.6104 37.8057
c-0.5 8.84668 -0.527344 17.7637 -0.0136719 26.6104c1.48633 25.791 10.833 37.1377 36.3887 44.7207c7.43066 2.20801 14.9023 4.34668 22.458 6.04102c13.8193 3.09766 20.8467 11.7227 21.791 25.5977c3.84766 56.374 10.5 112.734 10.8477 169.122
c0.555664 91.9854 -3.02734 183.984 -4.81934 275.983c-0.305664 15.5273 0.416992 31.124 -0.84668 46.5684c-1.86133 22.8057 -8.18066 29.0273 -29.9307 32.9443c-1.09766 0.194336 -2.20898 0.305664 -3.30664 0.40332
c-21.083 1.76367 -44.9297 1.47168 -54.7354 23.9854c-11.083 25.458 -5.48633 52.7773 4.09668 77.8047c2.65234 6.95801 15.2354 14.3467 23.249 14.3193c44.208 -0.125 89.041 1.58301 132.457 -5.11133c55.3467 -8.51367 75.4854 -34.6387 77.8047 -91.1514
c1.86133 -45.3887 0.375 -90.9297 0.375 -136.401c-1 -0.0693359 -2 -0.152344 -3 -0.22168c5.80566 -72.9014 14.1387 -145.706 16.791 -218.719z" />
    <glyph glyph-name="asciicircum" unicode="^" horiz-adv-x="370" 
d="M337.927 567.593c16.3887 -30.4854 6.30273 -46.959 -27.8496 -55.2363c-15.041 -3.63867 -30.499 -5.47168 -40.7627 -7.24902c-25.6104 -0.888672 -38.374 10.1807 -46.5264 27.5693c-6.11133 13.0273 -10.6807 26.833 -17.375 39.5273
c-6.63867 12.583 -14.2217 13.1943 -22.3604 1.43066c-8.15234 -11.792 -13.916 -25.1943 -21.2627 -37.583c-24.5557 -41.4023 -62.9854 -57.7217 -107.04 -45.7637c-29.583 8.02734 -38.5967 24.2354 -23.6523 48.1797c29.375 47.0137 59.6104 93.5547 91.1514 139.138
c23.458 33.9023 58.291 44.083 96.999 34.0967c16.2773 -4.19434 35.249 -13.208 44.5957 -26.1104c27.1807 -37.5693 52.125 -77.1387 74.083 -117.999z" />
    <glyph glyph-name="underscore" unicode="_" horiz-adv-x="437" 
d="M410.857 32.5859c8.27734 -47.4297 -12.5127 -77.6357 -60.4707 -85.4277c-21.833 -3.54199 -44.0967 -5.69434 -66.1934 -6.01367c-72.082 -1.06934 -144.179 -1.11133 -216.275 -1.31934c-32.8604 -0.0976562 -41.2627 7.91602 -43.624 40.2627
c-3.33301 45.5684 21.9023 75.3037 67.0264 76.3311c47.666 1.08301 95.374 0.235352 143.067 0.235352v2.41699c47.666 0 95.332 -0.277344 142.998 0.111328c23.9443 0.194336 29.458 -3.625 33.4717 -26.5967z" />
    <glyph glyph-name="a" unicode="a" horiz-adv-x="771" 
d="M604.184 4.50879c-23.8467 -2.25 -48.1943 -4.50195 -72.8604 -4.50195c-17.875 0 -35.916 1.18066 -54.0684 4.41699c-62.3604 11.1113 -88.0264 41.6113 -85.8184 101.958c0.944336 25.7637 5.40234 51.333 9.69434 76.083l1.41699 8.125
c3.80566 22.166 16.3613 37.082 35.792 42.999c-20.5273 2.125 -41.5967 3.23633 -59.9023 4.02832c-8.625 0.361328 -17.417 0.472656 -26.334 0.361328c38.3467 -21.5967 35.9023 -66.1377 35.0137 -82.5127c-1.58301 -28.7773 -3.48535 -56.874 -9.42969 -84.3594
c-6.97168 -32.3193 -31.166 -51.5137 -66.332 -52.6807c-17.833 -0.583008 -35.6523 -1.33301 -53.4854 -2.08301c-39.2773 -1.63867 -80.041 -2.80566 -119.971 -3.31934c-23.8057 0 -47.2217 6.48633 -68.9717 13.5c-29.3467 9.47168 -46.124 33.6934 -44.8604 64.8184
c1.58301 39.4443 4.02734 69.5137 7.90234 97.4854c3.86133 27.8604 20.2363 49.9297 46.0967 62.1514c73.9014 34.9297 102.165 105.623 129.498 173.997c4.30566 10.7637 5.58301 18.2217 3.80566 22.1523c-1.75 3.90234 -8.09668 7.83301 -18.8467 11.6797
c-38.041 13.6387 -54.6377 41.208 -49.3184 81.9297c3.34766 25.6523 7.73633 55.9717 14.917 86.4434c9.83301 41.8047 38.6797 67.8877 81.207 73.4297c30.041 3.91699 60.6104 5.83398 90.1797 7.68164l23.25 1.48633c9.45801 0.638672 18.8047 0.5 27.8877 0.333008
l0.180664 2.94434l13.875 -0.888672c13.3467 -0.861328 26.7354 -1.5 40.124 -2.13867c30.6523 -1.47266 62.332 -2.98633 93.4424 -7.19434c45.6387 -6.18066 69.3047 -31.2637 72.332 -76.6797c2.36133 -35.333 -0.125 -69.916 -3.375 -108.221
c-2.63867 -31.1943 -20.8467 -51.8467 -49.9717 -56.666c-8.125 -1.34766 -10.0273 -3.19531 -10.0547 -3.22266c0.0419922 0.125 0.222656 -2.80566 5.125 -13.1387c35.4023 -74.6934 70.416 -125.429 113.513 -164.498c11.0693 -10.0273 26.416 -19.124 46.9297 -27.8184
c31.4023 -13.3193 46.166 -36.0547 43.9023 -67.582c-0.666992 -9.23633 -1.16699 -18.5137 -1.66699 -27.7773c-1.41699 -26.125 -2.86133 -53.1387 -8.05566 -79.4717c-8.13867 -41.2637 -37.8887 -67.7773 -77.6104 -69.1943
c-18.2637 -0.652344 -37.0137 -2.38867 -55.1523 -4.05566zM324.937 264.698c11.417 0.736328 22.7773 1.1123 33.9717 1.1123c6.98633 0 13.9033 -0.152344 20.7227 -0.444336c22.1387 -0.944336 48.2637 -2.375 74.1797 -5.73633
c8.94434 -1.16699 15.0967 -7.22266 20.0547 -12.084c1.41699 -1.38867 2.80566 -2.80566 4.25 -3.94434l15.5557 -12.2637l-16.833 -10.4443c-1.47266 -0.916992 -2.93066 -2.05566 -4.38867 -3.18066c-4.93066 -3.77734 -11.083 -8.47168 -19.2217 -9.36035
c-13.8887 -1.51367 -20.8467 -8.23535 -23.3047 -22.4854l-1.41699 -8.18066c-4.13867 -23.8193 -8.41602 -48.458 -9.29102 -72.333c-1.70801 -46.333 14.1807 -64.9023 62.916 -73.5967c39.5273 -7.04199 78.374 -3.47266 119.513 0.34668
c18.5137 1.70801 37.6523 3.47168 56.708 4.16602c26.9443 0.958008 45.666 18.0273 51.3467 46.8184c4.80566 24.3887 6.20801 50.416 7.56934 75.582c0.513672 9.44434 1.01367 18.8887 1.69434 28.291c1.41699 19.6807 -6.41602 31.2637 -27.041 40.0137
c-23.4307 9.93066 -41.333 20.667 -54.7354 32.8193c-58.8467 53.3604 -95.0264 120.582 -119.957 173.192c-4.05566 8.55566 -11.5977 24.4863 -4.38965 38.2637c7.13867 13.6387 24.2773 16.4717 29.9023 17.4023c16.4863 2.72266 25.25 13.0557 26.8193 31.5967
c3.15234 37.1523 5.56934 70.624 3.34668 104.026c-2.16699 32.291 -15.7227 46.582 -48.3613 51.0127c-29.916 4.04199 -60.999 5.52832 -91.0537 6.97266c-8.86133 0.430664 -17.7227 0.861328 -26.584 1.34766l-0.0830078 -1.44434h-13.1523
c-4.26367 0 -8.52734 0.0693359 -12.791 0.152344c-9.11133 0.152344 -17.7227 0.304688 -26.2646 -0.264648l-23.375 -1.5c-29.1104 -1.81934 -59.207 -3.70801 -88.3174 -7.51367c-30.6797 -4 -50.6514 -22.0557 -57.7627 -52.2354
c-6.90234 -29.2637 -11.1523 -58.7217 -14.416 -83.666c-3.63867 -27.833 5.38867 -42.9443 31.1523 -52.1807c12.7217 -4.56934 28.166 -11.6807 34.8047 -26.4307c6.65234 -14.791 1.70801 -31.2217 -3.34766 -43.874
c-27.9717 -69.9434 -59.6514 -149.22 -143.442 -188.816c-17.3613 -8.19434 -27.8887 -22.3193 -30.4443 -40.833c-3.75 -27.041 -6.11133 -56.2764 -7.66699 -94.8037c-0.75 -18.7217 8.11133 -31.5967 25.6387 -37.249c19.583 -6.31934 40.4717 -12.1523 60.458 -12.1523
h0.486328c39.3467 0 79.499 1.68066 118.318 3.29199c17.916 0.75 35.8184 1.5 53.7207 2.09766c22.3604 0.736328 35.8604 11.0977 40.1104 30.7783c5.5 25.5 7.31934 52.4023 8.84668 80.0127c2.125 38.8887 -9.20801 57.1943 -39.1523 63.208
c-6.90234 1.38867 -11.2217 6.16602 -14.0693 9.33301c-0.597656 0.652344 -1.16699 1.34668 -1.79199 1.88867l-12.542 11.125l13.2637 10.2637c0.888672 0.680664 1.73633 1.56934 2.61133 2.41699c3.875 3.77734 9.19434 8.95801 17.2363 9.48535zM428.351 355.226
c-7.11133 -10.9307 -19.4707 -17.165 -33.957 -17.165h-0.541992c-12.792 0.138672 -22.209 4.05566 -27.959 11.6387c-5.625 7.43066 -6.88867 17.125 -3.72168 28.8193c2.93066 10.9443 6.56934 20.0967 11.083 27.958c3.51367 6.13867 8.13867 11.208 12.2217 15.6797
c1.55566 1.70801 3.11133 3.40234 4.58398 5.15234l11.0137 13.125l10.5557 -13.5137c1.48633 -1.91699 3.13867 -3.76465 4.76367 -5.6123c4.36133 -4.93066 9.30566 -10.5273 12.5283 -17.6523c8.09668 -17.8193 7.87402 -35.4717 -0.570312 -48.4297zM388.283 366.283
c0.0273438 0.0419922 0.0839844 0.0429688 0.125977 0.0429688c0.583008 0 2.36035 -0.458008 5.74902 -0.5c5.47168 -0.166992 8.94434 1.48535 10.958 4.58301c3.06934 4.69434 2.5 13.041 -1.45801 21.7773c-0.722656 1.58301 -1.82031 3.23535 -3.15332 4.94336
c-1.20801 -1.51367 -2.29102 -3.01367 -3.13867 -4.5c-3.31934 -5.77734 -6.05566 -12.749 -8.36133 -21.3604c-0.75 -2.79199 -0.763672 -4.33398 -0.72168 -4.98633z" />
    <glyph glyph-name="a" unicode="&#xe5;" horiz-adv-x="771" 
d="M604.184 4.50879c-23.8467 -2.25 -48.1943 -4.50195 -72.8604 -4.50195c-17.875 0 -35.916 1.18066 -54.0684 4.41699c-62.3604 11.1113 -88.0264 41.6113 -85.8184 101.958c0.944336 25.7637 5.40234 51.333 9.69434 76.083l1.41699 8.125
c3.80566 22.166 16.3613 37.082 35.792 42.999c-20.5273 2.125 -41.5967 3.23633 -59.9023 4.02832c-8.625 0.361328 -17.417 0.472656 -26.334 0.361328c38.3467 -21.5967 35.9023 -66.1377 35.0137 -82.5127c-1.58301 -28.7773 -3.48535 -56.874 -9.42969 -84.3594
c-6.97168 -32.3193 -31.166 -51.5137 -66.332 -52.6807c-17.833 -0.583008 -35.6523 -1.33301 -53.4854 -2.08301c-39.2773 -1.63867 -80.041 -2.80566 -119.971 -3.31934c-23.8057 0 -47.2217 6.48633 -68.9717 13.5c-29.3467 9.47168 -46.124 33.6934 -44.8604 64.8184
c1.58301 39.4443 4.02734 69.5137 7.90234 97.4854c3.86133 27.8604 20.2363 49.9297 46.0967 62.1514c73.9014 34.9297 102.165 105.623 129.498 173.997c4.30566 10.7637 5.58301 18.2217 3.80566 22.1523c-1.75 3.90234 -8.09668 7.83301 -18.8467 11.6797
c-38.041 13.6387 -54.6377 41.208 -49.3184 81.9297c3.34766 25.6523 7.73633 55.9717 14.917 86.4434c9.83301 41.8047 38.6797 67.8877 81.207 73.4297c30.041 3.91699 60.6104 5.83398 90.1797 7.68164l23.25 1.48633c9.45801 0.638672 18.8047 0.5 27.8877 0.333008
l0.180664 2.94434l13.875 -0.888672c13.3467 -0.861328 26.7354 -1.5 40.124 -2.13867c30.6523 -1.47266 62.332 -2.98633 93.4424 -7.19434c45.6387 -6.18066 69.3047 -31.2637 72.332 -76.6797c2.36133 -35.333 -0.125 -69.916 -3.375 -108.221
c-2.63867 -31.1943 -20.8467 -51.8467 -49.9717 -56.666c-8.125 -1.34766 -10.0273 -3.19531 -10.0547 -3.22266c0.0419922 0.125 0.222656 -2.80566 5.125 -13.1387c35.4023 -74.6934 70.416 -125.429 113.513 -164.498c11.0693 -10.0273 26.416 -19.124 46.9297 -27.8184
c31.4023 -13.3193 46.166 -36.0547 43.9023 -67.582c-0.666992 -9.23633 -1.16699 -18.5137 -1.66699 -27.7773c-1.41699 -26.125 -2.86133 -53.1387 -8.05566 -79.4717c-8.13867 -41.2637 -37.8887 -67.7773 -77.6104 -69.1943
c-18.2637 -0.652344 -37.0137 -2.38867 -55.1523 -4.05566zM324.937 264.698c11.417 0.736328 22.7773 1.1123 33.9717 1.1123c6.98633 0 13.9033 -0.152344 20.7227 -0.444336c22.1387 -0.944336 48.2637 -2.375 74.1797 -5.73633
c8.94434 -1.16699 15.0967 -7.22266 20.0547 -12.084c1.41699 -1.38867 2.80566 -2.80566 4.25 -3.94434l15.5557 -12.2637l-16.833 -10.4443c-1.47266 -0.916992 -2.93066 -2.05566 -4.38867 -3.18066c-4.93066 -3.77734 -11.083 -8.47168 -19.2217 -9.36035
c-13.8887 -1.51367 -20.8467 -8.23535 -23.3047 -22.4854l-1.41699 -8.18066c-4.13867 -23.8193 -8.41602 -48.458 -9.29102 -72.333c-1.70801 -46.333 14.1807 -64.9023 62.916 -73.5967c39.5273 -7.04199 78.374 -3.47266 119.513 0.34668
c18.5137 1.70801 37.6523 3.47168 56.708 4.16602c26.9443 0.958008 45.666 18.0273 51.3467 46.8184c4.80566 24.3887 6.20801 50.416 7.56934 75.582c0.513672 9.44434 1.01367 18.8887 1.69434 28.291c1.41699 19.6807 -6.41602 31.2637 -27.041 40.0137
c-23.4307 9.93066 -41.333 20.667 -54.7354 32.8193c-58.8467 53.3604 -95.0264 120.582 -119.957 173.192c-4.05566 8.55566 -11.5977 24.4863 -4.38965 38.2637c7.13867 13.6387 24.2773 16.4717 29.9023 17.4023c16.4863 2.72266 25.25 13.0557 26.8193 31.5967
c3.15234 37.1523 5.56934 70.624 3.34668 104.026c-2.16699 32.291 -15.7227 46.582 -48.3613 51.0127c-29.916 4.04199 -60.999 5.52832 -91.0537 6.97266c-8.86133 0.430664 -17.7227 0.861328 -26.584 1.34766l-0.0830078 -1.44434h-13.1523
c-4.26367 0 -8.52734 0.0693359 -12.791 0.152344c-9.11133 0.152344 -17.7227 0.304688 -26.2646 -0.264648l-23.375 -1.5c-29.1104 -1.81934 -59.207 -3.70801 -88.3174 -7.51367c-30.6797 -4 -50.6514 -22.0557 -57.7627 -52.2354
c-6.90234 -29.2637 -11.1523 -58.7217 -14.416 -83.666c-3.63867 -27.833 5.38867 -42.9443 31.1523 -52.1807c12.7217 -4.56934 28.166 -11.6807 34.8047 -26.4307c6.65234 -14.791 1.70801 -31.2217 -3.34766 -43.874
c-27.9717 -69.9434 -59.6514 -149.22 -143.442 -188.816c-17.3613 -8.19434 -27.8887 -22.3193 -30.4443 -40.833c-3.75 -27.041 -6.11133 -56.2764 -7.66699 -94.8037c-0.75 -18.7217 8.11133 -31.5967 25.6387 -37.249c19.583 -6.31934 40.4717 -12.1523 60.458 -12.1523
h0.486328c39.3467 0 79.499 1.68066 118.318 3.29199c17.916 0.75 35.8184 1.5 53.7207 2.09766c22.3604 0.736328 35.8604 11.0977 40.1104 30.7783c5.5 25.5 7.31934 52.4023 8.84668 80.0127c2.125 38.8887 -9.20801 57.1943 -39.1523 63.208
c-6.90234 1.38867 -11.2217 6.16602 -14.0693 9.33301c-0.597656 0.652344 -1.16699 1.34668 -1.79199 1.88867l-12.542 11.125l13.2637 10.2637c0.888672 0.680664 1.73633 1.56934 2.61133 2.41699c3.875 3.77734 9.19434 8.95801 17.2363 9.48535zM428.351 355.226
c-7.11133 -10.9307 -19.4707 -17.165 -33.957 -17.165h-0.541992c-12.792 0.138672 -22.209 4.05566 -27.959 11.6387c-5.625 7.43066 -6.88867 17.125 -3.72168 28.8193c2.93066 10.9443 6.56934 20.0967 11.083 27.958c3.51367 6.13867 8.13867 11.208 12.2217 15.6797
c1.55566 1.70801 3.11133 3.40234 4.58398 5.15234l11.0137 13.125l10.5557 -13.5137c1.48633 -1.91699 3.13867 -3.76465 4.76367 -5.6123c4.36133 -4.93066 9.30566 -10.5273 12.5283 -17.6523c8.09668 -17.8193 7.87402 -35.4717 -0.570312 -48.4297zM388.283 366.283
c0.0273438 0.0419922 0.0839844 0.0429688 0.125977 0.0429688c0.583008 0 2.36035 -0.458008 5.74902 -0.5c5.47168 -0.166992 8.94434 1.48535 10.958 4.58301c3.06934 4.69434 2.5 13.041 -1.45801 21.7773c-0.722656 1.58301 -1.82031 3.23535 -3.15332 4.94336
c-1.20801 -1.51367 -2.29102 -3.01367 -3.13867 -4.5c-3.31934 -5.77734 -6.05566 -12.749 -8.36133 -21.3604c-0.75 -2.79199 -0.763672 -4.33398 -0.72168 -4.98633z" />
    <glyph glyph-name="a" unicode="&#xe4;" horiz-adv-x="771" 
d="M604.184 4.50879c-23.8467 -2.25 -48.1943 -4.50195 -72.8604 -4.50195c-17.875 0 -35.916 1.18066 -54.0684 4.41699c-62.3604 11.1113 -88.0264 41.6113 -85.8184 101.958c0.944336 25.7637 5.40234 51.333 9.69434 76.083l1.41699 8.125
c3.80566 22.166 16.3613 37.082 35.792 42.999c-20.5273 2.125 -41.5967 3.23633 -59.9023 4.02832c-8.625 0.361328 -17.417 0.472656 -26.334 0.361328c38.3467 -21.5967 35.9023 -66.1377 35.0137 -82.5127c-1.58301 -28.7773 -3.48535 -56.874 -9.42969 -84.3594
c-6.97168 -32.3193 -31.166 -51.5137 -66.332 -52.6807c-17.833 -0.583008 -35.6523 -1.33301 -53.4854 -2.08301c-39.2773 -1.63867 -80.041 -2.80566 -119.971 -3.31934c-23.8057 0 -47.2217 6.48633 -68.9717 13.5c-29.3467 9.47168 -46.124 33.6934 -44.8604 64.8184
c1.58301 39.4443 4.02734 69.5137 7.90234 97.4854c3.86133 27.8604 20.2363 49.9297 46.0967 62.1514c73.9014 34.9297 102.165 105.623 129.498 173.997c4.30566 10.7637 5.58301 18.2217 3.80566 22.1523c-1.75 3.90234 -8.09668 7.83301 -18.8467 11.6797
c-38.041 13.6387 -54.6377 41.208 -49.3184 81.9297c3.34766 25.6523 7.73633 55.9717 14.917 86.4434c9.83301 41.8047 38.6797 67.8877 81.207 73.4297c30.041 3.91699 60.6104 5.83398 90.1797 7.68164l23.25 1.48633c9.45801 0.638672 18.8047 0.5 27.8877 0.333008
l0.180664 2.94434l13.875 -0.888672c13.3467 -0.861328 26.7354 -1.5 40.124 -2.13867c30.6523 -1.47266 62.332 -2.98633 93.4424 -7.19434c45.6387 -6.18066 69.3047 -31.2637 72.332 -76.6797c2.36133 -35.333 -0.125 -69.916 -3.375 -108.221
c-2.63867 -31.1943 -20.8467 -51.8467 -49.9717 -56.666c-8.125 -1.34766 -10.0273 -3.19531 -10.0547 -3.22266c0.0419922 0.125 0.222656 -2.80566 5.125 -13.1387c35.4023 -74.6934 70.416 -125.429 113.513 -164.498c11.0693 -10.0273 26.416 -19.124 46.9297 -27.8184
c31.4023 -13.3193 46.166 -36.0547 43.9023 -67.582c-0.666992 -9.23633 -1.16699 -18.5137 -1.66699 -27.7773c-1.41699 -26.125 -2.86133 -53.1387 -8.05566 -79.4717c-8.13867 -41.2637 -37.8887 -67.7773 -77.6104 -69.1943
c-18.2637 -0.652344 -37.0137 -2.38867 -55.1523 -4.05566zM324.937 264.698c11.417 0.736328 22.7773 1.1123 33.9717 1.1123c6.98633 0 13.9033 -0.152344 20.7227 -0.444336c22.1387 -0.944336 48.2637 -2.375 74.1797 -5.73633
c8.94434 -1.16699 15.0967 -7.22266 20.0547 -12.084c1.41699 -1.38867 2.80566 -2.80566 4.25 -3.94434l15.5557 -12.2637l-16.833 -10.4443c-1.47266 -0.916992 -2.93066 -2.05566 -4.38867 -3.18066c-4.93066 -3.77734 -11.083 -8.47168 -19.2217 -9.36035
c-13.8887 -1.51367 -20.8467 -8.23535 -23.3047 -22.4854l-1.41699 -8.18066c-4.13867 -23.8193 -8.41602 -48.458 -9.29102 -72.333c-1.70801 -46.333 14.1807 -64.9023 62.916 -73.5967c39.5273 -7.04199 78.374 -3.47266 119.513 0.34668
c18.5137 1.70801 37.6523 3.47168 56.708 4.16602c26.9443 0.958008 45.666 18.0273 51.3467 46.8184c4.80566 24.3887 6.20801 50.416 7.56934 75.582c0.513672 9.44434 1.01367 18.8887 1.69434 28.291c1.41699 19.6807 -6.41602 31.2637 -27.041 40.0137
c-23.4307 9.93066 -41.333 20.667 -54.7354 32.8193c-58.8467 53.3604 -95.0264 120.582 -119.957 173.192c-4.05566 8.55566 -11.5977 24.4863 -4.38965 38.2637c7.13867 13.6387 24.2773 16.4717 29.9023 17.4023c16.4863 2.72266 25.25 13.0557 26.8193 31.5967
c3.15234 37.1523 5.56934 70.624 3.34668 104.026c-2.16699 32.291 -15.7227 46.582 -48.3613 51.0127c-29.916 4.04199 -60.999 5.52832 -91.0537 6.97266c-8.86133 0.430664 -17.7227 0.861328 -26.584 1.34766l-0.0830078 -1.44434h-13.1523
c-4.26367 0 -8.52734 0.0693359 -12.791 0.152344c-9.11133 0.152344 -17.7227 0.304688 -26.2646 -0.264648l-23.375 -1.5c-29.1104 -1.81934 -59.207 -3.70801 -88.3174 -7.51367c-30.6797 -4 -50.6514 -22.0557 -57.7627 -52.2354
c-6.90234 -29.2637 -11.1523 -58.7217 -14.416 -83.666c-3.63867 -27.833 5.38867 -42.9443 31.1523 -52.1807c12.7217 -4.56934 28.166 -11.6807 34.8047 -26.4307c6.65234 -14.791 1.70801 -31.2217 -3.34766 -43.874
c-27.9717 -69.9434 -59.6514 -149.22 -143.442 -188.816c-17.3613 -8.19434 -27.8887 -22.3193 -30.4443 -40.833c-3.75 -27.041 -6.11133 -56.2764 -7.66699 -94.8037c-0.75 -18.7217 8.11133 -31.5967 25.6387 -37.249c19.583 -6.31934 40.4717 -12.1523 60.458 -12.1523
h0.486328c39.3467 0 79.499 1.68066 118.318 3.29199c17.916 0.75 35.8184 1.5 53.7207 2.09766c22.3604 0.736328 35.8604 11.0977 40.1104 30.7783c5.5 25.5 7.31934 52.4023 8.84668 80.0127c2.125 38.8887 -9.20801 57.1943 -39.1523 63.208
c-6.90234 1.38867 -11.2217 6.16602 -14.0693 9.33301c-0.597656 0.652344 -1.16699 1.34668 -1.79199 1.88867l-12.542 11.125l13.2637 10.2637c0.888672 0.680664 1.73633 1.56934 2.61133 2.41699c3.875 3.77734 9.19434 8.95801 17.2363 9.48535zM428.351 355.226
c-7.11133 -10.9307 -19.4707 -17.165 -33.957 -17.165h-0.541992c-12.792 0.138672 -22.209 4.05566 -27.959 11.6387c-5.625 7.43066 -6.88867 17.125 -3.72168 28.8193c2.93066 10.9443 6.56934 20.0967 11.083 27.958c3.51367 6.13867 8.13867 11.208 12.2217 15.6797
c1.55566 1.70801 3.11133 3.40234 4.58398 5.15234l11.0137 13.125l10.5557 -13.5137c1.48633 -1.91699 3.13867 -3.76465 4.76367 -5.6123c4.36133 -4.93066 9.30566 -10.5273 12.5283 -17.6523c8.09668 -17.8193 7.87402 -35.4717 -0.570312 -48.4297zM388.283 366.283
c0.0273438 0.0419922 0.0839844 0.0429688 0.125977 0.0429688c0.583008 0 2.36035 -0.458008 5.74902 -0.5c5.47168 -0.166992 8.94434 1.48535 10.958 4.58301c3.06934 4.69434 2.5 13.041 -1.45801 21.7773c-0.722656 1.58301 -1.82031 3.23535 -3.15332 4.94336
c-1.20801 -1.51367 -2.29102 -3.01367 -3.13867 -4.5c-3.31934 -5.77734 -6.05566 -12.749 -8.36133 -21.3604c-0.75 -2.79199 -0.763672 -4.33398 -0.72168 -4.98633z" />
    <glyph glyph-name="a" unicode="&#xe3;" horiz-adv-x="771" 
d="M604.184 4.50879c-23.8467 -2.25 -48.1943 -4.50195 -72.8604 -4.50195c-17.875 0 -35.916 1.18066 -54.0684 4.41699c-62.3604 11.1113 -88.0264 41.6113 -85.8184 101.958c0.944336 25.7637 5.40234 51.333 9.69434 76.083l1.41699 8.125
c3.80566 22.166 16.3613 37.082 35.792 42.999c-20.5273 2.125 -41.5967 3.23633 -59.9023 4.02832c-8.625 0.361328 -17.417 0.472656 -26.334 0.361328c38.3467 -21.5967 35.9023 -66.1377 35.0137 -82.5127c-1.58301 -28.7773 -3.48535 -56.874 -9.42969 -84.3594
c-6.97168 -32.3193 -31.166 -51.5137 -66.332 -52.6807c-17.833 -0.583008 -35.6523 -1.33301 -53.4854 -2.08301c-39.2773 -1.63867 -80.041 -2.80566 -119.971 -3.31934c-23.8057 0 -47.2217 6.48633 -68.9717 13.5c-29.3467 9.47168 -46.124 33.6934 -44.8604 64.8184
c1.58301 39.4443 4.02734 69.5137 7.90234 97.4854c3.86133 27.8604 20.2363 49.9297 46.0967 62.1514c73.9014 34.9297 102.165 105.623 129.498 173.997c4.30566 10.7637 5.58301 18.2217 3.80566 22.1523c-1.75 3.90234 -8.09668 7.83301 -18.8467 11.6797
c-38.041 13.6387 -54.6377 41.208 -49.3184 81.9297c3.34766 25.6523 7.73633 55.9717 14.917 86.4434c9.83301 41.8047 38.6797 67.8877 81.207 73.4297c30.041 3.91699 60.6104 5.83398 90.1797 7.68164l23.25 1.48633c9.45801 0.638672 18.8047 0.5 27.8877 0.333008
l0.180664 2.94434l13.875 -0.888672c13.3467 -0.861328 26.7354 -1.5 40.124 -2.13867c30.6523 -1.47266 62.332 -2.98633 93.4424 -7.19434c45.6387 -6.18066 69.3047 -31.2637 72.332 -76.6797c2.36133 -35.333 -0.125 -69.916 -3.375 -108.221
c-2.63867 -31.1943 -20.8467 -51.8467 -49.9717 -56.666c-8.125 -1.34766 -10.0273 -3.19531 -10.0547 -3.22266c0.0419922 0.125 0.222656 -2.80566 5.125 -13.1387c35.4023 -74.6934 70.416 -125.429 113.513 -164.498c11.0693 -10.0273 26.416 -19.124 46.9297 -27.8184
c31.4023 -13.3193 46.166 -36.0547 43.9023 -67.582c-0.666992 -9.23633 -1.16699 -18.5137 -1.66699 -27.7773c-1.41699 -26.125 -2.86133 -53.1387 -8.05566 -79.4717c-8.13867 -41.2637 -37.8887 -67.7773 -77.6104 -69.1943
c-18.2637 -0.652344 -37.0137 -2.38867 -55.1523 -4.05566zM324.937 264.698c11.417 0.736328 22.7773 1.1123 33.9717 1.1123c6.98633 0 13.9033 -0.152344 20.7227 -0.444336c22.1387 -0.944336 48.2637 -2.375 74.1797 -5.73633
c8.94434 -1.16699 15.0967 -7.22266 20.0547 -12.084c1.41699 -1.38867 2.80566 -2.80566 4.25 -3.94434l15.5557 -12.2637l-16.833 -10.4443c-1.47266 -0.916992 -2.93066 -2.05566 -4.38867 -3.18066c-4.93066 -3.77734 -11.083 -8.47168 -19.2217 -9.36035
c-13.8887 -1.51367 -20.8467 -8.23535 -23.3047 -22.4854l-1.41699 -8.18066c-4.13867 -23.8193 -8.41602 -48.458 -9.29102 -72.333c-1.70801 -46.333 14.1807 -64.9023 62.916 -73.5967c39.5273 -7.04199 78.374 -3.47266 119.513 0.34668
c18.5137 1.70801 37.6523 3.47168 56.708 4.16602c26.9443 0.958008 45.666 18.0273 51.3467 46.8184c4.80566 24.3887 6.20801 50.416 7.56934 75.582c0.513672 9.44434 1.01367 18.8887 1.69434 28.291c1.41699 19.6807 -6.41602 31.2637 -27.041 40.0137
c-23.4307 9.93066 -41.333 20.667 -54.7354 32.8193c-58.8467 53.3604 -95.0264 120.582 -119.957 173.192c-4.05566 8.55566 -11.5977 24.4863 -4.38965 38.2637c7.13867 13.6387 24.2773 16.4717 29.9023 17.4023c16.4863 2.72266 25.25 13.0557 26.8193 31.5967
c3.15234 37.1523 5.56934 70.624 3.34668 104.026c-2.16699 32.291 -15.7227 46.582 -48.3613 51.0127c-29.916 4.04199 -60.999 5.52832 -91.0537 6.97266c-8.86133 0.430664 -17.7227 0.861328 -26.584 1.34766l-0.0830078 -1.44434h-13.1523
c-4.26367 0 -8.52734 0.0693359 -12.791 0.152344c-9.11133 0.152344 -17.7227 0.304688 -26.2646 -0.264648l-23.375 -1.5c-29.1104 -1.81934 -59.207 -3.70801 -88.3174 -7.51367c-30.6797 -4 -50.6514 -22.0557 -57.7627 -52.2354
c-6.90234 -29.2637 -11.1523 -58.7217 -14.416 -83.666c-3.63867 -27.833 5.38867 -42.9443 31.1523 -52.1807c12.7217 -4.56934 28.166 -11.6807 34.8047 -26.4307c6.65234 -14.791 1.70801 -31.2217 -3.34766 -43.874
c-27.9717 -69.9434 -59.6514 -149.22 -143.442 -188.816c-17.3613 -8.19434 -27.8887 -22.3193 -30.4443 -40.833c-3.75 -27.041 -6.11133 -56.2764 -7.66699 -94.8037c-0.75 -18.7217 8.11133 -31.5967 25.6387 -37.249c19.583 -6.31934 40.4717 -12.1523 60.458 -12.1523
h0.486328c39.3467 0 79.499 1.68066 118.318 3.29199c17.916 0.75 35.8184 1.5 53.7207 2.09766c22.3604 0.736328 35.8604 11.0977 40.1104 30.7783c5.5 25.5 7.31934 52.4023 8.84668 80.0127c2.125 38.8887 -9.20801 57.1943 -39.1523 63.208
c-6.90234 1.38867 -11.2217 6.16602 -14.0693 9.33301c-0.597656 0.652344 -1.16699 1.34668 -1.79199 1.88867l-12.542 11.125l13.2637 10.2637c0.888672 0.680664 1.73633 1.56934 2.61133 2.41699c3.875 3.77734 9.19434 8.95801 17.2363 9.48535zM428.351 355.226
c-7.11133 -10.9307 -19.4707 -17.165 -33.957 -17.165h-0.541992c-12.792 0.138672 -22.209 4.05566 -27.959 11.6387c-5.625 7.43066 -6.88867 17.125 -3.72168 28.8193c2.93066 10.9443 6.56934 20.0967 11.083 27.958c3.51367 6.13867 8.13867 11.208 12.2217 15.6797
c1.55566 1.70801 3.11133 3.40234 4.58398 5.15234l11.0137 13.125l10.5557 -13.5137c1.48633 -1.91699 3.13867 -3.76465 4.76367 -5.6123c4.36133 -4.93066 9.30566 -10.5273 12.5283 -17.6523c8.09668 -17.8193 7.87402 -35.4717 -0.570312 -48.4297zM388.283 366.283
c0.0273438 0.0419922 0.0839844 0.0429688 0.125977 0.0429688c0.583008 0 2.36035 -0.458008 5.74902 -0.5c5.47168 -0.166992 8.94434 1.48535 10.958 4.58301c3.06934 4.69434 2.5 13.041 -1.45801 21.7773c-0.722656 1.58301 -1.82031 3.23535 -3.15332 4.94336
c-1.20801 -1.51367 -2.29102 -3.01367 -3.13867 -4.5c-3.31934 -5.77734 -6.05566 -12.749 -8.36133 -21.3604c-0.75 -2.79199 -0.763672 -4.33398 -0.72168 -4.98633z" />
    <glyph glyph-name="a" unicode="&#xe2;" horiz-adv-x="771" 
d="M604.184 4.50879c-23.8467 -2.25 -48.1943 -4.50195 -72.8604 -4.50195c-17.875 0 -35.916 1.18066 -54.0684 4.41699c-62.3604 11.1113 -88.0264 41.6113 -85.8184 101.958c0.944336 25.7637 5.40234 51.333 9.69434 76.083l1.41699 8.125
c3.80566 22.166 16.3613 37.082 35.792 42.999c-20.5273 2.125 -41.5967 3.23633 -59.9023 4.02832c-8.625 0.361328 -17.417 0.472656 -26.334 0.361328c38.3467 -21.5967 35.9023 -66.1377 35.0137 -82.5127c-1.58301 -28.7773 -3.48535 -56.874 -9.42969 -84.3594
c-6.97168 -32.3193 -31.166 -51.5137 -66.332 -52.6807c-17.833 -0.583008 -35.6523 -1.33301 -53.4854 -2.08301c-39.2773 -1.63867 -80.041 -2.80566 -119.971 -3.31934c-23.8057 0 -47.2217 6.48633 -68.9717 13.5c-29.3467 9.47168 -46.124 33.6934 -44.8604 64.8184
c1.58301 39.4443 4.02734 69.5137 7.90234 97.4854c3.86133 27.8604 20.2363 49.9297 46.0967 62.1514c73.9014 34.9297 102.165 105.623 129.498 173.997c4.30566 10.7637 5.58301 18.2217 3.80566 22.1523c-1.75 3.90234 -8.09668 7.83301 -18.8467 11.6797
c-38.041 13.6387 -54.6377 41.208 -49.3184 81.9297c3.34766 25.6523 7.73633 55.9717 14.917 86.4434c9.83301 41.8047 38.6797 67.8877 81.207 73.4297c30.041 3.91699 60.6104 5.83398 90.1797 7.68164l23.25 1.48633c9.45801 0.638672 18.8047 0.5 27.8877 0.333008
l0.180664 2.94434l13.875 -0.888672c13.3467 -0.861328 26.7354 -1.5 40.124 -2.13867c30.6523 -1.47266 62.332 -2.98633 93.4424 -7.19434c45.6387 -6.18066 69.3047 -31.2637 72.332 -76.6797c2.36133 -35.333 -0.125 -69.916 -3.375 -108.221
c-2.63867 -31.1943 -20.8467 -51.8467 -49.9717 -56.666c-8.125 -1.34766 -10.0273 -3.19531 -10.0547 -3.22266c0.0419922 0.125 0.222656 -2.80566 5.125 -13.1387c35.4023 -74.6934 70.416 -125.429 113.513 -164.498c11.0693 -10.0273 26.416 -19.124 46.9297 -27.8184
c31.4023 -13.3193 46.166 -36.0547 43.9023 -67.582c-0.666992 -9.23633 -1.16699 -18.5137 -1.66699 -27.7773c-1.41699 -26.125 -2.86133 -53.1387 -8.05566 -79.4717c-8.13867 -41.2637 -37.8887 -67.7773 -77.6104 -69.1943
c-18.2637 -0.652344 -37.0137 -2.38867 -55.1523 -4.05566zM324.937 264.698c11.417 0.736328 22.7773 1.1123 33.9717 1.1123c6.98633 0 13.9033 -0.152344 20.7227 -0.444336c22.1387 -0.944336 48.2637 -2.375 74.1797 -5.73633
c8.94434 -1.16699 15.0967 -7.22266 20.0547 -12.084c1.41699 -1.38867 2.80566 -2.80566 4.25 -3.94434l15.5557 -12.2637l-16.833 -10.4443c-1.47266 -0.916992 -2.93066 -2.05566 -4.38867 -3.18066c-4.93066 -3.77734 -11.083 -8.47168 -19.2217 -9.36035
c-13.8887 -1.51367 -20.8467 -8.23535 -23.3047 -22.4854l-1.41699 -8.18066c-4.13867 -23.8193 -8.41602 -48.458 -9.29102 -72.333c-1.70801 -46.333 14.1807 -64.9023 62.916 -73.5967c39.5273 -7.04199 78.374 -3.47266 119.513 0.34668
c18.5137 1.70801 37.6523 3.47168 56.708 4.16602c26.9443 0.958008 45.666 18.0273 51.3467 46.8184c4.80566 24.3887 6.20801 50.416 7.56934 75.582c0.513672 9.44434 1.01367 18.8887 1.69434 28.291c1.41699 19.6807 -6.41602 31.2637 -27.041 40.0137
c-23.4307 9.93066 -41.333 20.667 -54.7354 32.8193c-58.8467 53.3604 -95.0264 120.582 -119.957 173.192c-4.05566 8.55566 -11.5977 24.4863 -4.38965 38.2637c7.13867 13.6387 24.2773 16.4717 29.9023 17.4023c16.4863 2.72266 25.25 13.0557 26.8193 31.5967
c3.15234 37.1523 5.56934 70.624 3.34668 104.026c-2.16699 32.291 -15.7227 46.582 -48.3613 51.0127c-29.916 4.04199 -60.999 5.52832 -91.0537 6.97266c-8.86133 0.430664 -17.7227 0.861328 -26.584 1.34766l-0.0830078 -1.44434h-13.1523
c-4.26367 0 -8.52734 0.0693359 -12.791 0.152344c-9.11133 0.152344 -17.7227 0.304688 -26.2646 -0.264648l-23.375 -1.5c-29.1104 -1.81934 -59.207 -3.70801 -88.3174 -7.51367c-30.6797 -4 -50.6514 -22.0557 -57.7627 -52.2354
c-6.90234 -29.2637 -11.1523 -58.7217 -14.416 -83.666c-3.63867 -27.833 5.38867 -42.9443 31.1523 -52.1807c12.7217 -4.56934 28.166 -11.6807 34.8047 -26.4307c6.65234 -14.791 1.70801 -31.2217 -3.34766 -43.874
c-27.9717 -69.9434 -59.6514 -149.22 -143.442 -188.816c-17.3613 -8.19434 -27.8887 -22.3193 -30.4443 -40.833c-3.75 -27.041 -6.11133 -56.2764 -7.66699 -94.8037c-0.75 -18.7217 8.11133 -31.5967 25.6387 -37.249c19.583 -6.31934 40.4717 -12.1523 60.458 -12.1523
h0.486328c39.3467 0 79.499 1.68066 118.318 3.29199c17.916 0.75 35.8184 1.5 53.7207 2.09766c22.3604 0.736328 35.8604 11.0977 40.1104 30.7783c5.5 25.5 7.31934 52.4023 8.84668 80.0127c2.125 38.8887 -9.20801 57.1943 -39.1523 63.208
c-6.90234 1.38867 -11.2217 6.16602 -14.0693 9.33301c-0.597656 0.652344 -1.16699 1.34668 -1.79199 1.88867l-12.542 11.125l13.2637 10.2637c0.888672 0.680664 1.73633 1.56934 2.61133 2.41699c3.875 3.77734 9.19434 8.95801 17.2363 9.48535zM428.351 355.226
c-7.11133 -10.9307 -19.4707 -17.165 -33.957 -17.165h-0.541992c-12.792 0.138672 -22.209 4.05566 -27.959 11.6387c-5.625 7.43066 -6.88867 17.125 -3.72168 28.8193c2.93066 10.9443 6.56934 20.0967 11.083 27.958c3.51367 6.13867 8.13867 11.208 12.2217 15.6797
c1.55566 1.70801 3.11133 3.40234 4.58398 5.15234l11.0137 13.125l10.5557 -13.5137c1.48633 -1.91699 3.13867 -3.76465 4.76367 -5.6123c4.36133 -4.93066 9.30566 -10.5273 12.5283 -17.6523c8.09668 -17.8193 7.87402 -35.4717 -0.570312 -48.4297zM388.283 366.283
c0.0273438 0.0419922 0.0839844 0.0429688 0.125977 0.0429688c0.583008 0 2.36035 -0.458008 5.74902 -0.5c5.47168 -0.166992 8.94434 1.48535 10.958 4.58301c3.06934 4.69434 2.5 13.041 -1.45801 21.7773c-0.722656 1.58301 -1.82031 3.23535 -3.15332 4.94336
c-1.20801 -1.51367 -2.29102 -3.01367 -3.13867 -4.5c-3.31934 -5.77734 -6.05566 -12.749 -8.36133 -21.3604c-0.75 -2.79199 -0.763672 -4.33398 -0.72168 -4.98633z" />
    <glyph glyph-name="a" unicode="&#xe1;" horiz-adv-x="771" 
d="M604.184 4.50879c-23.8467 -2.25 -48.1943 -4.50195 -72.8604 -4.50195c-17.875 0 -35.916 1.18066 -54.0684 4.41699c-62.3604 11.1113 -88.0264 41.6113 -85.8184 101.958c0.944336 25.7637 5.40234 51.333 9.69434 76.083l1.41699 8.125
c3.80566 22.166 16.3613 37.082 35.792 42.999c-20.5273 2.125 -41.5967 3.23633 -59.9023 4.02832c-8.625 0.361328 -17.417 0.472656 -26.334 0.361328c38.3467 -21.5967 35.9023 -66.1377 35.0137 -82.5127c-1.58301 -28.7773 -3.48535 -56.874 -9.42969 -84.3594
c-6.97168 -32.3193 -31.166 -51.5137 -66.332 -52.6807c-17.833 -0.583008 -35.6523 -1.33301 -53.4854 -2.08301c-39.2773 -1.63867 -80.041 -2.80566 -119.971 -3.31934c-23.8057 0 -47.2217 6.48633 -68.9717 13.5c-29.3467 9.47168 -46.124 33.6934 -44.8604 64.8184
c1.58301 39.4443 4.02734 69.5137 7.90234 97.4854c3.86133 27.8604 20.2363 49.9297 46.0967 62.1514c73.9014 34.9297 102.165 105.623 129.498 173.997c4.30566 10.7637 5.58301 18.2217 3.80566 22.1523c-1.75 3.90234 -8.09668 7.83301 -18.8467 11.6797
c-38.041 13.6387 -54.6377 41.208 -49.3184 81.9297c3.34766 25.6523 7.73633 55.9717 14.917 86.4434c9.83301 41.8047 38.6797 67.8877 81.207 73.4297c30.041 3.91699 60.6104 5.83398 90.1797 7.68164l23.25 1.48633c9.45801 0.638672 18.8047 0.5 27.8877 0.333008
l0.180664 2.94434l13.875 -0.888672c13.3467 -0.861328 26.7354 -1.5 40.124 -2.13867c30.6523 -1.47266 62.332 -2.98633 93.4424 -7.19434c45.6387 -6.18066 69.3047 -31.2637 72.332 -76.6797c2.36133 -35.333 -0.125 -69.916 -3.375 -108.221
c-2.63867 -31.1943 -20.8467 -51.8467 -49.9717 -56.666c-8.125 -1.34766 -10.0273 -3.19531 -10.0547 -3.22266c0.0419922 0.125 0.222656 -2.80566 5.125 -13.1387c35.4023 -74.6934 70.416 -125.429 113.513 -164.498c11.0693 -10.0273 26.416 -19.124 46.9297 -27.8184
c31.4023 -13.3193 46.166 -36.0547 43.9023 -67.582c-0.666992 -9.23633 -1.16699 -18.5137 -1.66699 -27.7773c-1.41699 -26.125 -2.86133 -53.1387 -8.05566 -79.4717c-8.13867 -41.2637 -37.8887 -67.7773 -77.6104 -69.1943
c-18.2637 -0.652344 -37.0137 -2.38867 -55.1523 -4.05566zM324.937 264.698c11.417 0.736328 22.7773 1.1123 33.9717 1.1123c6.98633 0 13.9033 -0.152344 20.7227 -0.444336c22.1387 -0.944336 48.2637 -2.375 74.1797 -5.73633
c8.94434 -1.16699 15.0967 -7.22266 20.0547 -12.084c1.41699 -1.38867 2.80566 -2.80566 4.25 -3.94434l15.5557 -12.2637l-16.833 -10.4443c-1.47266 -0.916992 -2.93066 -2.05566 -4.38867 -3.18066c-4.93066 -3.77734 -11.083 -8.47168 -19.2217 -9.36035
c-13.8887 -1.51367 -20.8467 -8.23535 -23.3047 -22.4854l-1.41699 -8.18066c-4.13867 -23.8193 -8.41602 -48.458 -9.29102 -72.333c-1.70801 -46.333 14.1807 -64.9023 62.916 -73.5967c39.5273 -7.04199 78.374 -3.47266 119.513 0.34668
c18.5137 1.70801 37.6523 3.47168 56.708 4.16602c26.9443 0.958008 45.666 18.0273 51.3467 46.8184c4.80566 24.3887 6.20801 50.416 7.56934 75.582c0.513672 9.44434 1.01367 18.8887 1.69434 28.291c1.41699 19.6807 -6.41602 31.2637 -27.041 40.0137
c-23.4307 9.93066 -41.333 20.667 -54.7354 32.8193c-58.8467 53.3604 -95.0264 120.582 -119.957 173.192c-4.05566 8.55566 -11.5977 24.4863 -4.38965 38.2637c7.13867 13.6387 24.2773 16.4717 29.9023 17.4023c16.4863 2.72266 25.25 13.0557 26.8193 31.5967
c3.15234 37.1523 5.56934 70.624 3.34668 104.026c-2.16699 32.291 -15.7227 46.582 -48.3613 51.0127c-29.916 4.04199 -60.999 5.52832 -91.0537 6.97266c-8.86133 0.430664 -17.7227 0.861328 -26.584 1.34766l-0.0830078 -1.44434h-13.1523
c-4.26367 0 -8.52734 0.0693359 -12.791 0.152344c-9.11133 0.152344 -17.7227 0.304688 -26.2646 -0.264648l-23.375 -1.5c-29.1104 -1.81934 -59.207 -3.70801 -88.3174 -7.51367c-30.6797 -4 -50.6514 -22.0557 -57.7627 -52.2354
c-6.90234 -29.2637 -11.1523 -58.7217 -14.416 -83.666c-3.63867 -27.833 5.38867 -42.9443 31.1523 -52.1807c12.7217 -4.56934 28.166 -11.6807 34.8047 -26.4307c6.65234 -14.791 1.70801 -31.2217 -3.34766 -43.874
c-27.9717 -69.9434 -59.6514 -149.22 -143.442 -188.816c-17.3613 -8.19434 -27.8887 -22.3193 -30.4443 -40.833c-3.75 -27.041 -6.11133 -56.2764 -7.66699 -94.8037c-0.75 -18.7217 8.11133 -31.5967 25.6387 -37.249c19.583 -6.31934 40.4717 -12.1523 60.458 -12.1523
h0.486328c39.3467 0 79.499 1.68066 118.318 3.29199c17.916 0.75 35.8184 1.5 53.7207 2.09766c22.3604 0.736328 35.8604 11.0977 40.1104 30.7783c5.5 25.5 7.31934 52.4023 8.84668 80.0127c2.125 38.8887 -9.20801 57.1943 -39.1523 63.208
c-6.90234 1.38867 -11.2217 6.16602 -14.0693 9.33301c-0.597656 0.652344 -1.16699 1.34668 -1.79199 1.88867l-12.542 11.125l13.2637 10.2637c0.888672 0.680664 1.73633 1.56934 2.61133 2.41699c3.875 3.77734 9.19434 8.95801 17.2363 9.48535zM428.351 355.226
c-7.11133 -10.9307 -19.4707 -17.165 -33.957 -17.165h-0.541992c-12.792 0.138672 -22.209 4.05566 -27.959 11.6387c-5.625 7.43066 -6.88867 17.125 -3.72168 28.8193c2.93066 10.9443 6.56934 20.0967 11.083 27.958c3.51367 6.13867 8.13867 11.208 12.2217 15.6797
c1.55566 1.70801 3.11133 3.40234 4.58398 5.15234l11.0137 13.125l10.5557 -13.5137c1.48633 -1.91699 3.13867 -3.76465 4.76367 -5.6123c4.36133 -4.93066 9.30566 -10.5273 12.5283 -17.6523c8.09668 -17.8193 7.87402 -35.4717 -0.570312 -48.4297zM388.283 366.283
c0.0273438 0.0419922 0.0839844 0.0429688 0.125977 0.0429688c0.583008 0 2.36035 -0.458008 5.74902 -0.5c5.47168 -0.166992 8.94434 1.48535 10.958 4.58301c3.06934 4.69434 2.5 13.041 -1.45801 21.7773c-0.722656 1.58301 -1.82031 3.23535 -3.15332 4.94336
c-1.20801 -1.51367 -2.29102 -3.01367 -3.13867 -4.5c-3.31934 -5.77734 -6.05566 -12.749 -8.36133 -21.3604c-0.75 -2.79199 -0.763672 -4.33398 -0.72168 -4.98633z" />
    <glyph glyph-name="a" unicode="&#xe0;" horiz-adv-x="771" 
d="M604.184 4.50879c-23.8467 -2.25 -48.1943 -4.50195 -72.8604 -4.50195c-17.875 0 -35.916 1.18066 -54.0684 4.41699c-62.3604 11.1113 -88.0264 41.6113 -85.8184 101.958c0.944336 25.7637 5.40234 51.333 9.69434 76.083l1.41699 8.125
c3.80566 22.166 16.3613 37.082 35.792 42.999c-20.5273 2.125 -41.5967 3.23633 -59.9023 4.02832c-8.625 0.361328 -17.417 0.472656 -26.334 0.361328c38.3467 -21.5967 35.9023 -66.1377 35.0137 -82.5127c-1.58301 -28.7773 -3.48535 -56.874 -9.42969 -84.3594
c-6.97168 -32.3193 -31.166 -51.5137 -66.332 -52.6807c-17.833 -0.583008 -35.6523 -1.33301 -53.4854 -2.08301c-39.2773 -1.63867 -80.041 -2.80566 -119.971 -3.31934c-23.8057 0 -47.2217 6.48633 -68.9717 13.5c-29.3467 9.47168 -46.124 33.6934 -44.8604 64.8184
c1.58301 39.4443 4.02734 69.5137 7.90234 97.4854c3.86133 27.8604 20.2363 49.9297 46.0967 62.1514c73.9014 34.9297 102.165 105.623 129.498 173.997c4.30566 10.7637 5.58301 18.2217 3.80566 22.1523c-1.75 3.90234 -8.09668 7.83301 -18.8467 11.6797
c-38.041 13.6387 -54.6377 41.208 -49.3184 81.9297c3.34766 25.6523 7.73633 55.9717 14.917 86.4434c9.83301 41.8047 38.6797 67.8877 81.207 73.4297c30.041 3.91699 60.6104 5.83398 90.1797 7.68164l23.25 1.48633c9.45801 0.638672 18.8047 0.5 27.8877 0.333008
l0.180664 2.94434l13.875 -0.888672c13.3467 -0.861328 26.7354 -1.5 40.124 -2.13867c30.6523 -1.47266 62.332 -2.98633 93.4424 -7.19434c45.6387 -6.18066 69.3047 -31.2637 72.332 -76.6797c2.36133 -35.333 -0.125 -69.916 -3.375 -108.221
c-2.63867 -31.1943 -20.8467 -51.8467 -49.9717 -56.666c-8.125 -1.34766 -10.0273 -3.19531 -10.0547 -3.22266c0.0419922 0.125 0.222656 -2.80566 5.125 -13.1387c35.4023 -74.6934 70.416 -125.429 113.513 -164.498c11.0693 -10.0273 26.416 -19.124 46.9297 -27.8184
c31.4023 -13.3193 46.166 -36.0547 43.9023 -67.582c-0.666992 -9.23633 -1.16699 -18.5137 -1.66699 -27.7773c-1.41699 -26.125 -2.86133 -53.1387 -8.05566 -79.4717c-8.13867 -41.2637 -37.8887 -67.7773 -77.6104 -69.1943
c-18.2637 -0.652344 -37.0137 -2.38867 -55.1523 -4.05566zM324.937 264.698c11.417 0.736328 22.7773 1.1123 33.9717 1.1123c6.98633 0 13.9033 -0.152344 20.7227 -0.444336c22.1387 -0.944336 48.2637 -2.375 74.1797 -5.73633
c8.94434 -1.16699 15.0967 -7.22266 20.0547 -12.084c1.41699 -1.38867 2.80566 -2.80566 4.25 -3.94434l15.5557 -12.2637l-16.833 -10.4443c-1.47266 -0.916992 -2.93066 -2.05566 -4.38867 -3.18066c-4.93066 -3.77734 -11.083 -8.47168 -19.2217 -9.36035
c-13.8887 -1.51367 -20.8467 -8.23535 -23.3047 -22.4854l-1.41699 -8.18066c-4.13867 -23.8193 -8.41602 -48.458 -9.29102 -72.333c-1.70801 -46.333 14.1807 -64.9023 62.916 -73.5967c39.5273 -7.04199 78.374 -3.47266 119.513 0.34668
c18.5137 1.70801 37.6523 3.47168 56.708 4.16602c26.9443 0.958008 45.666 18.0273 51.3467 46.8184c4.80566 24.3887 6.20801 50.416 7.56934 75.582c0.513672 9.44434 1.01367 18.8887 1.69434 28.291c1.41699 19.6807 -6.41602 31.2637 -27.041 40.0137
c-23.4307 9.93066 -41.333 20.667 -54.7354 32.8193c-58.8467 53.3604 -95.0264 120.582 -119.957 173.192c-4.05566 8.55566 -11.5977 24.4863 -4.38965 38.2637c7.13867 13.6387 24.2773 16.4717 29.9023 17.4023c16.4863 2.72266 25.25 13.0557 26.8193 31.5967
c3.15234 37.1523 5.56934 70.624 3.34668 104.026c-2.16699 32.291 -15.7227 46.582 -48.3613 51.0127c-29.916 4.04199 -60.999 5.52832 -91.0537 6.97266c-8.86133 0.430664 -17.7227 0.861328 -26.584 1.34766l-0.0830078 -1.44434h-13.1523
c-4.26367 0 -8.52734 0.0693359 -12.791 0.152344c-9.11133 0.152344 -17.7227 0.304688 -26.2646 -0.264648l-23.375 -1.5c-29.1104 -1.81934 -59.207 -3.70801 -88.3174 -7.51367c-30.6797 -4 -50.6514 -22.0557 -57.7627 -52.2354
c-6.90234 -29.2637 -11.1523 -58.7217 -14.416 -83.666c-3.63867 -27.833 5.38867 -42.9443 31.1523 -52.1807c12.7217 -4.56934 28.166 -11.6807 34.8047 -26.4307c6.65234 -14.791 1.70801 -31.2217 -3.34766 -43.874
c-27.9717 -69.9434 -59.6514 -149.22 -143.442 -188.816c-17.3613 -8.19434 -27.8887 -22.3193 -30.4443 -40.833c-3.75 -27.041 -6.11133 -56.2764 -7.66699 -94.8037c-0.75 -18.7217 8.11133 -31.5967 25.6387 -37.249c19.583 -6.31934 40.4717 -12.1523 60.458 -12.1523
h0.486328c39.3467 0 79.499 1.68066 118.318 3.29199c17.916 0.75 35.8184 1.5 53.7207 2.09766c22.3604 0.736328 35.8604 11.0977 40.1104 30.7783c5.5 25.5 7.31934 52.4023 8.84668 80.0127c2.125 38.8887 -9.20801 57.1943 -39.1523 63.208
c-6.90234 1.38867 -11.2217 6.16602 -14.0693 9.33301c-0.597656 0.652344 -1.16699 1.34668 -1.79199 1.88867l-12.542 11.125l13.2637 10.2637c0.888672 0.680664 1.73633 1.56934 2.61133 2.41699c3.875 3.77734 9.19434 8.95801 17.2363 9.48535zM428.351 355.226
c-7.11133 -10.9307 -19.4707 -17.165 -33.957 -17.165h-0.541992c-12.792 0.138672 -22.209 4.05566 -27.959 11.6387c-5.625 7.43066 -6.88867 17.125 -3.72168 28.8193c2.93066 10.9443 6.56934 20.0967 11.083 27.958c3.51367 6.13867 8.13867 11.208 12.2217 15.6797
c1.55566 1.70801 3.11133 3.40234 4.58398 5.15234l11.0137 13.125l10.5557 -13.5137c1.48633 -1.91699 3.13867 -3.76465 4.76367 -5.6123c4.36133 -4.93066 9.30566 -10.5273 12.5283 -17.6523c8.09668 -17.8193 7.87402 -35.4717 -0.570312 -48.4297zM388.283 366.283
c0.0273438 0.0419922 0.0839844 0.0429688 0.125977 0.0429688c0.583008 0 2.36035 -0.458008 5.74902 -0.5c5.47168 -0.166992 8.94434 1.48535 10.958 4.58301c3.06934 4.69434 2.5 13.041 -1.45801 21.7773c-0.722656 1.58301 -1.82031 3.23535 -3.15332 4.94336
c-1.20801 -1.51367 -2.29102 -3.01367 -3.13867 -4.5c-3.31934 -5.77734 -6.05566 -12.749 -8.36133 -21.3604c-0.75 -2.79199 -0.763672 -4.33398 -0.72168 -4.98633z" />
    <glyph glyph-name="b" unicode="b" horiz-adv-x="659" 
d="M323.748 0.398438c-14.25 -0.208008 -28.709 -0.401367 -43.25 -0.401367c-19.0967 0 -38.3467 0.333008 -57.458 1.45801c-31.125 1.81934 -62.2217 6.90234 -92.3047 11.8193c-9.11133 1.48633 -18.208 2.97266 -27.3047 4.375
c-34.416 5.27734 -54.7354 27.291 -57.2217 61.9854l-0.916992 12.8057c-2.61133 36.2217 -5.31934 73.6797 -6.08301 110.734c-0.722656 34.8887 11.6523 62.3193 37.8184 83.8604c35.3604 29.125 42.6797 73.0547 45.3184 116.207
c0.777344 12.708 -0.764648 25.791 -2.38965 39.6523c-0.708008 6.01367 -1.41602 12.0137 -1.92969 18c-0.694336 7.98633 -3.80566 14.042 -16.667 17.5283l-1.58301 0.430664c-13.7217 3.72266 -27.916 7.56934 -41.4297 13.708
c-23.2354 10.5557 -35.4023 29.125 -34.2773 52.3057l0.916992 20.4443c1.125 26.291 2.29199 53.457 5.98633 80.165c2.19434 15.7217 9.51367 32.874 21.75 51.0127c16.3057 24.1523 39.9307 36.5273 68.208 35.4854c33.875 -1.11133 67.7637 -1.86133 101.666 -2.61133
c56.1377 -1.25 114.192 -2.52734 171.289 -5.5c63.3604 -3.29199 117.957 -22.6943 162.262 -57.666c50.1523 -39.583 66.083 -91.5684 47.3613 -154.498c-14.708 -49.3887 -35.0137 -86.083 -63.9297 -115.472c-0.902344 -0.930664 -2.58301 -2.625 -4.13867 -4.30566
c1.97266 -1.43066 4.18066 -2.91699 5.59766 -3.88965c46.333 -31.5 69.124 -79.416 85.29 -122.124c9.56934 -25.2773 10.2363 -52.2354 1.93066 -77.9854c-38.9443 -120.609 -105.041 -176.539 -214.345 -181.345c-10.4863 -0.458008 -20.9727 -1.125 -31.459 -1.77734
l-1.79199 -0.111328v-3.90234h-13.8887c-14.333 0 -28.6797 -0.194336 -43.0264 -0.388672zM119.986 704.182c-0.652344 0.0556641 -1.36426 0.0703125 -2.04492 0.0703125c-17.791 0 -31.5967 -7.63867 -42.1934 -23.3047
c-9.70801 -14.3887 -15.6797 -27.9717 -17.2627 -39.291c-3.52734 -25.4023 -4.65234 -51.9023 -5.75 -77.5273l-0.916992 -20.625c-0.208008 -4.22168 -0.833008 -17.083 18.0137 -25.6523c11.4717 -5.20801 23.9717 -8.61035 37.208 -12.1934l1.58301 -0.430664
c28.2637 -7.66699 35.75 -27.0283 37.0557 -41.917c0.5 -5.72168 1.16699 -11.4434 1.84766 -17.165c1.69434 -14.4717 3.45801 -29.416 2.52734 -44.5967c-2.875 -47.041 -11.708 -99.9844 -55.3877 -135.956c-19.4307 -16 -28.2363 -35.6523 -27.6943 -61.8467
c0.75 -36.333 3.43066 -73.4297 6.01367 -109.305l0.916992 -12.833c1.54199 -21.6104 12.2637 -33.2217 33.7217 -36.5137c9.19434 -1.41699 18.375 -2.90332 27.5557 -4.41699c29.375 -4.80566 59.75 -9.76367 89.4443 -11.5137
c32.6387 -1.91699 66.2217 -1.45898 98.707 -1.01465c9.86133 0.125 19.7363 0.263672 29.5977 0.333008l0.0136719 2.33301l27.7354 1.66699c10.6523 0.666992 21.3047 1.33398 31.9717 1.80664c97.249 4.27734 153.817 52.7627 189.122 162.122
c6.36133 19.6807 5.84766 40.291 -1.45801 59.6104c-15.375 40.6104 -35.083 81.915 -74.9297 108.998c-10.8467 7.375 -19.4023 13.1943 -20.458 23.8467c-1.05566 10.6807 6.65234 18.5137 14.8047 26.8057c25.5967 26.041 43.749 59.0547 57.1104 103.929
c15.375 51.666 2.97266 92.4854 -37.9434 124.763c-40.249 31.791 -88.1787 48.707 -146.483 51.7344c-56.708 2.94434 -114.541 4.23633 -170.471 5.47266c-33.9854 0.75 -67.9854 1.5 -101.957 2.61133zM412.867 259.55
c-28.0137 -19.6113 -59.9561 -29.8027 -93.0947 -29.8027c-4.36133 0 -8.75 0.180664 -13.1523 0.541992c-21.6387 1.73633 -35.7637 15.3613 -38.75 37.3467c-0.944336 6.97168 -1.36133 14.0273 -1.625 18.6523l-0.236328 4.30566
c0 20.4717 0.847656 36.9717 11.459 47.5547c9.83301 9.80566 24.7217 10.708 37.749 10.5273c26.4023 -0.0693359 53.8877 -3.05566 81.6934 -8.84766c13.3887 -2.79199 34.1797 -17.2783 36.2627 -33.6113c2.04199 -15.8613 -7.44434 -37.667 -20.3057 -46.667z
M297.079 318.469c-3.22266 -3.22266 -3.29297 -21.0146 -3.29297 -27.4863l0.194336 -3.13867c0.236328 -4.08301 0.569336 -10.3193 1.40234 -16.4863c1.41699 -10.333 6.40332 -12.833 13.4727 -13.4023c31.7217 -2.56934 61.3604 5.625 88.082 24.3467
c4.56934 3.18066 9.43066 14.6113 8.68066 20.375c-1 2.18066 -9.125 8.86133 -14.3887 9.95898c-25.9717 5.41699 -51.5684 8.19434 -76.0957 8.26367c-13.666 -0.0830078 -17.124 -1.51367 -18.0547 -2.43066zM382.479 446.521
c-23.9307 -20.333 -51.998 -24.957 -75.4424 -24.957c-6.88867 0 -13.3604 0.402344 -19.2354 0.916016c-14.416 1.26367 -23.3047 18.3047 -25.499 24.7627c-2.55566 7.48633 -2.04199 14.8193 -1.58398 21.3057c0.138672 2.04199 0.291016 4.09766 0.291016 6.11133
c-0.430664 39.0967 10.708 52.666 47.6377 58.0547c13.4443 1.95801 33.8057 3.20801 54.458 -2.02832c20.041 -5.06934 34.374 -18.2637 38.332 -35.3047c3.97168 -17.125 -3.11133 -35.3887 -18.958 -48.8604zM288.594 456.189
c0.722656 -2.11133 2.58496 -4.8457 3.8623 -6.2207c32.4297 -2.52734 54.665 2.95898 72.04 17.7227c7.88867 6.69434 11.4863 14.5 9.88867 21.4023c-1.58301 6.81934 -8.16602 12.1523 -18.083 14.666c-12.6523 3.20801 -28.1523 3.73535 -43.6387 1.45801
c-22.4854 -3.27734 -24.1797 -4.13867 -23.874 -30.333v-0.166992c0 -2.65234 -0.180664 -5.38867 -0.361328 -8.11133c-0.291992 -4.05566 -0.583984 -8.23633 0.166016 -10.417z" />
    <glyph glyph-name="c" unicode="c" horiz-adv-x="656" 
d="M394.198 10.3564c-27.041 -6.86133 -54.498 -10.2764 -82.5537 -10.2764c-50.041 0 -101.984 10.9023 -156.997 32.8047c-58.3047 23.2354 -95.3457 66.5127 -110.067 128.637c-16.4443 69.4014 -19.542 140.692 -20.4033 201.289
c-1.58301 65.3184 7.56934 129.748 27.2217 191.539c36.666 115.207 153.373 165.65 249.663 156.095c44.833 -4.48633 83.2354 -18.25 117.249 -42.083c2.375 30.2217 10.3613 49.9434 24.9863 61.8457c21.3467 17.375 52.4014 12.792 77.3867 9.08398
c24.333 -3.59668 47.0547 -13.8604 69.0127 -23.791l6.41699 -2.88867c12.0967 -5.43066 21.291 -19.1943 25.041 -30.4307c5.20801 -15.583 11.6943 -34.9854 10.4863 -53.957c-4.625 -72.8467 -9.31934 -146.776 -39.2217 -216.414
c-17.1387 -39.9443 -44.8887 -58.7637 -84.416 -57.166c-5.83301 0.222656 -11.666 0.361328 -17.499 0.5c-12.9717 0.305664 -26.3877 0.638672 -39.7344 1.79102c-35.6387 3.06934 -49.7637 17.1943 -52.083 52.083c-1.63867 24.5137 -12.7354 41.8193 -36.0127 56.1104
c-12 7.36133 -21.875 7.43066 -29.3057 0.166992c-23.1104 -22.541 -47.3047 -47.1104 -67.707 -74.1514c-15.8193 -20.958 -13.6113 -46.9717 -8.98633 -65.1104c5.69434 -22.2773 13.0967 -42.1797 22.0273 -59.1104c9.97168 -18.916 27.7627 -30.4717 48.8037 -31.6943
c21.5 -1.27734 41.75 8.90332 54.2637 27.1533c10.2363 14.9307 19.0557 31.6943 27.583 47.9023l2.97266 5.63867c15.541 29.458 39.3184 42.5967 70.582 39c9.19434 -1.05566 18.416 -1.90332 27.6377 -2.75098c14.8887 -1.38867 30.3047 -2.80566 45.5127 -5.05566
c28.2354 -4.18066 45.4717 -12.4863 55.874 -26.9307c10.1807 -14.1387 12.708 -33.208 7.95801 -60.041c-24.041 -135.817 -97.8594 -217.524 -225.691 -249.788zM298.34 682.821c-6.875 0.666992 -13.8604 1.01074 -20.9023 1.01074
c-80.4434 0 -169.97 -44.916 -199.553 -137.915c-18.7363 -58.8467 -27.458 -120.249 -25.9307 -182.498v-0.138672c0.833008 -59.1104 3.81934 -128.54 19.666 -195.358c12.6943 -53.5273 43.208 -89.2627 93.3184 -109.221
c81.3457 -32.4023 152.039 -39.2217 222.511 -21.4307c116.096 29.291 183.192 103.776 205.123 227.691c3.30566 18.6943 2.29199 31.4443 -3.13867 38.9717c-5.58301 7.75 -17.4717 12.7363 -37.4023 15.6943c-14.4717 2.13867 -29.4854 3.52734 -44.0127 4.875
c-9.41699 0.875 -18.834 1.73633 -28.2227 2.81934c-19.833 2.26367 -32.6797 -5.01367 -42.874 -24.3604l-2.94434 -5.59668c-8.90234 -16.9307 -18.1104 -34.4307 -29.2627 -50.6807c-18.0693 -26.3467 -47.4443 -41.0547 -78.7773 -39.1797
c-30.5273 1.76367 -57.3604 19.1387 -71.7627 46.4717c-9.94434 18.8613 -18.1387 40.8057 -24.3604 65.1943c-8.68066 33.9717 -3.79199 65.4717 13.7217 88.707c21.5137 28.5273 46.5967 54.0273 70.4854 77.3184c16.7363 16.3193 40.3467 17.6523 63.2354 3.61133
c30.875 -18.958 46.9717 -44.4434 49.1943 -77.9287c1.41699 -21.166 4.65332 -24.3467 26.7637 -26.2637c12.4863 -1.08301 25.458 -1.40234 38.0137 -1.69434c5.95801 -0.152344 11.9023 -0.291016 17.8604 -0.513672c27.8057 -0.986328 45.2637 11.0137 57.8604 40.3604
c28 65.2217 32.542 136.734 36.9443 205.887c0.944336 14.9023 -4.34766 30.749 -9.01465 44.7354c-2.11133 6.30566 -7.05566 12.5273 -10.0693 13.8887l-6.48633 2.93066c-20.2217 9.13867 -41.1377 18.583 -61.6377 21.625
c-24.8887 3.69434 -44.8047 5.79199 -55.8047 -3.15234c-8.63867 -7.02734 -13.7217 -22.6797 -15.0967 -46.5264c-0.347656 -5.97168 -1.15332 -19.958 -12.459 -25.3193c-11.3613 -5.40234 -22.8613 2.98633 -27.7783 6.56934
c-30.791 22.3887 -65.8604 35.291 -107.207 39.416z" />
    <glyph glyph-name="c" unicode="&#xe7;" horiz-adv-x="656" 
d="M394.198 10.3564c-27.041 -6.86133 -54.498 -10.2764 -82.5537 -10.2764c-50.041 0 -101.984 10.9023 -156.997 32.8047c-58.3047 23.2354 -95.3457 66.5127 -110.067 128.637c-16.4443 69.4014 -19.542 140.692 -20.4033 201.289
c-1.58301 65.3184 7.56934 129.748 27.2217 191.539c36.666 115.207 153.373 165.65 249.663 156.095c44.833 -4.48633 83.2354 -18.25 117.249 -42.083c2.375 30.2217 10.3613 49.9434 24.9863 61.8457c21.3467 17.375 52.4014 12.792 77.3867 9.08398
c24.333 -3.59668 47.0547 -13.8604 69.0127 -23.791l6.41699 -2.88867c12.0967 -5.43066 21.291 -19.1943 25.041 -30.4307c5.20801 -15.583 11.6943 -34.9854 10.4863 -53.957c-4.625 -72.8467 -9.31934 -146.776 -39.2217 -216.414
c-17.1387 -39.9443 -44.8887 -58.7637 -84.416 -57.166c-5.83301 0.222656 -11.666 0.361328 -17.499 0.5c-12.9717 0.305664 -26.3877 0.638672 -39.7344 1.79102c-35.6387 3.06934 -49.7637 17.1943 -52.083 52.083c-1.63867 24.5137 -12.7354 41.8193 -36.0127 56.1104
c-12 7.36133 -21.875 7.43066 -29.3057 0.166992c-23.1104 -22.541 -47.3047 -47.1104 -67.707 -74.1514c-15.8193 -20.958 -13.6113 -46.9717 -8.98633 -65.1104c5.69434 -22.2773 13.0967 -42.1797 22.0273 -59.1104c9.97168 -18.916 27.7627 -30.4717 48.8037 -31.6943
c21.5 -1.27734 41.75 8.90332 54.2637 27.1533c10.2363 14.9307 19.0557 31.6943 27.583 47.9023l2.97266 5.63867c15.541 29.458 39.3184 42.5967 70.582 39c9.19434 -1.05566 18.416 -1.90332 27.6377 -2.75098c14.8887 -1.38867 30.3047 -2.80566 45.5127 -5.05566
c28.2354 -4.18066 45.4717 -12.4863 55.874 -26.9307c10.1807 -14.1387 12.708 -33.208 7.95801 -60.041c-24.041 -135.817 -97.8594 -217.524 -225.691 -249.788zM298.34 682.821c-6.875 0.666992 -13.8604 1.01074 -20.9023 1.01074
c-80.4434 0 -169.97 -44.916 -199.553 -137.915c-18.7363 -58.8467 -27.458 -120.249 -25.9307 -182.498v-0.138672c0.833008 -59.1104 3.81934 -128.54 19.666 -195.358c12.6943 -53.5273 43.208 -89.2627 93.3184 -109.221
c81.3457 -32.4023 152.039 -39.2217 222.511 -21.4307c116.096 29.291 183.192 103.776 205.123 227.691c3.30566 18.6943 2.29199 31.4443 -3.13867 38.9717c-5.58301 7.75 -17.4717 12.7363 -37.4023 15.6943c-14.4717 2.13867 -29.4854 3.52734 -44.0127 4.875
c-9.41699 0.875 -18.834 1.73633 -28.2227 2.81934c-19.833 2.26367 -32.6797 -5.01367 -42.874 -24.3604l-2.94434 -5.59668c-8.90234 -16.9307 -18.1104 -34.4307 -29.2627 -50.6807c-18.0693 -26.3467 -47.4443 -41.0547 -78.7773 -39.1797
c-30.5273 1.76367 -57.3604 19.1387 -71.7627 46.4717c-9.94434 18.8613 -18.1387 40.8057 -24.3604 65.1943c-8.68066 33.9717 -3.79199 65.4717 13.7217 88.707c21.5137 28.5273 46.5967 54.0273 70.4854 77.3184c16.7363 16.3193 40.3467 17.6523 63.2354 3.61133
c30.875 -18.958 46.9717 -44.4434 49.1943 -77.9287c1.41699 -21.166 4.65332 -24.3467 26.7637 -26.2637c12.4863 -1.08301 25.458 -1.40234 38.0137 -1.69434c5.95801 -0.152344 11.9023 -0.291016 17.8604 -0.513672c27.8057 -0.986328 45.2637 11.0137 57.8604 40.3604
c28 65.2217 32.542 136.734 36.9443 205.887c0.944336 14.9023 -4.34766 30.749 -9.01465 44.7354c-2.11133 6.30566 -7.05566 12.5273 -10.0693 13.8887l-6.48633 2.93066c-20.2217 9.13867 -41.1377 18.583 -61.6377 21.625
c-24.8887 3.69434 -44.8047 5.79199 -55.8047 -3.15234c-8.63867 -7.02734 -13.7217 -22.6797 -15.0967 -46.5264c-0.347656 -5.97168 -1.15332 -19.958 -12.459 -25.3193c-11.3613 -5.40234 -22.8613 2.98633 -27.7783 6.56934
c-30.791 22.3887 -65.8604 35.291 -107.207 39.416z" />
    </font>
</defs>
</svg>
